%TF.GenerationSoftware,KiCad,Pcbnew,(5.1.8)-1*%
%TF.CreationDate,2020-12-05T18:28:33+00:00*%
%TF.ProjectId,ZX21,5a583231-2e6b-4696-9361-645f70636258,v01*%
%TF.SameCoordinates,Original*%
%TF.FileFunction,Paste,Bot*%
%TF.FilePolarity,Positive*%
%FSLAX46Y46*%
G04 Gerber Fmt 4.6, Leading zero omitted, Abs format (unit mm)*
G04 Created by KiCad (PCBNEW (5.1.8)-1) date 2020-12-05 18:28:33*
%MOMM*%
%LPD*%
G01*
G04 APERTURE LIST*
%ADD10R,0.900000X1.200000*%
%ADD11R,1.200000X0.750000*%
%ADD12R,1.500000X0.600000*%
%ADD13R,1.524000X7.620000*%
G04 APERTURE END LIST*
D10*
%TO.C,R106*%
X137795000Y-93027500D03*
X137795000Y-90827500D03*
%TD*%
D11*
%TO.C,C105*%
X124140000Y-84455000D03*
X122240000Y-84455000D03*
%TD*%
D10*
%TO.C,R105*%
X135255000Y-93005000D03*
X135255000Y-90805000D03*
%TD*%
D12*
%TO.C,IC102*%
X118902500Y-82867500D03*
X118902500Y-81597500D03*
X118902500Y-80327500D03*
X118902500Y-79057500D03*
X118902500Y-77787500D03*
X118902500Y-76517500D03*
X118902500Y-75247500D03*
X124302500Y-75247500D03*
X124302500Y-76517500D03*
X124302500Y-77787500D03*
X124302500Y-79057500D03*
X124302500Y-80327500D03*
X124302500Y-81597500D03*
X124302500Y-82867500D03*
%TD*%
D13*
%TO.C,EDGE1*%
X148272500Y-41592500D03*
X150812500Y-41592500D03*
X153352500Y-41592500D03*
X155892500Y-41592500D03*
X166052500Y-41592500D03*
X163512500Y-41592500D03*
X160972500Y-41592500D03*
X158432500Y-41592500D03*
X171132500Y-41592500D03*
X168592500Y-41592500D03*
X127952500Y-41592500D03*
X130492500Y-41592500D03*
X133032500Y-41592500D03*
X135572500Y-41592500D03*
X145732500Y-41592500D03*
X143192500Y-41592500D03*
X140652500Y-41592500D03*
X138112500Y-41592500D03*
X125412500Y-41592500D03*
X122872500Y-41592500D03*
X117792500Y-41592500D03*
X115252500Y-41592500D03*
%TD*%
M02*
