%TF.GenerationSoftware,KiCad,Pcbnew,(5.1.8)-1*%
%TF.CreationDate,2020-12-05T18:28:33+00:00*%
%TF.ProjectId,ZX21,5a583231-2e6b-4696-9361-645f70636258,v01*%
%TF.SameCoordinates,Original*%
%TF.FileFunction,Legend,Bot*%
%TF.FilePolarity,Positive*%
%FSLAX46Y46*%
G04 Gerber Fmt 4.6, Leading zero omitted, Abs format (unit mm)*
G04 Created by KiCad (PCBNEW (5.1.8)-1) date 2020-12-05 18:28:33*
%MOMM*%
%LPD*%
G01*
G04 APERTURE LIST*
%ADD10C,0.120000*%
%ADD11C,0.150000*%
G04 APERTURE END LIST*
D10*
%TO.C,J504*%
X124520000Y-119320000D02*
X124520000Y-121980000D01*
X106680000Y-119320000D02*
X124520000Y-119320000D01*
X106680000Y-121980000D02*
X124520000Y-121980000D01*
X106680000Y-119320000D02*
X106680000Y-121980000D01*
X105410000Y-119320000D02*
X104080000Y-119320000D01*
X104080000Y-119320000D02*
X104080000Y-120650000D01*
D11*
X124460000Y-122450000D02*
X124310000Y-122450000D01*
D10*
%TO.C,R106*%
X137115000Y-91427500D02*
X137115000Y-92427500D01*
X138475000Y-92427500D02*
X138475000Y-91427500D01*
%TO.C,C105*%
X122840000Y-85055000D02*
X123540000Y-85055000D01*
X123540000Y-83855000D02*
X122840000Y-83855000D01*
%TO.C,R105*%
X134575000Y-91405000D02*
X134575000Y-92405000D01*
X135935000Y-92405000D02*
X135935000Y-91405000D01*
D11*
%TO.C,IC102*%
X119527500Y-83482500D02*
X118152500Y-83482500D01*
X119527500Y-74607500D02*
X123677500Y-74607500D01*
X119527500Y-83507500D02*
X123677500Y-83507500D01*
X119527500Y-74607500D02*
X119527500Y-74722500D01*
X123677500Y-74607500D02*
X123677500Y-74722500D01*
X123677500Y-83507500D02*
X123677500Y-83392500D01*
X119527500Y-83507500D02*
X119527500Y-83482500D01*
%TO.C,EDGE1*%
X173164500Y-37782500D02*
X173164500Y-45402500D01*
X112712500Y-45402500D02*
X112712500Y-37782500D01*
%TO.C,J504*%
X116538214Y-122642380D02*
X116538214Y-123356666D01*
X116585833Y-123499523D01*
X116681071Y-123594761D01*
X116823928Y-123642380D01*
X116919166Y-123642380D01*
X115585833Y-122642380D02*
X116062023Y-122642380D01*
X116109642Y-123118571D01*
X116062023Y-123070952D01*
X115966785Y-123023333D01*
X115728690Y-123023333D01*
X115633452Y-123070952D01*
X115585833Y-123118571D01*
X115538214Y-123213809D01*
X115538214Y-123451904D01*
X115585833Y-123547142D01*
X115633452Y-123594761D01*
X115728690Y-123642380D01*
X115966785Y-123642380D01*
X116062023Y-123594761D01*
X116109642Y-123547142D01*
X114919166Y-122642380D02*
X114823928Y-122642380D01*
X114728690Y-122690000D01*
X114681071Y-122737619D01*
X114633452Y-122832857D01*
X114585833Y-123023333D01*
X114585833Y-123261428D01*
X114633452Y-123451904D01*
X114681071Y-123547142D01*
X114728690Y-123594761D01*
X114823928Y-123642380D01*
X114919166Y-123642380D01*
X115014404Y-123594761D01*
X115062023Y-123547142D01*
X115109642Y-123451904D01*
X115157261Y-123261428D01*
X115157261Y-123023333D01*
X115109642Y-122832857D01*
X115062023Y-122737619D01*
X115014404Y-122690000D01*
X114919166Y-122642380D01*
X113728690Y-122975714D02*
X113728690Y-123642380D01*
X113966785Y-122594761D02*
X114204880Y-123309047D01*
X113585833Y-123309047D01*
%TO.C,R106*%
X139834880Y-90638452D02*
X139358690Y-90305119D01*
X139834880Y-90067023D02*
X138834880Y-90067023D01*
X138834880Y-90447976D01*
X138882500Y-90543214D01*
X138930119Y-90590833D01*
X139025357Y-90638452D01*
X139168214Y-90638452D01*
X139263452Y-90590833D01*
X139311071Y-90543214D01*
X139358690Y-90447976D01*
X139358690Y-90067023D01*
X139834880Y-91590833D02*
X139834880Y-91019404D01*
X139834880Y-91305119D02*
X138834880Y-91305119D01*
X138977738Y-91209880D01*
X139072976Y-91114642D01*
X139120595Y-91019404D01*
X138834880Y-92209880D02*
X138834880Y-92305119D01*
X138882500Y-92400357D01*
X138930119Y-92447976D01*
X139025357Y-92495595D01*
X139215833Y-92543214D01*
X139453928Y-92543214D01*
X139644404Y-92495595D01*
X139739642Y-92447976D01*
X139787261Y-92400357D01*
X139834880Y-92305119D01*
X139834880Y-92209880D01*
X139787261Y-92114642D01*
X139739642Y-92067023D01*
X139644404Y-92019404D01*
X139453928Y-91971785D01*
X139215833Y-91971785D01*
X139025357Y-92019404D01*
X138930119Y-92067023D01*
X138882500Y-92114642D01*
X138834880Y-92209880D01*
X138834880Y-93400357D02*
X138834880Y-93209880D01*
X138882500Y-93114642D01*
X138930119Y-93067023D01*
X139072976Y-92971785D01*
X139263452Y-92924166D01*
X139644404Y-92924166D01*
X139739642Y-92971785D01*
X139787261Y-93019404D01*
X139834880Y-93114642D01*
X139834880Y-93305119D01*
X139787261Y-93400357D01*
X139739642Y-93447976D01*
X139644404Y-93495595D01*
X139406309Y-93495595D01*
X139311071Y-93447976D01*
X139263452Y-93400357D01*
X139215833Y-93305119D01*
X139215833Y-93114642D01*
X139263452Y-93019404D01*
X139311071Y-92971785D01*
X139406309Y-92924166D01*
%TO.C,C105*%
X124626547Y-86399642D02*
X124674166Y-86447261D01*
X124817023Y-86494880D01*
X124912261Y-86494880D01*
X125055119Y-86447261D01*
X125150357Y-86352023D01*
X125197976Y-86256785D01*
X125245595Y-86066309D01*
X125245595Y-85923452D01*
X125197976Y-85732976D01*
X125150357Y-85637738D01*
X125055119Y-85542500D01*
X124912261Y-85494880D01*
X124817023Y-85494880D01*
X124674166Y-85542500D01*
X124626547Y-85590119D01*
X123674166Y-86494880D02*
X124245595Y-86494880D01*
X123959880Y-86494880D02*
X123959880Y-85494880D01*
X124055119Y-85637738D01*
X124150357Y-85732976D01*
X124245595Y-85780595D01*
X123055119Y-85494880D02*
X122959880Y-85494880D01*
X122864642Y-85542500D01*
X122817023Y-85590119D01*
X122769404Y-85685357D01*
X122721785Y-85875833D01*
X122721785Y-86113928D01*
X122769404Y-86304404D01*
X122817023Y-86399642D01*
X122864642Y-86447261D01*
X122959880Y-86494880D01*
X123055119Y-86494880D01*
X123150357Y-86447261D01*
X123197976Y-86399642D01*
X123245595Y-86304404D01*
X123293214Y-86113928D01*
X123293214Y-85875833D01*
X123245595Y-85685357D01*
X123197976Y-85590119D01*
X123150357Y-85542500D01*
X123055119Y-85494880D01*
X121817023Y-85494880D02*
X122293214Y-85494880D01*
X122340833Y-85971071D01*
X122293214Y-85923452D01*
X122197976Y-85875833D01*
X121959880Y-85875833D01*
X121864642Y-85923452D01*
X121817023Y-85971071D01*
X121769404Y-86066309D01*
X121769404Y-86304404D01*
X121817023Y-86399642D01*
X121864642Y-86447261D01*
X121959880Y-86494880D01*
X122197976Y-86494880D01*
X122293214Y-86447261D01*
X122340833Y-86399642D01*
%TO.C,R105*%
X134119880Y-90638452D02*
X133643690Y-90305119D01*
X134119880Y-90067023D02*
X133119880Y-90067023D01*
X133119880Y-90447976D01*
X133167500Y-90543214D01*
X133215119Y-90590833D01*
X133310357Y-90638452D01*
X133453214Y-90638452D01*
X133548452Y-90590833D01*
X133596071Y-90543214D01*
X133643690Y-90447976D01*
X133643690Y-90067023D01*
X134119880Y-91590833D02*
X134119880Y-91019404D01*
X134119880Y-91305119D02*
X133119880Y-91305119D01*
X133262738Y-91209880D01*
X133357976Y-91114642D01*
X133405595Y-91019404D01*
X133119880Y-92209880D02*
X133119880Y-92305119D01*
X133167500Y-92400357D01*
X133215119Y-92447976D01*
X133310357Y-92495595D01*
X133500833Y-92543214D01*
X133738928Y-92543214D01*
X133929404Y-92495595D01*
X134024642Y-92447976D01*
X134072261Y-92400357D01*
X134119880Y-92305119D01*
X134119880Y-92209880D01*
X134072261Y-92114642D01*
X134024642Y-92067023D01*
X133929404Y-92019404D01*
X133738928Y-91971785D01*
X133500833Y-91971785D01*
X133310357Y-92019404D01*
X133215119Y-92067023D01*
X133167500Y-92114642D01*
X133119880Y-92209880D01*
X133119880Y-93447976D02*
X133119880Y-92971785D01*
X133596071Y-92924166D01*
X133548452Y-92971785D01*
X133500833Y-93067023D01*
X133500833Y-93305119D01*
X133548452Y-93400357D01*
X133596071Y-93447976D01*
X133691309Y-93495595D01*
X133929404Y-93495595D01*
X134024642Y-93447976D01*
X134072261Y-93400357D01*
X134119880Y-93305119D01*
X134119880Y-93067023D01*
X134072261Y-92971785D01*
X134024642Y-92924166D01*
%TO.C,IC102*%
X123213571Y-74112380D02*
X123213571Y-73112380D01*
X122165952Y-74017142D02*
X122213571Y-74064761D01*
X122356428Y-74112380D01*
X122451666Y-74112380D01*
X122594523Y-74064761D01*
X122689761Y-73969523D01*
X122737380Y-73874285D01*
X122785000Y-73683809D01*
X122785000Y-73540952D01*
X122737380Y-73350476D01*
X122689761Y-73255238D01*
X122594523Y-73160000D01*
X122451666Y-73112380D01*
X122356428Y-73112380D01*
X122213571Y-73160000D01*
X122165952Y-73207619D01*
X121213571Y-74112380D02*
X121785000Y-74112380D01*
X121499285Y-74112380D02*
X121499285Y-73112380D01*
X121594523Y-73255238D01*
X121689761Y-73350476D01*
X121785000Y-73398095D01*
X120594523Y-73112380D02*
X120499285Y-73112380D01*
X120404047Y-73160000D01*
X120356428Y-73207619D01*
X120308809Y-73302857D01*
X120261190Y-73493333D01*
X120261190Y-73731428D01*
X120308809Y-73921904D01*
X120356428Y-74017142D01*
X120404047Y-74064761D01*
X120499285Y-74112380D01*
X120594523Y-74112380D01*
X120689761Y-74064761D01*
X120737380Y-74017142D01*
X120785000Y-73921904D01*
X120832619Y-73731428D01*
X120832619Y-73493333D01*
X120785000Y-73302857D01*
X120737380Y-73207619D01*
X120689761Y-73160000D01*
X120594523Y-73112380D01*
X119880238Y-73207619D02*
X119832619Y-73160000D01*
X119737380Y-73112380D01*
X119499285Y-73112380D01*
X119404047Y-73160000D01*
X119356428Y-73207619D01*
X119308809Y-73302857D01*
X119308809Y-73398095D01*
X119356428Y-73540952D01*
X119927857Y-74112380D01*
X119308809Y-74112380D01*
%TD*%
M02*
