%TF.GenerationSoftware,KiCad,Pcbnew,(5.1.8)-1*%
%TF.CreationDate,2020-12-05T18:28:33+00:00*%
%TF.ProjectId,ZX21,5a583231-2e6b-4696-9361-645f70636258,v01*%
%TF.SameCoordinates,Original*%
%TF.FileFunction,Paste,Top*%
%TF.FilePolarity,Positive*%
%FSLAX46Y46*%
G04 Gerber Fmt 4.6, Leading zero omitted, Abs format (unit mm)*
G04 Created by KiCad (PCBNEW (5.1.8)-1) date 2020-12-05 18:28:33*
%MOMM*%
%LPD*%
G01*
G04 APERTURE LIST*
%ADD10R,0.750000X1.200000*%
%ADD11R,0.800000X1.900000*%
%ADD12R,6.000000X6.000000*%
%ADD13O,2.500000X0.900000*%
%ADD14O,0.900000X2.500000*%
%ADD15R,1.524000X7.620000*%
G04 APERTURE END LIST*
D10*
%TO.C,C303*%
X60325000Y-46985000D03*
X60325000Y-45085000D03*
%TD*%
D11*
%TO.C,IC303*%
X57787500Y-47450000D03*
X56837500Y-44450000D03*
X58737500Y-44450000D03*
%TD*%
D12*
%TO.C,IC302*%
X42355000Y-52467500D03*
D13*
X33655000Y-44767500D03*
X33655000Y-46037500D03*
X33655000Y-47307500D03*
X33655000Y-48577500D03*
X33655000Y-49847500D03*
X33655000Y-51117500D03*
X33655000Y-52387500D03*
X33655000Y-53657500D03*
X33655000Y-54927500D03*
X33655000Y-56197500D03*
X33655000Y-57467500D03*
X33655000Y-58737500D03*
X33655000Y-60007500D03*
X33655000Y-61277500D03*
D14*
X36940000Y-62767500D03*
X38210000Y-62767500D03*
X39480000Y-62767500D03*
X40750000Y-62767500D03*
X42020000Y-62767500D03*
X43290000Y-62767500D03*
X44560000Y-62767500D03*
X45830000Y-62767500D03*
X47100000Y-62767500D03*
X48370000Y-62767500D03*
D13*
X51655000Y-61277500D03*
X51655000Y-60007500D03*
X51655000Y-58737500D03*
X51655000Y-57467500D03*
X51655000Y-56197500D03*
X51655000Y-54927500D03*
X51655000Y-53657500D03*
X51655000Y-52387500D03*
X51655000Y-51117500D03*
X51655000Y-49847500D03*
X51655000Y-48577500D03*
X51655000Y-47307500D03*
X51655000Y-46037500D03*
X51655000Y-44767500D03*
%TD*%
D15*
%TO.C,EDGE1*%
X115252500Y-41592500D03*
X117792500Y-41592500D03*
X122872500Y-41592500D03*
X125412500Y-41592500D03*
X138112500Y-41592500D03*
X140652500Y-41592500D03*
X143192500Y-41592500D03*
X145732500Y-41592500D03*
X135572500Y-41592500D03*
X133032500Y-41592500D03*
X130492500Y-41592500D03*
X127952500Y-41592500D03*
X168592500Y-41592500D03*
X171132500Y-41592500D03*
X158432500Y-41592500D03*
X160972500Y-41592500D03*
X163512500Y-41592500D03*
X166052500Y-41592500D03*
X155892500Y-41592500D03*
X153352500Y-41592500D03*
X150812500Y-41592500D03*
X148272500Y-41592500D03*
%TD*%
M02*
