%TF.GenerationSoftware,KiCad,Pcbnew,(5.1.8)-1*%
%TF.CreationDate,2020-12-05T18:28:33+00:00*%
%TF.ProjectId,ZX21,5a583231-2e6b-4696-9361-645f70636258,v01*%
%TF.SameCoordinates,Original*%
%TF.FileFunction,Soldermask,Top*%
%TF.FilePolarity,Negative*%
%FSLAX46Y46*%
G04 Gerber Fmt 4.6, Leading zero omitted, Abs format (unit mm)*
G04 Created by KiCad (PCBNEW (5.1.8)-1) date 2020-12-05 18:28:33*
%MOMM*%
%LPD*%
G01*
G04 APERTURE LIST*
%ADD10R,1.600000X1.600000*%
%ADD11C,1.600000*%
%ADD12R,1.800000X1.800000*%
%ADD13O,1.800000X1.800000*%
%ADD14R,0.750000X1.200000*%
%ADD15C,1.700000*%
%ADD16R,1.700000X1.700000*%
%ADD17O,1.700000X1.700000*%
%ADD18C,2.700000*%
%ADD19C,1.875000*%
%ADD20C,1.300000*%
%ADD21R,2.400000X2.400000*%
%ADD22O,2.400000X2.400000*%
%ADD23C,1.400000*%
%ADD24O,1.400000X1.400000*%
%ADD25R,2.400000X1.600000*%
%ADD26O,2.400000X1.600000*%
%ADD27O,1.600000X1.600000*%
%ADD28R,1.600000X2.400000*%
%ADD29O,1.600000X2.400000*%
%ADD30R,0.800000X1.900000*%
%ADD31C,3.000000*%
%ADD32R,6.000000X6.000000*%
%ADD33O,2.500000X0.900000*%
%ADD34O,0.900000X2.500000*%
%ADD35R,1.524000X7.620000*%
%ADD36R,3.500000X3.500000*%
%ADD37C,3.810000*%
%ADD38R,1.520000X1.520000*%
%ADD39C,1.520000*%
%ADD40R,1.727200X1.727200*%
%ADD41O,1.727200X1.727200*%
%ADD42C,1.000000*%
%ADD43R,1.000000X1.000000*%
%ADD44O,3.500000X3.500000*%
%ADD45C,1.800000*%
G04 APERTURE END LIST*
%TO.C,MIC1*%
G36*
G01*
X38385000Y-110902500D02*
X38385000Y-106902500D01*
G75*
G02*
X38885000Y-106402500I500000J0D01*
G01*
X39885000Y-106402500D01*
G75*
G02*
X40385000Y-106902500I0J-500000D01*
G01*
X40385000Y-110902500D01*
G75*
G02*
X39885000Y-111402500I-500000J0D01*
G01*
X38885000Y-111402500D01*
G75*
G02*
X38385000Y-110902500I0J500000D01*
G01*
G37*
G36*
G01*
X34885000Y-110902500D02*
X34885000Y-106902500D01*
G75*
G02*
X35385000Y-106402500I500000J0D01*
G01*
X36385000Y-106402500D01*
G75*
G02*
X36885000Y-106902500I0J-500000D01*
G01*
X36885000Y-110902500D01*
G75*
G02*
X36385000Y-111402500I-500000J0D01*
G01*
X35385000Y-111402500D01*
G75*
G02*
X34885000Y-110902500I0J500000D01*
G01*
G37*
G36*
G01*
X31385000Y-110902500D02*
X31385000Y-106902500D01*
G75*
G02*
X31885000Y-106402500I500000J0D01*
G01*
X32885000Y-106402500D01*
G75*
G02*
X33385000Y-106902500I0J-500000D01*
G01*
X33385000Y-110902500D01*
G75*
G02*
X32885000Y-111402500I-500000J0D01*
G01*
X31885000Y-111402500D01*
G75*
G02*
X31385000Y-110902500I0J500000D01*
G01*
G37*
%TD*%
D10*
%TO.C,C101*%
X57785000Y-65405000D03*
D11*
X55285000Y-65405000D03*
%TD*%
D12*
%TO.C,IC301*%
X64770000Y-55562500D03*
D13*
X64770000Y-53022500D03*
X64770000Y-50482500D03*
%TD*%
D14*
%TO.C,C303*%
X60325000Y-46985000D03*
X60325000Y-45085000D03*
%TD*%
D15*
%TO.C,X1*%
X87947500Y-41672500D03*
X87947500Y-44172500D03*
X87947500Y-46672500D03*
%TD*%
D16*
%TO.C,J701*%
X115252500Y-50165000D03*
D17*
X115252500Y-47625000D03*
X117792500Y-50165000D03*
X117792500Y-47625000D03*
X122872500Y-50165000D03*
X122872500Y-47625000D03*
X125412500Y-50165000D03*
X125412500Y-47625000D03*
X127952500Y-50165000D03*
X127952500Y-47625000D03*
X130492500Y-50165000D03*
X130492500Y-47625000D03*
X133032500Y-50165000D03*
X133032500Y-47625000D03*
X135572500Y-50165000D03*
X135572500Y-47625000D03*
X138112500Y-50165000D03*
X138112500Y-47625000D03*
X140652500Y-50165000D03*
X140652500Y-47625000D03*
X143192500Y-50165000D03*
X143192500Y-47625000D03*
X145732500Y-50165000D03*
X145732500Y-47625000D03*
X148272500Y-50165000D03*
X148272500Y-47625000D03*
X150812500Y-50165000D03*
X150812500Y-47625000D03*
X153352500Y-50165000D03*
X153352500Y-47625000D03*
X155892500Y-50165000D03*
X155892500Y-47625000D03*
X158432500Y-50165000D03*
X158432500Y-47625000D03*
X160972500Y-50165000D03*
X160972500Y-47625000D03*
X163512500Y-50165000D03*
X163512500Y-47625000D03*
X166052500Y-50165000D03*
X166052500Y-47625000D03*
X168592500Y-50165000D03*
X168592500Y-47625000D03*
X171132500Y-50165000D03*
X171132500Y-47625000D03*
%TD*%
D18*
%TO.C,REF\u002A\u002A*%
X144600000Y-54000000D03*
%TD*%
D16*
%TO.C,J302*%
X54610000Y-48260000D03*
D17*
X54610000Y-50800000D03*
X54610000Y-53340000D03*
%TD*%
D16*
%TO.C,J204*%
X170815000Y-56515000D03*
D17*
X168275000Y-56515000D03*
X165735000Y-56515000D03*
%TD*%
D16*
%TO.C,J203*%
X170815000Y-59372500D03*
D17*
X168275000Y-59372500D03*
X165735000Y-59372500D03*
%TD*%
D16*
%TO.C,J101*%
X140335000Y-95250000D03*
D17*
X137795000Y-95250000D03*
X135255000Y-95250000D03*
%TD*%
D19*
%TO.C,S1*%
X171132500Y-69532500D03*
X165532500Y-82732500D03*
D20*
X169582500Y-71132500D03*
X169582500Y-73132500D03*
X169582500Y-75132500D03*
X169582500Y-77132500D03*
X169582500Y-79132500D03*
X169582500Y-81132500D03*
X167082500Y-71132500D03*
X167082500Y-73132500D03*
X167082500Y-75132500D03*
X167082500Y-77132500D03*
X167082500Y-79132500D03*
X167082500Y-81132500D03*
%TD*%
%TO.C,EAR1*%
G36*
G01*
X38385000Y-96932500D02*
X38385000Y-92932500D01*
G75*
G02*
X38885000Y-92432500I500000J0D01*
G01*
X39885000Y-92432500D01*
G75*
G02*
X40385000Y-92932500I0J-500000D01*
G01*
X40385000Y-96932500D01*
G75*
G02*
X39885000Y-97432500I-500000J0D01*
G01*
X38885000Y-97432500D01*
G75*
G02*
X38385000Y-96932500I0J500000D01*
G01*
G37*
G36*
G01*
X34885000Y-96932500D02*
X34885000Y-92932500D01*
G75*
G02*
X35385000Y-92432500I500000J0D01*
G01*
X36385000Y-92432500D01*
G75*
G02*
X36885000Y-92932500I0J-500000D01*
G01*
X36885000Y-96932500D01*
G75*
G02*
X36385000Y-97432500I-500000J0D01*
G01*
X35385000Y-97432500D01*
G75*
G02*
X34885000Y-96932500I0J500000D01*
G01*
G37*
G36*
G01*
X31385000Y-96932500D02*
X31385000Y-92932500D01*
G75*
G02*
X31885000Y-92432500I500000J0D01*
G01*
X32885000Y-92432500D01*
G75*
G02*
X33385000Y-92932500I0J-500000D01*
G01*
X33385000Y-96932500D01*
G75*
G02*
X32885000Y-97432500I-500000J0D01*
G01*
X31885000Y-97432500D01*
G75*
G02*
X31385000Y-96932500I0J500000D01*
G01*
G37*
%TD*%
D16*
%TO.C,J504*%
X105410000Y-120650000D03*
D17*
X107950000Y-120650000D03*
X110490000Y-120650000D03*
X113030000Y-120650000D03*
X115570000Y-120650000D03*
X118110000Y-120650000D03*
X120650000Y-120650000D03*
X123190000Y-120650000D03*
%TD*%
D16*
%TO.C,J503*%
X104457500Y-135255000D03*
D17*
X101917500Y-135255000D03*
X99377500Y-135255000D03*
X96837500Y-135255000D03*
X94297500Y-135255000D03*
X91757500Y-135255000D03*
X89217500Y-135255000D03*
X86677500Y-135255000D03*
%TD*%
D16*
%TO.C,J502*%
X124777500Y-135255000D03*
D17*
X122237500Y-135255000D03*
X119697500Y-135255000D03*
X117157500Y-135255000D03*
X114617500Y-135255000D03*
X112077500Y-135255000D03*
X109537500Y-135255000D03*
X106997500Y-135255000D03*
%TD*%
D10*
%TO.C,C302*%
X59055000Y-50482500D03*
D11*
X59055000Y-52982500D03*
%TD*%
D10*
%TO.C,C301*%
X57785000Y-59372500D03*
D11*
X55285000Y-59372500D03*
%TD*%
D10*
%TO.C,C5*%
X96202500Y-46037500D03*
D11*
X96202500Y-43537500D03*
%TD*%
D21*
%TO.C,C3*%
X44767500Y-122872500D03*
D22*
X62767500Y-122872500D03*
%TD*%
D11*
%TO.C,C501*%
X125730000Y-125650000D03*
X125730000Y-120650000D03*
%TD*%
%TO.C,C104*%
X54292500Y-91122500D03*
X49292500Y-91122500D03*
%TD*%
%TO.C,C103*%
X60245000Y-72072500D03*
X55245000Y-72072500D03*
%TD*%
%TO.C,C102*%
X62865000Y-89217500D03*
X57865000Y-89217500D03*
%TD*%
%TO.C,C12*%
X50085000Y-111760000D03*
X45085000Y-111760000D03*
%TD*%
%TO.C,C11*%
X45085000Y-115252500D03*
X50085000Y-115252500D03*
%TD*%
%TO.C,C10*%
X49847500Y-100330000D03*
X44847500Y-100330000D03*
%TD*%
%TO.C,C9*%
X135255000Y-61912500D03*
X140255000Y-61912500D03*
%TD*%
%TO.C,C8*%
X152400000Y-99060000D03*
X147400000Y-99060000D03*
%TD*%
%TO.C,C7*%
X98107500Y-56515000D03*
X98107500Y-51515000D03*
%TD*%
%TO.C,C6*%
X87947500Y-49292500D03*
X87947500Y-54292500D03*
%TD*%
%TO.C,C4*%
X87312500Y-111442500D03*
X92312500Y-111442500D03*
%TD*%
%TO.C,C1*%
X92035000Y-106997500D03*
X89535000Y-106997500D03*
%TD*%
D23*
%TO.C,R504*%
X58420000Y-118745000D03*
D24*
X66040000Y-118745000D03*
%TD*%
D23*
%TO.C,R503*%
X58420000Y-111125000D03*
D24*
X66040000Y-111125000D03*
%TD*%
D23*
%TO.C,R502*%
X58420000Y-113665000D03*
D24*
X66040000Y-113665000D03*
%TD*%
D23*
%TO.C,R501*%
X58420000Y-116205000D03*
D24*
X66040000Y-116205000D03*
%TD*%
D23*
%TO.C,R401*%
X165417500Y-90424000D03*
D24*
X165417500Y-98044000D03*
%TD*%
D23*
%TO.C,R303*%
X46037500Y-73342500D03*
D24*
X46037500Y-65722500D03*
%TD*%
D23*
%TO.C,R302*%
X48577500Y-65722500D03*
D24*
X48577500Y-73342500D03*
%TD*%
%TO.C,R301*%
X51117500Y-65722500D03*
D23*
X51117500Y-73342500D03*
%TD*%
%TO.C,R201*%
X156527500Y-54927500D03*
D24*
X148907500Y-54927500D03*
%TD*%
D25*
%TO.C,IC801*%
X113982500Y-57467500D03*
D26*
X113982500Y-60007500D03*
X129222500Y-60007500D03*
X129222500Y-57467500D03*
%TD*%
D10*
%TO.C,D102*%
X41275000Y-82232500D03*
D27*
X33655000Y-82232500D03*
%TD*%
D10*
%TO.C,D101*%
X33655000Y-84772500D03*
D27*
X41275000Y-84772500D03*
%TD*%
D10*
%TO.C,D8*%
X130492500Y-117475000D03*
D27*
X130492500Y-125095000D03*
%TD*%
D10*
%TO.C,D7*%
X133667500Y-117475000D03*
D27*
X133667500Y-125095000D03*
%TD*%
D10*
%TO.C,D6*%
X158432500Y-104140000D03*
D27*
X158432500Y-111760000D03*
%TD*%
D10*
%TO.C,D5*%
X145732500Y-104140000D03*
D27*
X145732500Y-111760000D03*
%TD*%
D10*
%TO.C,D4*%
X155892500Y-104140000D03*
D27*
X155892500Y-111760000D03*
%TD*%
D10*
%TO.C,D3*%
X148272500Y-104140000D03*
D27*
X148272500Y-111760000D03*
%TD*%
D10*
%TO.C,D2*%
X153352500Y-104140000D03*
D27*
X153352500Y-111760000D03*
%TD*%
D10*
%TO.C,D1*%
X150812500Y-104140000D03*
D27*
X150812500Y-111760000D03*
%TD*%
D23*
%TO.C,R104*%
X43497500Y-84137500D03*
D24*
X51117500Y-84137500D03*
%TD*%
D23*
%TO.C,R103*%
X43497500Y-81280000D03*
D24*
X51117500Y-81280000D03*
%TD*%
D23*
%TO.C,R102*%
X43497500Y-88265000D03*
D24*
X51117500Y-88265000D03*
%TD*%
D23*
%TO.C,R101*%
X62865000Y-74930000D03*
D24*
X55245000Y-74930000D03*
%TD*%
D23*
%TO.C,R34*%
X40005000Y-88265000D03*
D24*
X32385000Y-88265000D03*
%TD*%
D23*
%TO.C,R33*%
X58102500Y-92710000D03*
D24*
X58102500Y-100330000D03*
%TD*%
D23*
%TO.C,R30*%
X90805000Y-54610000D03*
D24*
X90805000Y-62230000D03*
%TD*%
D23*
%TO.C,R29*%
X52705000Y-108585000D03*
D24*
X45085000Y-108585000D03*
%TD*%
D23*
%TO.C,R28*%
X66040000Y-78422500D03*
D24*
X66040000Y-86042500D03*
%TD*%
D23*
%TO.C,R27*%
X40322500Y-115252500D03*
D24*
X32702500Y-115252500D03*
%TD*%
D23*
%TO.C,R26*%
X133032500Y-85407500D03*
D24*
X140652500Y-85407500D03*
%TD*%
D23*
%TO.C,R25*%
X133032500Y-77787500D03*
D24*
X140652500Y-77787500D03*
%TD*%
D23*
%TO.C,R24*%
X133032500Y-75247500D03*
D24*
X140652500Y-75247500D03*
%TD*%
D23*
%TO.C,R23*%
X133032500Y-72707500D03*
D24*
X140652500Y-72707500D03*
%TD*%
D23*
%TO.C,R22*%
X133032500Y-65087500D03*
D24*
X140652500Y-65087500D03*
%TD*%
D23*
%TO.C,R21*%
X133032500Y-67627500D03*
D24*
X140652500Y-67627500D03*
%TD*%
D23*
%TO.C,R20*%
X133032500Y-70167500D03*
D24*
X140652500Y-70167500D03*
%TD*%
D23*
%TO.C,R19*%
X133032500Y-80327500D03*
D24*
X140652500Y-80327500D03*
%TD*%
D23*
%TO.C,R18*%
X133032500Y-82867500D03*
D24*
X140652500Y-82867500D03*
%TD*%
D23*
%TO.C,R17*%
X91122500Y-40640000D03*
D24*
X98742500Y-40640000D03*
%TD*%
D23*
%TO.C,R16*%
X109537500Y-57150000D03*
D24*
X109537500Y-49530000D03*
%TD*%
D23*
%TO.C,R15*%
X109537500Y-46037500D03*
D24*
X101917500Y-46037500D03*
%TD*%
D23*
%TO.C,R14*%
X68897500Y-100965000D03*
D24*
X68897500Y-108585000D03*
%TD*%
D23*
%TO.C,R13*%
X86677500Y-100965000D03*
D24*
X86677500Y-108585000D03*
%TD*%
D23*
%TO.C,R12*%
X84137500Y-108585000D03*
D24*
X84137500Y-100965000D03*
%TD*%
D23*
%TO.C,R11*%
X81597500Y-100965000D03*
D24*
X81597500Y-108585000D03*
%TD*%
D23*
%TO.C,R10*%
X71437500Y-100965000D03*
D24*
X71437500Y-108585000D03*
%TD*%
D23*
%TO.C,R9*%
X73977500Y-100965000D03*
D24*
X73977500Y-108585000D03*
%TD*%
D23*
%TO.C,R8*%
X76517500Y-100965000D03*
D24*
X76517500Y-108585000D03*
%TD*%
D23*
%TO.C,R7*%
X79057500Y-100965000D03*
D24*
X79057500Y-108585000D03*
%TD*%
D23*
%TO.C,R6*%
X87947500Y-80327500D03*
D24*
X87947500Y-72707500D03*
%TD*%
D23*
%TO.C,R5*%
X91122500Y-84772500D03*
D24*
X91122500Y-77152500D03*
%TD*%
D23*
%TO.C,R4*%
X87947500Y-64135000D03*
D24*
X87947500Y-56515000D03*
%TD*%
D23*
%TO.C,R2*%
X106680000Y-49212500D03*
D24*
X99060000Y-49212500D03*
%TD*%
D23*
%TO.C,R1*%
X87947500Y-82550000D03*
D24*
X87947500Y-90170000D03*
%TD*%
D28*
%TO.C,IC503*%
X81597500Y-127317500D03*
D29*
X99377500Y-119697500D03*
X84137500Y-127317500D03*
X96837500Y-119697500D03*
X86677500Y-127317500D03*
X94297500Y-119697500D03*
X89217500Y-127317500D03*
X91757500Y-119697500D03*
X91757500Y-127317500D03*
X89217500Y-119697500D03*
X94297500Y-127317500D03*
X86677500Y-119697500D03*
X96837500Y-127317500D03*
X84137500Y-119697500D03*
X99377500Y-127317500D03*
X81597500Y-119697500D03*
%TD*%
D25*
%TO.C,IC4*%
X113982500Y-62547500D03*
D26*
X129222500Y-95567500D03*
X113982500Y-65087500D03*
X129222500Y-93027500D03*
X113982500Y-67627500D03*
X129222500Y-90487500D03*
X113982500Y-70167500D03*
X129222500Y-87947500D03*
X113982500Y-72707500D03*
X129222500Y-85407500D03*
X113982500Y-75247500D03*
X129222500Y-82867500D03*
X113982500Y-77787500D03*
X129222500Y-80327500D03*
X113982500Y-80327500D03*
X129222500Y-77787500D03*
X113982500Y-82867500D03*
X129222500Y-75247500D03*
X113982500Y-85407500D03*
X129222500Y-72707500D03*
X113982500Y-87947500D03*
X129222500Y-70167500D03*
X113982500Y-90487500D03*
X129222500Y-67627500D03*
X113982500Y-93027500D03*
X129222500Y-65087500D03*
X113982500Y-95567500D03*
X129222500Y-62547500D03*
%TD*%
D28*
%TO.C,IC501*%
X73977500Y-131762500D03*
D29*
X122237500Y-116522500D03*
X76517500Y-131762500D03*
X119697500Y-116522500D03*
X79057500Y-131762500D03*
X117157500Y-116522500D03*
X81597500Y-131762500D03*
X114617500Y-116522500D03*
X84137500Y-131762500D03*
X112077500Y-116522500D03*
X86677500Y-131762500D03*
X109537500Y-116522500D03*
X89217500Y-131762500D03*
X106997500Y-116522500D03*
X91757500Y-131762500D03*
X104457500Y-116522500D03*
X94297500Y-131762500D03*
X101917500Y-116522500D03*
X96837500Y-131762500D03*
X99377500Y-116522500D03*
X99377500Y-131762500D03*
X96837500Y-116522500D03*
X101917500Y-131762500D03*
X94297500Y-116522500D03*
X104457500Y-131762500D03*
X91757500Y-116522500D03*
X106997500Y-131762500D03*
X89217500Y-116522500D03*
X109537500Y-131762500D03*
X86677500Y-116522500D03*
X112077500Y-131762500D03*
X84137500Y-116522500D03*
X114617500Y-131762500D03*
X81597500Y-116522500D03*
X117157500Y-131762500D03*
X79057500Y-116522500D03*
X119697500Y-131762500D03*
X76517500Y-116522500D03*
X122237500Y-131762500D03*
X73977500Y-116522500D03*
%TD*%
D25*
%TO.C,IC3*%
X94932500Y-60007500D03*
D26*
X110172500Y-108267500D03*
X94932500Y-62547500D03*
X110172500Y-105727500D03*
X94932500Y-65087500D03*
X110172500Y-103187500D03*
X94932500Y-67627500D03*
X110172500Y-100647500D03*
X94932500Y-70167500D03*
X110172500Y-98107500D03*
X94932500Y-72707500D03*
X110172500Y-95567500D03*
X94932500Y-75247500D03*
X110172500Y-93027500D03*
X94932500Y-77787500D03*
X110172500Y-90487500D03*
X94932500Y-80327500D03*
X110172500Y-87947500D03*
X94932500Y-82867500D03*
X110172500Y-85407500D03*
X94932500Y-85407500D03*
X110172500Y-82867500D03*
X94932500Y-87947500D03*
X110172500Y-80327500D03*
X94932500Y-90487500D03*
X110172500Y-77787500D03*
X94932500Y-93027500D03*
X110172500Y-75247500D03*
X94932500Y-95567500D03*
X110172500Y-72707500D03*
X94932500Y-98107500D03*
X110172500Y-70167500D03*
X94932500Y-100647500D03*
X110172500Y-67627500D03*
X94932500Y-103187500D03*
X110172500Y-65087500D03*
X94932500Y-105727500D03*
X110172500Y-62547500D03*
X94932500Y-108267500D03*
X110172500Y-60007500D03*
%TD*%
D25*
%TO.C,IC1*%
X69215000Y-41910000D03*
D26*
X84455000Y-90170000D03*
X69215000Y-44450000D03*
X84455000Y-87630000D03*
X69215000Y-46990000D03*
X84455000Y-85090000D03*
X69215000Y-49530000D03*
X84455000Y-82550000D03*
X69215000Y-52070000D03*
X84455000Y-80010000D03*
X69215000Y-54610000D03*
X84455000Y-77470000D03*
X69215000Y-57150000D03*
X84455000Y-74930000D03*
X69215000Y-59690000D03*
X84455000Y-72390000D03*
X69215000Y-62230000D03*
X84455000Y-69850000D03*
X69215000Y-64770000D03*
X84455000Y-67310000D03*
X69215000Y-67310000D03*
X84455000Y-64770000D03*
X69215000Y-69850000D03*
X84455000Y-62230000D03*
X69215000Y-72390000D03*
X84455000Y-59690000D03*
X69215000Y-74930000D03*
X84455000Y-57150000D03*
X69215000Y-77470000D03*
X84455000Y-54610000D03*
X69215000Y-80010000D03*
X84455000Y-52070000D03*
X69215000Y-82550000D03*
X84455000Y-49530000D03*
X69215000Y-85090000D03*
X84455000Y-46990000D03*
X69215000Y-87630000D03*
X84455000Y-44450000D03*
X69215000Y-90170000D03*
X84455000Y-41910000D03*
%TD*%
D25*
%TO.C,IC2*%
X147320000Y-62547500D03*
D26*
X162560000Y-95567500D03*
X147320000Y-65087500D03*
X162560000Y-93027500D03*
X147320000Y-67627500D03*
X162560000Y-90487500D03*
X147320000Y-70167500D03*
X162560000Y-87947500D03*
X147320000Y-72707500D03*
X162560000Y-85407500D03*
X147320000Y-75247500D03*
X162560000Y-82867500D03*
X147320000Y-77787500D03*
X162560000Y-80327500D03*
X147320000Y-80327500D03*
X162560000Y-77787500D03*
X147320000Y-82867500D03*
X162560000Y-75247500D03*
X147320000Y-85407500D03*
X162560000Y-72707500D03*
X147320000Y-87947500D03*
X162560000Y-70167500D03*
X147320000Y-90487500D03*
X162560000Y-67627500D03*
X147320000Y-93027500D03*
X162560000Y-65087500D03*
X147320000Y-95567500D03*
X162560000Y-62547500D03*
%TD*%
D30*
%TO.C,IC303*%
X57787500Y-47450000D03*
X56837500Y-44450000D03*
X58737500Y-44450000D03*
%TD*%
D28*
%TO.C,IC502*%
X141922500Y-99695000D03*
D29*
X119062500Y-107315000D03*
X139382500Y-99695000D03*
X121602500Y-107315000D03*
X136842500Y-99695000D03*
X124142500Y-107315000D03*
X134302500Y-99695000D03*
X126682500Y-107315000D03*
X131762500Y-99695000D03*
X129222500Y-107315000D03*
X129222500Y-99695000D03*
X131762500Y-107315000D03*
X126682500Y-99695000D03*
X134302500Y-107315000D03*
X124142500Y-99695000D03*
X136842500Y-107315000D03*
X121602500Y-99695000D03*
X139382500Y-107315000D03*
X119062500Y-99695000D03*
X141922500Y-107315000D03*
%TD*%
D16*
%TO.C,J501*%
X134302500Y-111125000D03*
D17*
X131762500Y-111125000D03*
X129222500Y-111125000D03*
X126682500Y-111125000D03*
X124142500Y-111125000D03*
X121602500Y-111125000D03*
%TD*%
D31*
%TO.C,REF\u002A\u002A*%
X69000000Y-127000000D03*
%TD*%
%TO.C,REF\u002A\u002A*%
X45200000Y-93800000D03*
%TD*%
%TO.C,REF\u002A\u002A*%
X103400000Y-54400000D03*
%TD*%
%TO.C,REF\u002A\u002A*%
X103400000Y-41200000D03*
%TD*%
%TO.C,REF\u002A\u002A*%
X167800000Y-64600000D03*
%TD*%
D32*
%TO.C,IC302*%
X42355000Y-52467500D03*
D33*
X33655000Y-44767500D03*
X33655000Y-46037500D03*
X33655000Y-47307500D03*
X33655000Y-48577500D03*
X33655000Y-49847500D03*
X33655000Y-51117500D03*
X33655000Y-52387500D03*
X33655000Y-53657500D03*
X33655000Y-54927500D03*
X33655000Y-56197500D03*
X33655000Y-57467500D03*
X33655000Y-58737500D03*
X33655000Y-60007500D03*
X33655000Y-61277500D03*
D34*
X36940000Y-62767500D03*
X38210000Y-62767500D03*
X39480000Y-62767500D03*
X40750000Y-62767500D03*
X42020000Y-62767500D03*
X43290000Y-62767500D03*
X44560000Y-62767500D03*
X45830000Y-62767500D03*
X47100000Y-62767500D03*
X48370000Y-62767500D03*
D33*
X51655000Y-61277500D03*
X51655000Y-60007500D03*
X51655000Y-58737500D03*
X51655000Y-57467500D03*
X51655000Y-56197500D03*
X51655000Y-54927500D03*
X51655000Y-53657500D03*
X51655000Y-52387500D03*
X51655000Y-51117500D03*
X51655000Y-49847500D03*
X51655000Y-48577500D03*
X51655000Y-47307500D03*
X51655000Y-46037500D03*
X51655000Y-44767500D03*
%TD*%
D11*
%TO.C,C2*%
X66040000Y-39410000D03*
X66040000Y-41910000D03*
%TD*%
D35*
%TO.C,EDGE1*%
X115252500Y-41592500D03*
X117792500Y-41592500D03*
X122872500Y-41592500D03*
X125412500Y-41592500D03*
X138112500Y-41592500D03*
X140652500Y-41592500D03*
X143192500Y-41592500D03*
X145732500Y-41592500D03*
X135572500Y-41592500D03*
X133032500Y-41592500D03*
X130492500Y-41592500D03*
X127952500Y-41592500D03*
X168592500Y-41592500D03*
X171132500Y-41592500D03*
X158432500Y-41592500D03*
X160972500Y-41592500D03*
X163512500Y-41592500D03*
X166052500Y-41592500D03*
X155892500Y-41592500D03*
X153352500Y-41592500D03*
X150812500Y-41592500D03*
X148272500Y-41592500D03*
%TD*%
D26*
%TO.C,IC101*%
X62865000Y-78105000D03*
X55245000Y-85725000D03*
X62865000Y-80645000D03*
X55245000Y-83185000D03*
X62865000Y-83185000D03*
X55245000Y-80645000D03*
X62865000Y-85725000D03*
D25*
X55245000Y-78105000D03*
%TD*%
D36*
%TO.C,J1*%
X37925000Y-128525000D03*
X34925000Y-123825000D03*
X40925000Y-123825000D03*
%TD*%
D17*
%TO.C,J301*%
X33655000Y-67310000D03*
X36195000Y-67310000D03*
X38735000Y-67310000D03*
D16*
X41275000Y-67310000D03*
%TD*%
D37*
%TO.C,J401*%
X170434000Y-113665000D03*
X170434000Y-88265000D03*
D38*
X167894000Y-106425000D03*
D39*
X167894000Y-103635000D03*
X167894000Y-100835000D03*
X167894000Y-98175000D03*
X167894000Y-95375000D03*
X170434000Y-96775000D03*
X170434000Y-99565000D03*
X170434000Y-102235000D03*
X170434000Y-105025000D03*
%TD*%
D40*
%TO.C,J601*%
X140652500Y-122555000D03*
D41*
X140652500Y-120015000D03*
X143192500Y-122555000D03*
X143192500Y-120015000D03*
X145732500Y-122555000D03*
X145732500Y-120015000D03*
X148272500Y-122555000D03*
X148272500Y-120015000D03*
X150812500Y-122555000D03*
X150812500Y-120015000D03*
X153352500Y-122555000D03*
X153352500Y-120015000D03*
X155892500Y-122555000D03*
X155892500Y-120015000D03*
X158432500Y-122555000D03*
X158432500Y-120015000D03*
%TD*%
D16*
%TO.C,J702*%
X66357500Y-94615000D03*
D17*
X68897500Y-94615000D03*
X71437500Y-94615000D03*
X73977500Y-94615000D03*
X76517500Y-94615000D03*
X79057500Y-94615000D03*
X81597500Y-94615000D03*
X84137500Y-94615000D03*
X86677500Y-94615000D03*
%TD*%
%TO.C,J703*%
X143827500Y-65087500D03*
X143827500Y-67627500D03*
X143827500Y-70167500D03*
X143827500Y-72707500D03*
X143827500Y-75247500D03*
X143827500Y-77787500D03*
X143827500Y-80327500D03*
X143827500Y-82867500D03*
D16*
X143827500Y-85407500D03*
%TD*%
D17*
%TO.C,KB1*%
X138430000Y-131445000D03*
X135890000Y-131445000D03*
X133350000Y-131445000D03*
X130810000Y-131445000D03*
D16*
X128270000Y-131445000D03*
%TD*%
D17*
%TO.C,KB2*%
X167005000Y-128905000D03*
X164465000Y-128905000D03*
X161925000Y-128905000D03*
X159385000Y-128905000D03*
X156845000Y-128905000D03*
X154305000Y-128905000D03*
X151765000Y-128905000D03*
D16*
X149225000Y-128905000D03*
%TD*%
D42*
%TO.C,TR403*%
X164070000Y-107315000D03*
X162800000Y-108585000D03*
D43*
X162800000Y-106045000D03*
%TD*%
D13*
%TO.C,REG1*%
X44132500Y-133985000D03*
X44132500Y-131445000D03*
D12*
X44132500Y-128905000D03*
D44*
X60792500Y-131445000D03*
%TD*%
D10*
%TO.C,RP1*%
X89217500Y-98107500D03*
D27*
X86677500Y-98107500D03*
X84137500Y-98107500D03*
X81597500Y-98107500D03*
X79057500Y-98107500D03*
X76517500Y-98107500D03*
X73977500Y-98107500D03*
X71437500Y-98107500D03*
X68897500Y-98107500D03*
%TD*%
D10*
%TO.C,RP3*%
X145732500Y-114300000D03*
D27*
X148272500Y-114300000D03*
X150812500Y-114300000D03*
X153352500Y-114300000D03*
X155892500Y-114300000D03*
X158432500Y-114300000D03*
%TD*%
D43*
%TO.C,TR1*%
X91122500Y-103822500D03*
D42*
X91122500Y-101282500D03*
X89852500Y-102552500D03*
%TD*%
%TO.C,TR2*%
X89217500Y-67945000D03*
X90487500Y-66675000D03*
D43*
X90487500Y-69215000D03*
%TD*%
D42*
%TO.C,TR101*%
X49212500Y-76200000D03*
X50482500Y-77470000D03*
D43*
X47942500Y-77470000D03*
%TD*%
%TO.C,TR102*%
X51752500Y-96837500D03*
D42*
X51752500Y-94297500D03*
X50482500Y-95567500D03*
%TD*%
D43*
%TO.C,TR401*%
X157400000Y-98860000D03*
D42*
X157400000Y-101400000D03*
X158670000Y-100130000D03*
%TD*%
D43*
%TO.C,TR402*%
X162800000Y-100584000D03*
D42*
X162800000Y-103124000D03*
X164070000Y-101854000D03*
%TD*%
D43*
%TO.C,TR404*%
X171070000Y-120730000D03*
D42*
X168530000Y-120730000D03*
X169800000Y-122000000D03*
%TD*%
%TO.C,TR405*%
X164070000Y-113330000D03*
X162800000Y-114600000D03*
D43*
X162800000Y-112060000D03*
%TD*%
%TO.C,VIDEO1*%
G36*
G01*
X38460000Y-75625000D02*
X38460000Y-74375000D01*
G75*
G02*
X39085000Y-73750000I625000J0D01*
G01*
X43035000Y-73750000D01*
G75*
G02*
X43660000Y-74375000I0J-625000D01*
G01*
X43660000Y-75625000D01*
G75*
G02*
X43035000Y-76250000I-625000J0D01*
G01*
X39085000Y-76250000D01*
G75*
G02*
X38460000Y-75625000I0J625000D01*
G01*
G37*
G36*
G01*
X34560000Y-77100000D02*
X34560000Y-72900000D01*
G75*
G02*
X35060000Y-72400000I500000J0D01*
G01*
X36060000Y-72400000D01*
G75*
G02*
X36560000Y-72900000I0J-500000D01*
G01*
X36560000Y-77100000D01*
G75*
G02*
X36060000Y-77600000I-500000J0D01*
G01*
X35060000Y-77600000D01*
G75*
G02*
X34560000Y-77100000I0J500000D01*
G01*
G37*
D45*
X32760000Y-71500000D03*
X32760000Y-78500000D03*
%TD*%
M02*
