%TF.GenerationSoftware,KiCad,Pcbnew,(5.1.8)-1*%
%TF.CreationDate,2020-12-05T18:28:33+00:00*%
%TF.ProjectId,ZX21,5a583231-2e6b-4696-9361-645f70636258,v01*%
%TF.SameCoordinates,Original*%
%TF.FileFunction,Copper,L2,Bot*%
%TF.FilePolarity,Positive*%
%FSLAX46Y46*%
G04 Gerber Fmt 4.6, Leading zero omitted, Abs format (unit mm)*
G04 Created by KiCad (PCBNEW (5.1.8)-1) date 2020-12-05 18:28:33*
%MOMM*%
%LPD*%
G01*
G04 APERTURE LIST*
%TA.AperFunction,NonConductor*%
%ADD10C,0.300000*%
%TD*%
%TA.AperFunction,ComponentPad*%
%ADD11R,1.600000X1.600000*%
%TD*%
%TA.AperFunction,ComponentPad*%
%ADD12C,1.600000*%
%TD*%
%TA.AperFunction,ComponentPad*%
%ADD13R,1.800000X1.800000*%
%TD*%
%TA.AperFunction,ComponentPad*%
%ADD14O,1.800000X1.800000*%
%TD*%
%TA.AperFunction,ComponentPad*%
%ADD15C,1.700000*%
%TD*%
%TA.AperFunction,ComponentPad*%
%ADD16R,1.700000X1.700000*%
%TD*%
%TA.AperFunction,ComponentPad*%
%ADD17O,1.700000X1.700000*%
%TD*%
%TA.AperFunction,ComponentPad*%
%ADD18C,1.875000*%
%TD*%
%TA.AperFunction,ComponentPad*%
%ADD19C,1.300000*%
%TD*%
%TA.AperFunction,ComponentPad*%
%ADD20R,2.400000X2.400000*%
%TD*%
%TA.AperFunction,ComponentPad*%
%ADD21O,2.400000X2.400000*%
%TD*%
%TA.AperFunction,ComponentPad*%
%ADD22C,1.400000*%
%TD*%
%TA.AperFunction,ComponentPad*%
%ADD23O,1.400000X1.400000*%
%TD*%
%TA.AperFunction,ComponentPad*%
%ADD24R,2.400000X1.600000*%
%TD*%
%TA.AperFunction,ComponentPad*%
%ADD25O,2.400000X1.600000*%
%TD*%
%TA.AperFunction,ComponentPad*%
%ADD26O,1.600000X1.600000*%
%TD*%
%TA.AperFunction,ComponentPad*%
%ADD27R,1.600000X2.400000*%
%TD*%
%TA.AperFunction,ComponentPad*%
%ADD28O,1.600000X2.400000*%
%TD*%
%TA.AperFunction,SMDPad,CuDef*%
%ADD29R,0.900000X1.200000*%
%TD*%
%TA.AperFunction,SMDPad,CuDef*%
%ADD30R,1.200000X0.750000*%
%TD*%
%TA.AperFunction,SMDPad,CuDef*%
%ADD31R,1.500000X0.600000*%
%TD*%
%TA.AperFunction,SMDPad,CuDef*%
%ADD32R,1.524000X7.620000*%
%TD*%
%TA.AperFunction,ComponentPad*%
%ADD33R,3.500000X3.500000*%
%TD*%
%TA.AperFunction,ComponentPad*%
%ADD34C,3.810000*%
%TD*%
%TA.AperFunction,ComponentPad*%
%ADD35R,1.520000X1.520000*%
%TD*%
%TA.AperFunction,ComponentPad*%
%ADD36C,1.520000*%
%TD*%
%TA.AperFunction,ComponentPad*%
%ADD37R,1.727200X1.727200*%
%TD*%
%TA.AperFunction,ComponentPad*%
%ADD38O,1.727200X1.727200*%
%TD*%
%TA.AperFunction,ComponentPad*%
%ADD39C,1.000000*%
%TD*%
%TA.AperFunction,ComponentPad*%
%ADD40R,1.000000X1.000000*%
%TD*%
%TA.AperFunction,ViaPad*%
%ADD41C,0.685800*%
%TD*%
%TA.AperFunction,Conductor*%
%ADD42C,0.203200*%
%TD*%
%TA.AperFunction,Conductor*%
%ADD43C,1.016000*%
%TD*%
%TA.AperFunction,Conductor*%
%ADD44C,0.508000*%
%TD*%
%TA.AperFunction,Conductor*%
%ADD45C,0.254000*%
%TD*%
%TA.AperFunction,Conductor*%
%ADD46C,0.100000*%
%TD*%
G04 APERTURE END LIST*
D10*
X189519285Y-46882857D02*
X189305000Y-46954285D01*
X189233571Y-47025714D01*
X189162142Y-47168571D01*
X189162142Y-47382857D01*
X189233571Y-47525714D01*
X189305000Y-47597142D01*
X189447857Y-47668571D01*
X190019285Y-47668571D01*
X190019285Y-46168571D01*
X189519285Y-46168571D01*
X189376428Y-46240000D01*
X189305000Y-46311428D01*
X189233571Y-46454285D01*
X189233571Y-46597142D01*
X189305000Y-46740000D01*
X189376428Y-46811428D01*
X189519285Y-46882857D01*
X190019285Y-46882857D01*
X188233571Y-46168571D02*
X187947857Y-46168571D01*
X187805000Y-46240000D01*
X187662142Y-46382857D01*
X187590714Y-46668571D01*
X187590714Y-47168571D01*
X187662142Y-47454285D01*
X187805000Y-47597142D01*
X187947857Y-47668571D01*
X188233571Y-47668571D01*
X188376428Y-47597142D01*
X188519285Y-47454285D01*
X188590714Y-47168571D01*
X188590714Y-46668571D01*
X188519285Y-46382857D01*
X188376428Y-46240000D01*
X188233571Y-46168571D01*
X187162142Y-46168571D02*
X186305000Y-46168571D01*
X186733571Y-47668571D02*
X186733571Y-46168571D01*
X186019285Y-46168571D02*
X185162142Y-46168571D01*
X185590714Y-47668571D02*
X185590714Y-46168571D01*
X184376428Y-46168571D02*
X184090714Y-46168571D01*
X183947857Y-46240000D01*
X183805000Y-46382857D01*
X183733571Y-46668571D01*
X183733571Y-47168571D01*
X183805000Y-47454285D01*
X183947857Y-47597142D01*
X184090714Y-47668571D01*
X184376428Y-47668571D01*
X184519285Y-47597142D01*
X184662142Y-47454285D01*
X184733571Y-47168571D01*
X184733571Y-46668571D01*
X184662142Y-46382857D01*
X184519285Y-46240000D01*
X184376428Y-46168571D01*
X183090714Y-47668571D02*
X183090714Y-46168571D01*
X182590714Y-47240000D01*
X182090714Y-46168571D01*
X182090714Y-47668571D01*
%TO.P,MIC1,1*%
%TO.N,Net-(C11-Pad1)*%
%TA.AperFunction,ComponentPad*%
G36*
G01*
X38385000Y-110902500D02*
X38385000Y-106902500D01*
G75*
G02*
X38885000Y-106402500I500000J0D01*
G01*
X39885000Y-106402500D01*
G75*
G02*
X40385000Y-106902500I0J-500000D01*
G01*
X40385000Y-110902500D01*
G75*
G02*
X39885000Y-111402500I-500000J0D01*
G01*
X38885000Y-111402500D01*
G75*
G02*
X38385000Y-110902500I0J500000D01*
G01*
G37*
%TD.AperFunction*%
%TO.P,MIC1,2*%
%TO.N,SOUND*%
%TA.AperFunction,ComponentPad*%
G36*
G01*
X34885000Y-110902500D02*
X34885000Y-106902500D01*
G75*
G02*
X35385000Y-106402500I500000J0D01*
G01*
X36385000Y-106402500D01*
G75*
G02*
X36885000Y-106902500I0J-500000D01*
G01*
X36885000Y-110902500D01*
G75*
G02*
X36385000Y-111402500I-500000J0D01*
G01*
X35385000Y-111402500D01*
G75*
G02*
X34885000Y-110902500I0J500000D01*
G01*
G37*
%TD.AperFunction*%
%TO.P,MIC1,3*%
%TO.N,GND*%
%TA.AperFunction,ComponentPad*%
G36*
G01*
X31385000Y-110902500D02*
X31385000Y-106902500D01*
G75*
G02*
X31885000Y-106402500I500000J0D01*
G01*
X32885000Y-106402500D01*
G75*
G02*
X33385000Y-106902500I0J-500000D01*
G01*
X33385000Y-110902500D01*
G75*
G02*
X32885000Y-111402500I-500000J0D01*
G01*
X31885000Y-111402500D01*
G75*
G02*
X31385000Y-110902500I0J500000D01*
G01*
G37*
%TD.AperFunction*%
%TD*%
D11*
%TO.P,C101,1*%
%TO.N,+5V*%
X57785000Y-65405000D03*
D12*
%TO.P,C101,2*%
%TO.N,GND*%
X55285000Y-65405000D03*
%TD*%
D13*
%TO.P,IC301,1*%
%TO.N,+9V*%
X64770000Y-55562500D03*
D14*
%TO.P,IC301,2*%
%TO.N,GND*%
X64770000Y-53022500D03*
%TO.P,IC301,3*%
%TO.N,+3V3*%
X64770000Y-50482500D03*
%TD*%
D15*
%TO.P,X1,3*%
%TO.N,Net-(X1-Pad3)*%
X87947500Y-41672500D03*
%TO.P,X1,2*%
%TO.N,GND*%
X87947500Y-44172500D03*
%TO.P,X1,1*%
%TO.N,Net-(C6-Pad1)*%
X87947500Y-46672500D03*
%TD*%
D16*
%TO.P,J701,a1*%
%TO.N,D7'*%
X115252500Y-50165000D03*
D17*
%TO.P,J701,b1*%
%TO.N,+5V*%
X115252500Y-47625000D03*
%TO.P,J701,a2*%
%TO.N,RAM_CS*%
X117792500Y-50165000D03*
%TO.P,J701,b2*%
%TO.N,+9V*%
X117792500Y-47625000D03*
%TO.P,J701,a4*%
%TO.N,D0'*%
X122872500Y-50165000D03*
%TO.P,J701,b4*%
%TO.N,GND*%
X122872500Y-47625000D03*
%TO.P,J701,a5*%
%TO.N,D1'*%
X125412500Y-50165000D03*
%TO.P,J701,b5*%
%TO.N,GND*%
X125412500Y-47625000D03*
%TO.P,J701,a6*%
%TO.N,D2'*%
X127952500Y-50165000D03*
%TO.P,J701,b6*%
%TO.N,CLK*%
X127952500Y-47625000D03*
%TO.P,J701,a7*%
%TO.N,D6'*%
X130492500Y-50165000D03*
%TO.P,J701,b7*%
%TO.N,A0*%
X130492500Y-47625000D03*
%TO.P,J701,a8*%
%TO.N,D5'*%
X133032500Y-50165000D03*
%TO.P,J701,b8*%
%TO.N,A1*%
X133032500Y-47625000D03*
%TO.P,J701,a9*%
%TO.N,D3'*%
X135572500Y-50165000D03*
%TO.P,J701,b9*%
%TO.N,A2*%
X135572500Y-47625000D03*
%TO.P,J701,a10*%
%TO.N,D4'*%
X138112500Y-50165000D03*
%TO.P,J701,b10*%
%TO.N,A3*%
X138112500Y-47625000D03*
%TO.P,J701,a11*%
%TO.N,INT*%
X140652500Y-50165000D03*
%TO.P,J701,b11*%
%TO.N,A15*%
X140652500Y-47625000D03*
%TO.P,J701,a12*%
%TO.N,NMI*%
X143192500Y-50165000D03*
%TO.P,J701,b12*%
%TO.N,A14*%
X143192500Y-47625000D03*
%TO.P,J701,a13*%
%TO.N,HALT*%
X145732500Y-50165000D03*
%TO.P,J701,b13*%
%TO.N,A13*%
X145732500Y-47625000D03*
%TO.P,J701,a14*%
%TO.N,MREQ*%
X148272500Y-50165000D03*
%TO.P,J701,b14*%
%TO.N,A12*%
X148272500Y-47625000D03*
%TO.P,J701,a15*%
%TO.N,IORQ*%
X150812500Y-50165000D03*
%TO.P,J701,b15*%
%TO.N,A11*%
X150812500Y-47625000D03*
%TO.P,J701,a16*%
%TO.N,RD*%
X153352500Y-50165000D03*
%TO.P,J701,b16*%
%TO.N,A10*%
X153352500Y-47625000D03*
%TO.P,J701,a17*%
%TO.N,WR*%
X155892500Y-50165000D03*
%TO.P,J701,b17*%
%TO.N,A9*%
X155892500Y-47625000D03*
%TO.P,J701,a18*%
%TO.N,BUSAK*%
X158432500Y-50165000D03*
%TO.P,J701,b18*%
%TO.N,A8*%
X158432500Y-47625000D03*
%TO.P,J701,a19*%
%TO.N,WAIT*%
X160972500Y-50165000D03*
%TO.P,J701,b19*%
%TO.N,A7*%
X160972500Y-47625000D03*
%TO.P,J701,a20*%
%TO.N,BUSRQ*%
X163512500Y-50165000D03*
%TO.P,J701,b20*%
%TO.N,A6*%
X163512500Y-47625000D03*
%TO.P,J701,a21*%
%TO.N,RESET*%
X166052500Y-50165000D03*
%TO.P,J701,b21*%
%TO.N,A5*%
X166052500Y-47625000D03*
%TO.P,J701,a22*%
%TO.N,MI*%
X168592500Y-50165000D03*
%TO.P,J701,b22*%
%TO.N,A4*%
X168592500Y-47625000D03*
%TO.P,J701,a23*%
%TO.N,RFSH*%
X171132500Y-50165000D03*
%TO.P,J701,b23*%
%TO.N,ROM_CS*%
X171132500Y-47625000D03*
%TD*%
D16*
%TO.P,J302,1*%
%TO.N,Net-(IC302-Pad35)*%
X54610000Y-48260000D03*
D17*
%TO.P,J302,2*%
%TO.N,Net-(IC302-Pad34)*%
X54610000Y-50800000D03*
%TO.P,J302,3*%
%TO.N,GND*%
X54610000Y-53340000D03*
%TD*%
D16*
%TO.P,J204,1*%
%TO.N,WR*%
X170815000Y-56515000D03*
D17*
%TO.P,J204,2*%
%TO.N,Net-(IC2-Pad27)*%
X168275000Y-56515000D03*
%TO.P,J204,3*%
%TO.N,+5V*%
X165735000Y-56515000D03*
%TD*%
D16*
%TO.P,J203,1*%
%TO.N,GND*%
X170815000Y-59372500D03*
D17*
%TO.P,J203,2*%
%TO.N,Net-(IC2-Pad1)*%
X168275000Y-59372500D03*
%TO.P,J203,3*%
%TO.N,+5V*%
X165735000Y-59372500D03*
%TD*%
D16*
%TO.P,J101,1*%
%TO.N,GND*%
X140335000Y-95250000D03*
D17*
%TO.P,J101,2*%
%TO.N,Net-(IC102-Pad13)*%
X137795000Y-95250000D03*
%TO.P,J101,3*%
%TO.N,Net-(IC102-Pad1)*%
X135255000Y-95250000D03*
%TD*%
D18*
%TO.P,S1,MH2*%
%TO.N,Net-(S1-PadMH2)*%
X171132500Y-69532500D03*
%TO.P,S1,MH1*%
%TO.N,Net-(S1-PadMH1)*%
X165532500Y-82732500D03*
D19*
%TO.P,S1,12*%
%TO.N,+5V*%
X169582500Y-71132500D03*
%TO.P,S1,11*%
%TO.N,ROM26*%
X169582500Y-73132500D03*
%TO.P,S1,10*%
%TO.N,A13*%
X169582500Y-75132500D03*
%TO.P,S1,9*%
%TO.N,A12*%
X169582500Y-77132500D03*
%TO.P,S1,8*%
%TO.N,ROM23*%
X169582500Y-79132500D03*
%TO.P,S1,7*%
%TO.N,A11*%
X169582500Y-81132500D03*
%TO.P,S1,6*%
%TO.N,ROM_CS*%
X167082500Y-71132500D03*
%TO.P,S1,5*%
%TO.N,ROM22*%
X167082500Y-73132500D03*
%TO.P,S1,4*%
%TO.N,GND*%
X167082500Y-75132500D03*
%TO.P,S1,3*%
%TO.N,A11*%
X167082500Y-77132500D03*
%TO.P,S1,2*%
%TO.N,ROM20*%
X167082500Y-79132500D03*
%TO.P,S1,1*%
%TO.N,ROM_CS*%
X167082500Y-81132500D03*
%TD*%
%TO.P,EAR1,1*%
%TO.N,EAR_IN*%
%TA.AperFunction,ComponentPad*%
G36*
G01*
X38385000Y-96932500D02*
X38385000Y-92932500D01*
G75*
G02*
X38885000Y-92432500I500000J0D01*
G01*
X39885000Y-92432500D01*
G75*
G02*
X40385000Y-92932500I0J-500000D01*
G01*
X40385000Y-96932500D01*
G75*
G02*
X39885000Y-97432500I-500000J0D01*
G01*
X38885000Y-97432500D01*
G75*
G02*
X38385000Y-96932500I0J500000D01*
G01*
G37*
%TD.AperFunction*%
%TO.P,EAR1,2*%
%TO.N,Net-(EAR1-Pad2)*%
%TA.AperFunction,ComponentPad*%
G36*
G01*
X34885000Y-96932500D02*
X34885000Y-92932500D01*
G75*
G02*
X35385000Y-92432500I500000J0D01*
G01*
X36385000Y-92432500D01*
G75*
G02*
X36885000Y-92932500I0J-500000D01*
G01*
X36885000Y-96932500D01*
G75*
G02*
X36385000Y-97432500I-500000J0D01*
G01*
X35385000Y-97432500D01*
G75*
G02*
X34885000Y-96932500I0J500000D01*
G01*
G37*
%TD.AperFunction*%
%TO.P,EAR1,3*%
%TO.N,GND*%
%TA.AperFunction,ComponentPad*%
G36*
G01*
X31385000Y-96932500D02*
X31385000Y-92932500D01*
G75*
G02*
X31885000Y-92432500I500000J0D01*
G01*
X32885000Y-92432500D01*
G75*
G02*
X33385000Y-92932500I0J-500000D01*
G01*
X33385000Y-96932500D01*
G75*
G02*
X32885000Y-97432500I-500000J0D01*
G01*
X31885000Y-97432500D01*
G75*
G02*
X31385000Y-96932500I0J500000D01*
G01*
G37*
%TD.AperFunction*%
%TD*%
D16*
%TO.P,J504,1*%
%TO.N,+5V*%
X105410000Y-120650000D03*
D17*
%TO.P,J504,2*%
%TO.N,Net-(IC501-Pad28)*%
X107950000Y-120650000D03*
%TO.P,J504,3*%
%TO.N,Net-(IC501-Pad26)*%
X110490000Y-120650000D03*
%TO.P,J504,4*%
%TO.N,Net-(IC501-Pad25)*%
X113030000Y-120650000D03*
%TO.P,J504,5*%
%TO.N,Net-(IC501-Pad24)*%
X115570000Y-120650000D03*
%TO.P,J504,6*%
%TO.N,Net-(IC501-Pad23)*%
X118110000Y-120650000D03*
%TO.P,J504,7*%
%TO.N,Net-(IC501-Pad22)*%
X120650000Y-120650000D03*
%TO.P,J504,8*%
%TO.N,GND*%
X123190000Y-120650000D03*
%TD*%
D16*
%TO.P,J503,1*%
%TO.N,Net-(IC501-Pad13)*%
X104457500Y-135255000D03*
D17*
%TO.P,J503,2*%
%TO.N,Net-(IC501-Pad12)*%
X101917500Y-135255000D03*
%TO.P,J503,3*%
%TO.N,Net-(IC501-Pad11)*%
X99377500Y-135255000D03*
%TO.P,J503,4*%
%TO.N,Net-(IC501-Pad10)*%
X96837500Y-135255000D03*
%TO.P,J503,5*%
%TO.N,Net-(IC501-Pad9)*%
X94297500Y-135255000D03*
%TO.P,J503,6*%
%TO.N,Net-(IC501-Pad8)*%
X91757500Y-135255000D03*
%TO.P,J503,7*%
%TO.N,Net-(IC501-Pad7)*%
X89217500Y-135255000D03*
%TO.P,J503,8*%
%TO.N,Net-(IC501-Pad6)*%
X86677500Y-135255000D03*
%TD*%
D16*
%TO.P,J502,1*%
%TO.N,Net-(IC501-Pad21)*%
X124777500Y-135255000D03*
D17*
%TO.P,J502,2*%
%TO.N,Net-(IC501-Pad20)*%
X122237500Y-135255000D03*
%TO.P,J502,3*%
%TO.N,Net-(IC501-Pad19)*%
X119697500Y-135255000D03*
%TO.P,J502,4*%
%TO.N,Net-(IC501-Pad18)*%
X117157500Y-135255000D03*
%TO.P,J502,5*%
%TO.N,Net-(IC501-Pad17)*%
X114617500Y-135255000D03*
%TO.P,J502,6*%
%TO.N,Net-(IC501-Pad16)*%
X112077500Y-135255000D03*
%TO.P,J502,7*%
%TO.N,Net-(IC501-Pad15)*%
X109537500Y-135255000D03*
%TO.P,J502,8*%
%TO.N,Net-(IC501-Pad14)*%
X106997500Y-135255000D03*
%TD*%
D11*
%TO.P,C302,1*%
%TO.N,+3V3*%
X59055000Y-50482500D03*
D12*
%TO.P,C302,2*%
%TO.N,GND*%
X59055000Y-52982500D03*
%TD*%
D11*
%TO.P,C301,1*%
%TO.N,+9V*%
X57785000Y-59372500D03*
D12*
%TO.P,C301,2*%
%TO.N,GND*%
X55285000Y-59372500D03*
%TD*%
D11*
%TO.P,C5,1*%
%TO.N,RESET*%
X96202500Y-46037500D03*
D12*
%TO.P,C5,2*%
%TO.N,GND*%
X96202500Y-43537500D03*
%TD*%
D20*
%TO.P,C3,1*%
%TO.N,+9V*%
X44767500Y-122872500D03*
D21*
%TO.P,C3,2*%
%TO.N,GND*%
X62767500Y-122872500D03*
%TD*%
D12*
%TO.P,C501,1*%
%TO.N,+5V*%
X125730000Y-125650000D03*
%TO.P,C501,2*%
%TO.N,GND*%
X125730000Y-120650000D03*
%TD*%
%TO.P,C104,1*%
%TO.N,Net-(C104-Pad1)*%
X54292500Y-91122500D03*
%TO.P,C104,2*%
%TO.N,Net-(C104-Pad2)*%
X49292500Y-91122500D03*
%TD*%
%TO.P,C103,1*%
%TO.N,Net-(C103-Pad1)*%
X60245000Y-72072500D03*
%TO.P,C103,2*%
%TO.N,GND*%
X55245000Y-72072500D03*
%TD*%
%TO.P,C102,1*%
%TO.N,Net-(C102-Pad1)*%
X62865000Y-89217500D03*
%TO.P,C102,2*%
%TO.N,GND*%
X57865000Y-89217500D03*
%TD*%
%TO.P,C12,1*%
%TO.N,Net-(C12-Pad1)*%
X50085000Y-111760000D03*
%TO.P,C12,2*%
%TO.N,Net-(C11-Pad1)*%
X45085000Y-111760000D03*
%TD*%
%TO.P,C11,1*%
%TO.N,Net-(C11-Pad1)*%
X45085000Y-115252500D03*
%TO.P,C11,2*%
%TO.N,GND*%
X50085000Y-115252500D03*
%TD*%
%TO.P,C10,1*%
%TO.N,Net-(C10-Pad1)*%
X49847500Y-100330000D03*
%TO.P,C10,2*%
%TO.N,EAR_IN*%
X44847500Y-100330000D03*
%TD*%
%TO.P,C9,1*%
%TO.N,+5V*%
X135255000Y-61912500D03*
%TO.P,C9,2*%
%TO.N,GND*%
X140255000Y-61912500D03*
%TD*%
%TO.P,C8,1*%
%TO.N,+5V*%
X152400000Y-99060000D03*
%TO.P,C8,2*%
%TO.N,GND*%
X147400000Y-99060000D03*
%TD*%
%TO.P,C7,1*%
%TO.N,Net-(C7-Pad1)*%
X98107500Y-56515000D03*
%TO.P,C7,2*%
%TO.N,CLK*%
X98107500Y-51515000D03*
%TD*%
%TO.P,C6,1*%
%TO.N,Net-(C6-Pad1)*%
X87947500Y-49292500D03*
%TO.P,C6,2*%
%TO.N,Net-(C6-Pad2)*%
X87947500Y-54292500D03*
%TD*%
%TO.P,C4,1*%
%TO.N,+5V*%
X87312500Y-111442500D03*
%TO.P,C4,2*%
%TO.N,GND*%
X92312500Y-111442500D03*
%TD*%
%TO.P,C1,2*%
%TO.N,HALT*%
X92035000Y-106997500D03*
%TO.P,C1,1*%
%TO.N,Net-(C1-Pad1)*%
X89535000Y-106997500D03*
%TD*%
D22*
%TO.P,R504,1*%
%TO.N,SOUND*%
X58420000Y-118745000D03*
D23*
%TO.P,R504,2*%
%TO.N,GND*%
X66040000Y-118745000D03*
%TD*%
D22*
%TO.P,R503,1*%
%TO.N,SOUND*%
X58420000Y-111125000D03*
D23*
%TO.P,R503,2*%
%TO.N,Net-(IC501-Pad38)*%
X66040000Y-111125000D03*
%TD*%
D22*
%TO.P,R502,1*%
%TO.N,SOUND*%
X58420000Y-113665000D03*
D23*
%TO.P,R502,2*%
%TO.N,Net-(IC501-Pad4)*%
X66040000Y-113665000D03*
%TD*%
D22*
%TO.P,R501,1*%
%TO.N,SOUND*%
X58420000Y-116205000D03*
D23*
%TO.P,R501,2*%
%TO.N,Net-(IC501-Pad3)*%
X66040000Y-116205000D03*
%TD*%
D22*
%TO.P,R401,1*%
%TO.N,+5V*%
X165417500Y-90424000D03*
D23*
%TO.P,R401,2*%
%TO.N,Net-(J401-Pad8)*%
X165417500Y-98044000D03*
%TD*%
D22*
%TO.P,R303,1*%
%TO.N,EAR_IN*%
X46037500Y-73342500D03*
D23*
%TO.P,R303,2*%
%TO.N,IO22*%
X46037500Y-65722500D03*
%TD*%
D22*
%TO.P,R302,1*%
%TO.N,VP*%
X48577500Y-65722500D03*
D23*
%TO.P,R302,2*%
%TO.N,GND*%
X48577500Y-73342500D03*
%TD*%
%TO.P,R301,2*%
%TO.N,VP*%
X51117500Y-65722500D03*
D22*
%TO.P,R301,1*%
%TO.N,TAPE_OUT*%
X51117500Y-73342500D03*
%TD*%
%TO.P,R201,1*%
%TO.N,A6*%
X156527500Y-54927500D03*
D23*
%TO.P,R201,2*%
%TO.N,INT*%
X148907500Y-54927500D03*
%TD*%
D24*
%TO.P,IC801,1*%
%TO.N,A14*%
X113982500Y-57467500D03*
D25*
%TO.P,IC801,2*%
X113982500Y-60007500D03*
%TO.P,IC801,3*%
%TO.N,A15*%
X129222500Y-60007500D03*
%TO.P,IC801,4*%
%TO.N,+5V*%
X129222500Y-57467500D03*
%TD*%
D11*
%TO.P,D102,1*%
%TO.N,Net-(D102-Pad1)*%
X41275000Y-82232500D03*
D26*
%TO.P,D102,2*%
%TO.N,Net-(D101-Pad1)*%
X33655000Y-82232500D03*
%TD*%
D11*
%TO.P,D101,1*%
%TO.N,Net-(D101-Pad1)*%
X33655000Y-84772500D03*
D26*
%TO.P,D101,2*%
%TO.N,Net-(D101-Pad2)*%
X41275000Y-84772500D03*
%TD*%
D11*
%TO.P,D8,1*%
%TO.N,A15*%
X130492500Y-117475000D03*
D26*
%TO.P,D8,2*%
%TO.N,ROW8*%
X130492500Y-125095000D03*
%TD*%
D11*
%TO.P,D7,1*%
%TO.N,A14*%
X133667500Y-117475000D03*
D26*
%TO.P,D7,2*%
%TO.N,ROW7*%
X133667500Y-125095000D03*
%TD*%
D11*
%TO.P,D6,1*%
%TO.N,A8*%
X158432500Y-104140000D03*
D26*
%TO.P,D6,2*%
%TO.N,ROW6*%
X158432500Y-111760000D03*
%TD*%
D11*
%TO.P,D5,1*%
%TO.N,A13*%
X145732500Y-104140000D03*
D26*
%TO.P,D5,2*%
%TO.N,ROW5*%
X145732500Y-111760000D03*
%TD*%
D11*
%TO.P,D4,1*%
%TO.N,A9*%
X155892500Y-104140000D03*
D26*
%TO.P,D4,2*%
%TO.N,ROW4*%
X155892500Y-111760000D03*
%TD*%
D11*
%TO.P,D3,1*%
%TO.N,A12*%
X148272500Y-104140000D03*
D26*
%TO.P,D3,2*%
%TO.N,ROW3*%
X148272500Y-111760000D03*
%TD*%
D11*
%TO.P,D2,1*%
%TO.N,A10*%
X153352500Y-104140000D03*
D26*
%TO.P,D2,2*%
%TO.N,ROW2*%
X153352500Y-111760000D03*
%TD*%
D11*
%TO.P,D1,1*%
%TO.N,A11*%
X150812500Y-104140000D03*
D26*
%TO.P,D1,2*%
%TO.N,ROW1*%
X150812500Y-111760000D03*
%TD*%
D22*
%TO.P,R104,1*%
%TO.N,Net-(D101-Pad2)*%
X43497500Y-84137500D03*
D23*
%TO.P,R104,2*%
%TO.N,Net-(R104-Pad2)*%
X51117500Y-84137500D03*
%TD*%
D22*
%TO.P,R103,1*%
%TO.N,Net-(D101-Pad2)*%
X43497500Y-81280000D03*
D23*
%TO.P,R103,2*%
%TO.N,Net-(R103-Pad2)*%
X51117500Y-81280000D03*
%TD*%
D22*
%TO.P,R102,1*%
%TO.N,Net-(C104-Pad2)*%
X43497500Y-88265000D03*
D23*
%TO.P,R102,2*%
%TO.N,Net-(C104-Pad1)*%
X51117500Y-88265000D03*
%TD*%
D22*
%TO.P,R101,1*%
%TO.N,+5V*%
X62865000Y-74930000D03*
D23*
%TO.P,R101,2*%
%TO.N,Net-(C103-Pad1)*%
X55245000Y-74930000D03*
%TD*%
D22*
%TO.P,R34,1*%
%TO.N,EAR_IN*%
X40005000Y-88265000D03*
D23*
%TO.P,R34,2*%
%TO.N,GND*%
X32385000Y-88265000D03*
%TD*%
D22*
%TO.P,R33,1*%
%TO.N,Net-(IC1-Pad20)*%
X58102500Y-92710000D03*
D23*
%TO.P,R33,2*%
%TO.N,Net-(C10-Pad1)*%
X58102500Y-100330000D03*
%TD*%
D22*
%TO.P,R30,1*%
%TO.N,Net-(IC1-Pad22)*%
X90805000Y-54610000D03*
D23*
%TO.P,R30,2*%
%TO.N,GND*%
X90805000Y-62230000D03*
%TD*%
D22*
%TO.P,R29,1*%
%TO.N,TAPE_OUT*%
X52705000Y-108585000D03*
D23*
%TO.P,R29,2*%
%TO.N,Net-(C12-Pad1)*%
X45085000Y-108585000D03*
%TD*%
D22*
%TO.P,R28,1*%
%TO.N,Net-(IC1-Pad13)*%
X66040000Y-78422500D03*
D23*
%TO.P,R28,2*%
%TO.N,ROM_CS*%
X66040000Y-86042500D03*
%TD*%
D22*
%TO.P,R27,1*%
%TO.N,Net-(C11-Pad1)*%
X40322500Y-115252500D03*
D23*
%TO.P,R27,2*%
%TO.N,GND*%
X32702500Y-115252500D03*
%TD*%
D22*
%TO.P,R26,1*%
%TO.N,A0*%
X133032500Y-85407500D03*
D23*
%TO.P,R26,2*%
%TO.N,A0'*%
X140652500Y-85407500D03*
%TD*%
D22*
%TO.P,R25,1*%
%TO.N,A3*%
X133032500Y-77787500D03*
D23*
%TO.P,R25,2*%
%TO.N,A3'*%
X140652500Y-77787500D03*
%TD*%
D22*
%TO.P,R24,1*%
%TO.N,A4*%
X133032500Y-75247500D03*
D23*
%TO.P,R24,2*%
%TO.N,A4'*%
X140652500Y-75247500D03*
%TD*%
D22*
%TO.P,R23,1*%
%TO.N,A5*%
X133032500Y-72707500D03*
D23*
%TO.P,R23,2*%
%TO.N,A5'*%
X140652500Y-72707500D03*
%TD*%
D22*
%TO.P,R22,1*%
%TO.N,A8*%
X133032500Y-65087500D03*
D23*
%TO.P,R22,2*%
%TO.N,A8'*%
X140652500Y-65087500D03*
%TD*%
D22*
%TO.P,R21,1*%
%TO.N,A7*%
X133032500Y-67627500D03*
D23*
%TO.P,R21,2*%
%TO.N,A7'*%
X140652500Y-67627500D03*
%TD*%
D22*
%TO.P,R20,1*%
%TO.N,A6*%
X133032500Y-70167500D03*
D23*
%TO.P,R20,2*%
%TO.N,A6'*%
X140652500Y-70167500D03*
%TD*%
D22*
%TO.P,R19,1*%
%TO.N,A2*%
X133032500Y-80327500D03*
D23*
%TO.P,R19,2*%
%TO.N,A2'*%
X140652500Y-80327500D03*
%TD*%
D22*
%TO.P,R18,1*%
%TO.N,A1*%
X133032500Y-82867500D03*
D23*
%TO.P,R18,2*%
%TO.N,A1'*%
X140652500Y-82867500D03*
%TD*%
D22*
%TO.P,R17,1*%
%TO.N,+5V*%
X91122500Y-40640000D03*
D23*
%TO.P,R17,2*%
%TO.N,WAIT*%
X98742500Y-40640000D03*
%TD*%
D22*
%TO.P,R16,1*%
%TO.N,BUSRQ*%
X109537500Y-57150000D03*
D23*
%TO.P,R16,2*%
%TO.N,+5V*%
X109537500Y-49530000D03*
%TD*%
D22*
%TO.P,R15,1*%
%TO.N,+5V*%
X109537500Y-46037500D03*
D23*
%TO.P,R15,2*%
%TO.N,RESET*%
X101917500Y-46037500D03*
%TD*%
D22*
%TO.P,R14,1*%
%TO.N,D0*%
X68897500Y-100965000D03*
D23*
%TO.P,R14,2*%
%TO.N,D0'*%
X68897500Y-108585000D03*
%TD*%
D22*
%TO.P,R13,1*%
%TO.N,D7*%
X86677500Y-100965000D03*
D23*
%TO.P,R13,2*%
%TO.N,D7'*%
X86677500Y-108585000D03*
%TD*%
D22*
%TO.P,R12,1*%
%TO.N,D6'*%
X84137500Y-108585000D03*
D23*
%TO.P,R12,2*%
%TO.N,D6*%
X84137500Y-100965000D03*
%TD*%
D22*
%TO.P,R11,1*%
%TO.N,D5*%
X81597500Y-100965000D03*
D23*
%TO.P,R11,2*%
%TO.N,D5'*%
X81597500Y-108585000D03*
%TD*%
D22*
%TO.P,R10,1*%
%TO.N,D1*%
X71437500Y-100965000D03*
D23*
%TO.P,R10,2*%
%TO.N,D1'*%
X71437500Y-108585000D03*
%TD*%
D22*
%TO.P,R9,1*%
%TO.N,D2*%
X73977500Y-100965000D03*
D23*
%TO.P,R9,2*%
%TO.N,D2'*%
X73977500Y-108585000D03*
%TD*%
D22*
%TO.P,R8,1*%
%TO.N,D3*%
X76517500Y-100965000D03*
D23*
%TO.P,R8,2*%
%TO.N,D3'*%
X76517500Y-108585000D03*
%TD*%
D22*
%TO.P,R7,1*%
%TO.N,D4*%
X79057500Y-100965000D03*
D23*
%TO.P,R7,2*%
%TO.N,D4'*%
X79057500Y-108585000D03*
%TD*%
D22*
%TO.P,R6,1*%
%TO.N,CLK*%
X87947500Y-80327500D03*
D23*
%TO.P,R6,2*%
%TO.N,Net-(C7-Pad1)*%
X87947500Y-72707500D03*
%TD*%
D22*
%TO.P,R5,1*%
%TO.N,+5V*%
X91122500Y-84772500D03*
D23*
%TO.P,R5,2*%
%TO.N,Net-(IC3-Pad6)*%
X91122500Y-77152500D03*
%TD*%
D22*
%TO.P,R4,1*%
%TO.N,GND*%
X87947500Y-64135000D03*
D23*
%TO.P,R4,2*%
%TO.N,Net-(C6-Pad2)*%
X87947500Y-56515000D03*
%TD*%
D22*
%TO.P,R2,1*%
%TO.N,RAM_CS*%
X106680000Y-49212500D03*
D23*
%TO.P,R2,2*%
%TO.N,Net-(IC1-Pad12)*%
X99060000Y-49212500D03*
%TD*%
D22*
%TO.P,R1,1*%
%TO.N,HALT*%
X87947500Y-82550000D03*
D23*
%TO.P,R1,2*%
%TO.N,Net-(C1-Pad1)*%
X87947500Y-90170000D03*
%TD*%
D27*
%TO.P,IC503,1*%
%TO.N,WR*%
X81597500Y-127317500D03*
D28*
%TO.P,IC503,9*%
%TO.N,D7'*%
X99377500Y-119697500D03*
%TO.P,IC503,2*%
%TO.N,Net-(IC501-Pad27)*%
X84137500Y-127317500D03*
%TO.P,IC503,10*%
%TO.N,D6'*%
X96837500Y-119697500D03*
%TO.P,IC503,3*%
%TO.N,A7*%
X86677500Y-127317500D03*
%TO.P,IC503,11*%
%TO.N,D5'*%
X94297500Y-119697500D03*
%TO.P,IC503,4*%
%TO.N,+5V*%
X89217500Y-127317500D03*
%TO.P,IC503,12*%
%TO.N,D4'*%
X91757500Y-119697500D03*
%TO.P,IC503,5*%
%TO.N,Net-(IC501-Pad3)*%
X91757500Y-127317500D03*
%TO.P,IC503,13*%
%TO.N,D3'*%
X89217500Y-119697500D03*
%TO.P,IC503,6*%
%TO.N,GND*%
X94297500Y-127317500D03*
%TO.P,IC503,14*%
%TO.N,D2'*%
X86677500Y-119697500D03*
%TO.P,IC503,7*%
%TO.N,Net-(IC501-Pad22)*%
X96837500Y-127317500D03*
%TO.P,IC503,15*%
%TO.N,D1'*%
X84137500Y-119697500D03*
%TO.P,IC503,8*%
%TO.N,Net-(IC501-Pad23)*%
X99377500Y-127317500D03*
%TO.P,IC503,16*%
%TO.N,D0'*%
X81597500Y-119697500D03*
%TD*%
D24*
%TO.P,IC4,1*%
%TO.N,A14*%
X113982500Y-62547500D03*
D25*
%TO.P,IC4,15*%
%TO.N,D3'*%
X129222500Y-95567500D03*
%TO.P,IC4,2*%
%TO.N,Net-(IC102-Pad6)*%
X113982500Y-65087500D03*
%TO.P,IC4,16*%
%TO.N,D4'*%
X129222500Y-93027500D03*
%TO.P,IC4,3*%
%TO.N,A7*%
X113982500Y-67627500D03*
%TO.P,IC4,17*%
%TO.N,D5'*%
X129222500Y-90487500D03*
%TO.P,IC4,4*%
%TO.N,A6*%
X113982500Y-70167500D03*
%TO.P,IC4,18*%
%TO.N,D6'*%
X129222500Y-87947500D03*
%TO.P,IC4,5*%
%TO.N,A5*%
X113982500Y-72707500D03*
%TO.P,IC4,19*%
%TO.N,D7'*%
X129222500Y-85407500D03*
%TO.P,IC4,6*%
%TO.N,A4*%
X113982500Y-75247500D03*
%TO.P,IC4,20*%
%TO.N,RAM_CS*%
X129222500Y-82867500D03*
%TO.P,IC4,7*%
%TO.N,A3*%
X113982500Y-77787500D03*
%TO.P,IC4,21*%
%TO.N,Net-(IC102-Pad11)*%
X129222500Y-80327500D03*
%TO.P,IC4,8*%
%TO.N,A2*%
X113982500Y-80327500D03*
%TO.P,IC4,22*%
%TO.N,GND*%
X129222500Y-77787500D03*
%TO.P,IC4,9*%
%TO.N,A1*%
X113982500Y-82867500D03*
%TO.P,IC4,23*%
%TO.N,Net-(IC102-Pad8)*%
X129222500Y-75247500D03*
%TO.P,IC4,10*%
%TO.N,A0*%
X113982500Y-85407500D03*
%TO.P,IC4,24*%
%TO.N,A9*%
X129222500Y-72707500D03*
%TO.P,IC4,11*%
%TO.N,D0'*%
X113982500Y-87947500D03*
%TO.P,IC4,25*%
%TO.N,A8*%
X129222500Y-70167500D03*
%TO.P,IC4,12*%
%TO.N,D1'*%
X113982500Y-90487500D03*
%TO.P,IC4,26*%
%TO.N,Net-(IC102-Pad3)*%
X129222500Y-67627500D03*
%TO.P,IC4,13*%
%TO.N,D2'*%
X113982500Y-93027500D03*
%TO.P,IC4,27*%
%TO.N,WR*%
X129222500Y-65087500D03*
%TO.P,IC4,14*%
%TO.N,GND*%
X113982500Y-95567500D03*
%TO.P,IC4,28*%
%TO.N,+5V*%
X129222500Y-62547500D03*
%TD*%
D29*
%TO.P,R106,1*%
%TO.N,Net-(IC102-Pad13)*%
X137795000Y-93027500D03*
%TO.P,R106,2*%
%TO.N,+5V*%
X137795000Y-90827500D03*
%TD*%
D27*
%TO.P,IC501,1*%
%TO.N,GND*%
X73977500Y-131762500D03*
D28*
%TO.P,IC501,21*%
%TO.N,Net-(IC501-Pad21)*%
X122237500Y-116522500D03*
%TO.P,IC501,2*%
%TO.N,Net-(IC501-Pad2)*%
X76517500Y-131762500D03*
%TO.P,IC501,22*%
%TO.N,Net-(IC501-Pad22)*%
X119697500Y-116522500D03*
%TO.P,IC501,3*%
%TO.N,Net-(IC501-Pad3)*%
X79057500Y-131762500D03*
%TO.P,IC501,23*%
%TO.N,Net-(IC501-Pad23)*%
X117157500Y-116522500D03*
%TO.P,IC501,4*%
%TO.N,Net-(IC501-Pad4)*%
X81597500Y-131762500D03*
%TO.P,IC501,24*%
%TO.N,Net-(IC501-Pad24)*%
X114617500Y-116522500D03*
%TO.P,IC501,5*%
%TO.N,Net-(IC501-Pad5)*%
X84137500Y-131762500D03*
%TO.P,IC501,25*%
%TO.N,Net-(IC501-Pad25)*%
X112077500Y-116522500D03*
%TO.P,IC501,6*%
%TO.N,Net-(IC501-Pad6)*%
X86677500Y-131762500D03*
%TO.P,IC501,26*%
%TO.N,Net-(IC501-Pad26)*%
X109537500Y-116522500D03*
%TO.P,IC501,7*%
%TO.N,Net-(IC501-Pad7)*%
X89217500Y-131762500D03*
%TO.P,IC501,27*%
%TO.N,Net-(IC501-Pad27)*%
X106997500Y-116522500D03*
%TO.P,IC501,8*%
%TO.N,Net-(IC501-Pad8)*%
X91757500Y-131762500D03*
%TO.P,IC501,28*%
%TO.N,Net-(IC501-Pad28)*%
X104457500Y-116522500D03*
%TO.P,IC501,9*%
%TO.N,Net-(IC501-Pad9)*%
X94297500Y-131762500D03*
%TO.P,IC501,29*%
%TO.N,Net-(IC501-Pad29)*%
X101917500Y-116522500D03*
%TO.P,IC501,10*%
%TO.N,Net-(IC501-Pad10)*%
X96837500Y-131762500D03*
%TO.P,IC501,30*%
%TO.N,D7'*%
X99377500Y-116522500D03*
%TO.P,IC501,11*%
%TO.N,Net-(IC501-Pad11)*%
X99377500Y-131762500D03*
%TO.P,IC501,31*%
%TO.N,D6'*%
X96837500Y-116522500D03*
%TO.P,IC501,12*%
%TO.N,Net-(IC501-Pad12)*%
X101917500Y-131762500D03*
%TO.P,IC501,32*%
%TO.N,D5'*%
X94297500Y-116522500D03*
%TO.P,IC501,13*%
%TO.N,Net-(IC501-Pad13)*%
X104457500Y-131762500D03*
%TO.P,IC501,33*%
%TO.N,D4'*%
X91757500Y-116522500D03*
%TO.P,IC501,14*%
%TO.N,Net-(IC501-Pad14)*%
X106997500Y-131762500D03*
%TO.P,IC501,34*%
%TO.N,D3'*%
X89217500Y-116522500D03*
%TO.P,IC501,15*%
%TO.N,Net-(IC501-Pad15)*%
X109537500Y-131762500D03*
%TO.P,IC501,35*%
%TO.N,D2'*%
X86677500Y-116522500D03*
%TO.P,IC501,16*%
%TO.N,Net-(IC501-Pad16)*%
X112077500Y-131762500D03*
%TO.P,IC501,36*%
%TO.N,D1'*%
X84137500Y-116522500D03*
%TO.P,IC501,17*%
%TO.N,Net-(IC501-Pad17)*%
X114617500Y-131762500D03*
%TO.P,IC501,37*%
%TO.N,D0'*%
X81597500Y-116522500D03*
%TO.P,IC501,18*%
%TO.N,Net-(IC501-Pad18)*%
X117157500Y-131762500D03*
%TO.P,IC501,38*%
%TO.N,Net-(IC501-Pad38)*%
X79057500Y-116522500D03*
%TO.P,IC501,19*%
%TO.N,Net-(IC501-Pad19)*%
X119697500Y-131762500D03*
%TO.P,IC501,39*%
%TO.N,Net-(IC501-Pad39)*%
X76517500Y-116522500D03*
%TO.P,IC501,20*%
%TO.N,Net-(IC501-Pad20)*%
X122237500Y-131762500D03*
%TO.P,IC501,40*%
%TO.N,+5V*%
X73977500Y-116522500D03*
%TD*%
D24*
%TO.P,IC3,1*%
%TO.N,A11*%
X94932500Y-60007500D03*
D25*
%TO.P,IC3,21*%
%TO.N,RD*%
X110172500Y-108267500D03*
%TO.P,IC3,2*%
%TO.N,A12*%
X94932500Y-62547500D03*
%TO.P,IC3,22*%
%TO.N,WR*%
X110172500Y-105727500D03*
%TO.P,IC3,3*%
%TO.N,A13*%
X94932500Y-65087500D03*
%TO.P,IC3,23*%
%TO.N,BUSAK*%
X110172500Y-103187500D03*
%TO.P,IC3,4*%
%TO.N,A14*%
X94932500Y-67627500D03*
%TO.P,IC3,24*%
%TO.N,WAIT*%
X110172500Y-100647500D03*
%TO.P,IC3,5*%
%TO.N,A15*%
X94932500Y-70167500D03*
%TO.P,IC3,25*%
%TO.N,BUSRQ*%
X110172500Y-98107500D03*
%TO.P,IC3,6*%
%TO.N,Net-(IC3-Pad6)*%
X94932500Y-72707500D03*
%TO.P,IC3,26*%
%TO.N,RESET*%
X110172500Y-95567500D03*
%TO.P,IC3,7*%
%TO.N,D4*%
X94932500Y-75247500D03*
%TO.P,IC3,27*%
%TO.N,MI*%
X110172500Y-93027500D03*
%TO.P,IC3,8*%
%TO.N,D3*%
X94932500Y-77787500D03*
%TO.P,IC3,28*%
%TO.N,RFSH*%
X110172500Y-90487500D03*
%TO.P,IC3,9*%
%TO.N,D5*%
X94932500Y-80327500D03*
%TO.P,IC3,29*%
%TO.N,GND*%
X110172500Y-87947500D03*
%TO.P,IC3,10*%
%TO.N,D6*%
X94932500Y-82867500D03*
%TO.P,IC3,30*%
%TO.N,A0*%
X110172500Y-85407500D03*
%TO.P,IC3,11*%
%TO.N,+5V*%
X94932500Y-85407500D03*
%TO.P,IC3,31*%
%TO.N,A1*%
X110172500Y-82867500D03*
%TO.P,IC3,12*%
%TO.N,D2*%
X94932500Y-87947500D03*
%TO.P,IC3,32*%
%TO.N,A2*%
X110172500Y-80327500D03*
%TO.P,IC3,13*%
%TO.N,D7*%
X94932500Y-90487500D03*
%TO.P,IC3,33*%
%TO.N,A3*%
X110172500Y-77787500D03*
%TO.P,IC3,14*%
%TO.N,D0*%
X94932500Y-93027500D03*
%TO.P,IC3,34*%
%TO.N,A4*%
X110172500Y-75247500D03*
%TO.P,IC3,15*%
%TO.N,D1*%
X94932500Y-95567500D03*
%TO.P,IC3,35*%
%TO.N,A5*%
X110172500Y-72707500D03*
%TO.P,IC3,16*%
%TO.N,INT*%
X94932500Y-98107500D03*
%TO.P,IC3,36*%
%TO.N,A6*%
X110172500Y-70167500D03*
%TO.P,IC3,17*%
%TO.N,NMI*%
X94932500Y-100647500D03*
%TO.P,IC3,37*%
%TO.N,A7*%
X110172500Y-67627500D03*
%TO.P,IC3,18*%
%TO.N,HALT*%
X94932500Y-103187500D03*
%TO.P,IC3,38*%
%TO.N,A8*%
X110172500Y-65087500D03*
%TO.P,IC3,19*%
%TO.N,MREQ*%
X94932500Y-105727500D03*
%TO.P,IC3,39*%
%TO.N,A9*%
X110172500Y-62547500D03*
%TO.P,IC3,20*%
%TO.N,IORQ*%
X94932500Y-108267500D03*
%TO.P,IC3,40*%
%TO.N,A10*%
X110172500Y-60007500D03*
%TD*%
D24*
%TO.P,IC1,1*%
%TO.N,A7'*%
X69215000Y-41910000D03*
D25*
%TO.P,IC1,21*%
%TO.N,D6*%
X84455000Y-90170000D03*
%TO.P,IC1,2*%
%TO.N,A8'*%
X69215000Y-44450000D03*
%TO.P,IC1,22*%
%TO.N,Net-(IC1-Pad22)*%
X84455000Y-87630000D03*
%TO.P,IC1,3*%
%TO.N,A2'*%
X69215000Y-46990000D03*
%TO.P,IC1,23*%
%TO.N,D5*%
X84455000Y-85090000D03*
%TO.P,IC1,4*%
%TO.N,A1'*%
X69215000Y-49530000D03*
%TO.P,IC1,24*%
%TO.N,D4*%
X84455000Y-82550000D03*
%TO.P,IC1,5*%
%TO.N,A0'*%
X69215000Y-52070000D03*
%TO.P,IC1,25*%
%TO.N,KBD4*%
X84455000Y-80010000D03*
%TO.P,IC1,6*%
%TO.N,RD*%
X69215000Y-54610000D03*
%TO.P,IC1,26*%
%TO.N,D3*%
X84455000Y-77470000D03*
%TO.P,IC1,7*%
%TO.N,IORQ*%
X69215000Y-57150000D03*
%TO.P,IC1,27*%
%TO.N,KBD3*%
X84455000Y-74930000D03*
%TO.P,IC1,8*%
%TO.N,WR*%
X69215000Y-59690000D03*
%TO.P,IC1,28*%
%TO.N,D2*%
X84455000Y-72390000D03*
%TO.P,IC1,9*%
%TO.N,MREQ*%
X69215000Y-62230000D03*
%TO.P,IC1,29*%
%TO.N,KBD2*%
X84455000Y-69850000D03*
%TO.P,IC1,10*%
%TO.N,MI*%
X69215000Y-64770000D03*
%TO.P,IC1,30*%
%TO.N,D1*%
X84455000Y-67310000D03*
%TO.P,IC1,11*%
%TO.N,A14*%
X69215000Y-67310000D03*
%TO.P,IC1,31*%
%TO.N,KBD1*%
X84455000Y-64770000D03*
%TO.P,IC1,12*%
%TO.N,Net-(IC1-Pad12)*%
X69215000Y-69850000D03*
%TO.P,IC1,32*%
%TO.N,D0*%
X84455000Y-62230000D03*
%TO.P,IC1,13*%
%TO.N,Net-(IC1-Pad13)*%
X69215000Y-72390000D03*
%TO.P,IC1,33*%
%TO.N,KBD0*%
X84455000Y-59690000D03*
%TO.P,IC1,14*%
%TO.N,CLK*%
X69215000Y-74930000D03*
%TO.P,IC1,34*%
%TO.N,GND*%
X84455000Y-57150000D03*
%TO.P,IC1,15*%
%TO.N,NMI*%
X69215000Y-77470000D03*
%TO.P,IC1,35*%
%TO.N,Net-(C6-Pad2)*%
X84455000Y-54610000D03*
%TO.P,IC1,16*%
%TO.N,TAPE_OUT*%
X69215000Y-80010000D03*
%TO.P,IC1,36*%
%TO.N,A3'*%
X84455000Y-52070000D03*
%TO.P,IC1,17*%
%TO.N,HALT*%
X69215000Y-82550000D03*
%TO.P,IC1,37*%
%TO.N,A4'*%
X84455000Y-49530000D03*
%TO.P,IC1,18*%
%TO.N,A15*%
X69215000Y-85090000D03*
%TO.P,IC1,38*%
%TO.N,A5'*%
X84455000Y-46990000D03*
%TO.P,IC1,19*%
%TO.N,D7*%
X69215000Y-87630000D03*
%TO.P,IC1,39*%
%TO.N,A6'*%
X84455000Y-44450000D03*
%TO.P,IC1,20*%
%TO.N,Net-(IC1-Pad20)*%
X69215000Y-90170000D03*
%TO.P,IC1,40*%
%TO.N,+5V*%
X84455000Y-41910000D03*
%TD*%
D24*
%TO.P,IC2,1*%
%TO.N,Net-(IC2-Pad1)*%
X147320000Y-62547500D03*
D25*
%TO.P,IC2,15*%
%TO.N,D3'*%
X162560000Y-95567500D03*
%TO.P,IC2,2*%
%TO.N,A12*%
X147320000Y-65087500D03*
%TO.P,IC2,16*%
%TO.N,D4'*%
X162560000Y-93027500D03*
%TO.P,IC2,3*%
%TO.N,A7'*%
X147320000Y-67627500D03*
%TO.P,IC2,17*%
%TO.N,D5'*%
X162560000Y-90487500D03*
%TO.P,IC2,4*%
%TO.N,A6'*%
X147320000Y-70167500D03*
%TO.P,IC2,18*%
%TO.N,D6'*%
X162560000Y-87947500D03*
%TO.P,IC2,5*%
%TO.N,A5'*%
X147320000Y-72707500D03*
%TO.P,IC2,19*%
%TO.N,D7'*%
X162560000Y-85407500D03*
%TO.P,IC2,6*%
%TO.N,A4'*%
X147320000Y-75247500D03*
%TO.P,IC2,20*%
%TO.N,ROM20*%
X162560000Y-82867500D03*
%TO.P,IC2,7*%
%TO.N,A3'*%
X147320000Y-77787500D03*
%TO.P,IC2,21*%
%TO.N,A10*%
X162560000Y-80327500D03*
%TO.P,IC2,8*%
%TO.N,A2'*%
X147320000Y-80327500D03*
%TO.P,IC2,22*%
%TO.N,ROM22*%
X162560000Y-77787500D03*
%TO.P,IC2,9*%
%TO.N,A1'*%
X147320000Y-82867500D03*
%TO.P,IC2,23*%
%TO.N,ROM23*%
X162560000Y-75247500D03*
%TO.P,IC2,10*%
%TO.N,A0'*%
X147320000Y-85407500D03*
%TO.P,IC2,24*%
%TO.N,A9*%
X162560000Y-72707500D03*
%TO.P,IC2,11*%
%TO.N,D0'*%
X147320000Y-87947500D03*
%TO.P,IC2,25*%
%TO.N,A8'*%
X162560000Y-70167500D03*
%TO.P,IC2,12*%
%TO.N,D1'*%
X147320000Y-90487500D03*
%TO.P,IC2,26*%
%TO.N,ROM26*%
X162560000Y-67627500D03*
%TO.P,IC2,13*%
%TO.N,D2'*%
X147320000Y-93027500D03*
%TO.P,IC2,27*%
%TO.N,Net-(IC2-Pad27)*%
X162560000Y-65087500D03*
%TO.P,IC2,14*%
%TO.N,GND*%
X147320000Y-95567500D03*
%TO.P,IC2,28*%
%TO.N,+5V*%
X162560000Y-62547500D03*
%TD*%
D27*
%TO.P,IC502,1*%
%TO.N,MREQ*%
X141922500Y-99695000D03*
D28*
%TO.P,IC502,11*%
%TO.N,A15*%
X119062500Y-107315000D03*
%TO.P,IC502,2*%
%TO.N,A0*%
X139382500Y-99695000D03*
%TO.P,IC502,12*%
%TO.N,Net-(IC502-Pad12)*%
X121602500Y-107315000D03*
%TO.P,IC502,3*%
%TO.N,A1*%
X136842500Y-99695000D03*
%TO.P,IC502,13*%
%TO.N,Net-(IC502-Pad13)*%
X124142500Y-107315000D03*
%TO.P,IC502,4*%
%TO.N,A2*%
X134302500Y-99695000D03*
%TO.P,IC502,14*%
%TO.N,Net-(IC502-Pad14)*%
X126682500Y-107315000D03*
%TO.P,IC502,5*%
%TO.N,A3*%
X131762500Y-99695000D03*
%TO.P,IC502,15*%
%TO.N,Net-(IC502-Pad15)*%
X129222500Y-107315000D03*
%TO.P,IC502,6*%
%TO.N,A4*%
X129222500Y-99695000D03*
%TO.P,IC502,16*%
%TO.N,Net-(IC502-Pad16)*%
X131762500Y-107315000D03*
%TO.P,IC502,7*%
%TO.N,A7*%
X126682500Y-99695000D03*
%TO.P,IC502,17*%
%TO.N,Net-(IC502-Pad17)*%
X134302500Y-107315000D03*
%TO.P,IC502,8*%
%TO.N,WR*%
X124142500Y-99695000D03*
%TO.P,IC502,18*%
%TO.N,Net-(IC501-Pad29)*%
X136842500Y-107315000D03*
%TO.P,IC502,9*%
%TO.N,IORQ*%
X121602500Y-99695000D03*
%TO.P,IC502,19*%
%TO.N,Net-(IC501-Pad27)*%
X139382500Y-107315000D03*
%TO.P,IC502,10*%
%TO.N,GND*%
X119062500Y-99695000D03*
%TO.P,IC502,20*%
%TO.N,+5V*%
X141922500Y-107315000D03*
%TD*%
D16*
%TO.P,J501,1*%
%TO.N,Net-(IC502-Pad17)*%
X134302500Y-111125000D03*
D17*
%TO.P,J501,2*%
%TO.N,Net-(IC502-Pad16)*%
X131762500Y-111125000D03*
%TO.P,J501,3*%
%TO.N,Net-(IC502-Pad15)*%
X129222500Y-111125000D03*
%TO.P,J501,4*%
%TO.N,Net-(IC502-Pad14)*%
X126682500Y-111125000D03*
%TO.P,J501,5*%
%TO.N,Net-(IC502-Pad13)*%
X124142500Y-111125000D03*
%TO.P,J501,6*%
%TO.N,Net-(IC502-Pad12)*%
X121602500Y-111125000D03*
%TD*%
D30*
%TO.P,C105,1*%
%TO.N,+5V*%
X124140000Y-84455000D03*
%TO.P,C105,2*%
%TO.N,GND*%
X122240000Y-84455000D03*
%TD*%
D29*
%TO.P,R105,1*%
%TO.N,Net-(IC102-Pad1)*%
X135255000Y-93005000D03*
%TO.P,R105,2*%
%TO.N,+5V*%
X135255000Y-90805000D03*
%TD*%
D31*
%TO.P,IC102,1*%
%TO.N,Net-(IC102-Pad1)*%
X118902500Y-82867500D03*
%TO.P,IC102,2*%
%TO.N,A13*%
X118902500Y-81597500D03*
%TO.P,IC102,3*%
%TO.N,Net-(IC102-Pad3)*%
X118902500Y-80327500D03*
%TO.P,IC102,4*%
%TO.N,Net-(IC102-Pad1)*%
X118902500Y-79057500D03*
%TO.P,IC102,5*%
%TO.N,A12*%
X118902500Y-77787500D03*
%TO.P,IC102,6*%
%TO.N,Net-(IC102-Pad6)*%
X118902500Y-76517500D03*
%TO.P,IC102,7*%
%TO.N,GND*%
X118902500Y-75247500D03*
%TO.P,IC102,8*%
%TO.N,Net-(IC102-Pad8)*%
X124302500Y-75247500D03*
%TO.P,IC102,9*%
%TO.N,A11*%
X124302500Y-76517500D03*
%TO.P,IC102,10*%
%TO.N,Net-(IC102-Pad1)*%
X124302500Y-77787500D03*
%TO.P,IC102,11*%
%TO.N,Net-(IC102-Pad11)*%
X124302500Y-79057500D03*
%TO.P,IC102,12*%
%TO.N,A10*%
X124302500Y-80327500D03*
%TO.P,IC102,13*%
%TO.N,Net-(IC102-Pad13)*%
X124302500Y-81597500D03*
%TO.P,IC102,14*%
%TO.N,+5V*%
X124302500Y-82867500D03*
%TD*%
D12*
%TO.P,C2,1*%
%TO.N,+5V*%
X66040000Y-39410000D03*
%TO.P,C2,2*%
%TO.N,GND*%
X66040000Y-41910000D03*
%TD*%
D32*
%TO.P,EDGE1,B14*%
%TO.N,A12*%
X148272500Y-41592500D03*
%TO.P,EDGE1,B15*%
%TO.N,A11*%
X150812500Y-41592500D03*
%TO.P,EDGE1,B16*%
%TO.N,A10*%
X153352500Y-41592500D03*
%TO.P,EDGE1,B17*%
%TO.N,A9*%
X155892500Y-41592500D03*
%TO.P,EDGE1,B21*%
%TO.N,A5*%
X166052500Y-41592500D03*
%TO.P,EDGE1,B20*%
%TO.N,A6*%
X163512500Y-41592500D03*
%TO.P,EDGE1,B19*%
%TO.N,A7*%
X160972500Y-41592500D03*
%TO.P,EDGE1,B18*%
%TO.N,A8*%
X158432500Y-41592500D03*
%TO.P,EDGE1,B23*%
%TO.N,ROM_CS*%
X171132500Y-41592500D03*
%TO.P,EDGE1,B22*%
%TO.N,A4*%
X168592500Y-41592500D03*
%TO.P,EDGE1,B6*%
%TO.N,CLK*%
X127952500Y-41592500D03*
%TO.P,EDGE1,B7*%
%TO.N,A0*%
X130492500Y-41592500D03*
%TO.P,EDGE1,B8*%
%TO.N,A1*%
X133032500Y-41592500D03*
%TO.P,EDGE1,B9*%
%TO.N,A2*%
X135572500Y-41592500D03*
%TO.P,EDGE1,B13*%
%TO.N,A13*%
X145732500Y-41592500D03*
%TO.P,EDGE1,B12*%
%TO.N,A14*%
X143192500Y-41592500D03*
%TO.P,EDGE1,B11*%
%TO.N,A15*%
X140652500Y-41592500D03*
%TO.P,EDGE1,B10*%
%TO.N,A3*%
X138112500Y-41592500D03*
%TO.P,EDGE1,B5*%
%TO.N,GND*%
X125412500Y-41592500D03*
%TO.P,EDGE1,B4*%
X122872500Y-41592500D03*
%TO.P,EDGE1,B2*%
%TO.N,+9V*%
X117792500Y-41592500D03*
%TO.P,EDGE1,B1*%
%TO.N,+5V*%
X115252500Y-41592500D03*
%TD*%
D25*
%TO.P,IC101,8*%
%TO.N,+5V*%
X62865000Y-78105000D03*
%TO.P,IC101,4*%
X55245000Y-85725000D03*
%TO.P,IC101,7*%
%TO.N,Net-(C103-Pad1)*%
X62865000Y-80645000D03*
%TO.P,IC101,3*%
%TO.N,Net-(C104-Pad1)*%
X55245000Y-83185000D03*
%TO.P,IC101,6*%
%TO.N,Net-(C103-Pad1)*%
X62865000Y-83185000D03*
%TO.P,IC101,2*%
%TO.N,TAPE_OUT*%
X55245000Y-80645000D03*
%TO.P,IC101,5*%
%TO.N,Net-(C102-Pad1)*%
X62865000Y-85725000D03*
D24*
%TO.P,IC101,1*%
%TO.N,GND*%
X55245000Y-78105000D03*
%TD*%
D33*
%TO.P,J1,3*%
%TO.N,Net-(J1-Pad3)*%
X37925000Y-128525000D03*
%TO.P,J1,2*%
%TO.N,GND*%
X34925000Y-123825000D03*
%TO.P,J1,1*%
%TO.N,+9V*%
X40925000Y-123825000D03*
%TD*%
D17*
%TO.P,J301,4*%
%TO.N,GND*%
X33655000Y-67310000D03*
%TO.P,J301,3*%
%TO.N,IO22*%
X36195000Y-67310000D03*
%TO.P,J301,2*%
%TO.N,VP*%
X38735000Y-67310000D03*
D16*
%TO.P,J301,1*%
%TO.N,+5V*%
X41275000Y-67310000D03*
%TD*%
D34*
%TO.P,J401,*%
%TO.N,*%
X170434000Y-113665000D03*
X170434000Y-88265000D03*
D35*
%TO.P,J401,1*%
%TO.N,Net-(J401-Pad1)*%
X167894000Y-106425000D03*
D36*
%TO.P,J401,2*%
%TO.N,Net-(J401-Pad2)*%
X167894000Y-103635000D03*
%TO.P,J401,3*%
%TO.N,Net-(J401-Pad3)*%
X167894000Y-100835000D03*
%TO.P,J401,4*%
%TO.N,Net-(J401-Pad4)*%
X167894000Y-98175000D03*
%TO.P,J401,5*%
%TO.N,Net-(J401-Pad5)*%
X167894000Y-95375000D03*
%TO.P,J401,9*%
%TO.N,Net-(J401-Pad9)*%
X170434000Y-96775000D03*
%TO.P,J401,8*%
%TO.N,Net-(J401-Pad8)*%
X170434000Y-99565000D03*
%TO.P,J401,7*%
%TO.N,Net-(J401-Pad7)*%
X170434000Y-102235000D03*
%TO.P,J401,6*%
%TO.N,Net-(J401-Pad6)*%
X170434000Y-105025000D03*
%TD*%
D37*
%TO.P,J601,1*%
%TO.N,ROW8*%
X140652500Y-122555000D03*
D38*
%TO.P,J601,2*%
%TO.N,+5V*%
X140652500Y-120015000D03*
%TO.P,J601,3*%
%TO.N,ROW7*%
X143192500Y-122555000D03*
%TO.P,J601,4*%
%TO.N,GND*%
X143192500Y-120015000D03*
%TO.P,J601,5*%
%TO.N,ROW5*%
X145732500Y-122555000D03*
%TO.P,J601,6*%
%TO.N,Net-(J601-Pad6)*%
X145732500Y-120015000D03*
%TO.P,J601,7*%
%TO.N,ROW3*%
X148272500Y-122555000D03*
%TO.P,J601,8*%
%TO.N,KBD0*%
X148272500Y-120015000D03*
%TO.P,J601,9*%
%TO.N,ROW1*%
X150812500Y-122555000D03*
%TO.P,J601,10*%
%TO.N,KBD1*%
X150812500Y-120015000D03*
%TO.P,J601,11*%
%TO.N,ROW2*%
X153352500Y-122555000D03*
%TO.P,J601,12*%
%TO.N,KBD2*%
X153352500Y-120015000D03*
%TO.P,J601,13*%
%TO.N,ROW4*%
X155892500Y-122555000D03*
%TO.P,J601,14*%
%TO.N,KBD3*%
X155892500Y-120015000D03*
%TO.P,J601,15*%
%TO.N,ROW6*%
X158432500Y-122555000D03*
%TO.P,J601,16*%
%TO.N,KBD4*%
X158432500Y-120015000D03*
%TD*%
D16*
%TO.P,J702,1*%
%TO.N,GND*%
X66357500Y-94615000D03*
D17*
%TO.P,J702,2*%
%TO.N,D0*%
X68897500Y-94615000D03*
%TO.P,J702,3*%
%TO.N,D1*%
X71437500Y-94615000D03*
%TO.P,J702,4*%
%TO.N,D2*%
X73977500Y-94615000D03*
%TO.P,J702,5*%
%TO.N,D3*%
X76517500Y-94615000D03*
%TO.P,J702,6*%
%TO.N,D4*%
X79057500Y-94615000D03*
%TO.P,J702,7*%
%TO.N,D5*%
X81597500Y-94615000D03*
%TO.P,J702,8*%
%TO.N,D6*%
X84137500Y-94615000D03*
%TO.P,J702,9*%
%TO.N,D7*%
X86677500Y-94615000D03*
%TD*%
%TO.P,J703,9*%
%TO.N,A8'*%
X143827500Y-65087500D03*
%TO.P,J703,8*%
%TO.N,A7'*%
X143827500Y-67627500D03*
%TO.P,J703,7*%
%TO.N,A6'*%
X143827500Y-70167500D03*
%TO.P,J703,6*%
%TO.N,A5'*%
X143827500Y-72707500D03*
%TO.P,J703,5*%
%TO.N,A4'*%
X143827500Y-75247500D03*
%TO.P,J703,4*%
%TO.N,A3'*%
X143827500Y-77787500D03*
%TO.P,J703,3*%
%TO.N,A2'*%
X143827500Y-80327500D03*
%TO.P,J703,2*%
%TO.N,A1'*%
X143827500Y-82867500D03*
D16*
%TO.P,J703,1*%
%TO.N,A0'*%
X143827500Y-85407500D03*
%TD*%
D17*
%TO.P,KB1,5*%
%TO.N,KBD4*%
X138430000Y-131445000D03*
%TO.P,KB1,4*%
%TO.N,KBD3*%
X135890000Y-131445000D03*
%TO.P,KB1,3*%
%TO.N,KBD2*%
X133350000Y-131445000D03*
%TO.P,KB1,2*%
%TO.N,KBD1*%
X130810000Y-131445000D03*
D16*
%TO.P,KB1,1*%
%TO.N,KBD0*%
X128270000Y-131445000D03*
%TD*%
D17*
%TO.P,KB2,8*%
%TO.N,ROW8*%
X167005000Y-128905000D03*
%TO.P,KB2,7*%
%TO.N,ROW7*%
X164465000Y-128905000D03*
%TO.P,KB2,6*%
%TO.N,ROW6*%
X161925000Y-128905000D03*
%TO.P,KB2,5*%
%TO.N,ROW5*%
X159385000Y-128905000D03*
%TO.P,KB2,4*%
%TO.N,ROW4*%
X156845000Y-128905000D03*
%TO.P,KB2,3*%
%TO.N,ROW3*%
X154305000Y-128905000D03*
%TO.P,KB2,2*%
%TO.N,ROW2*%
X151765000Y-128905000D03*
D16*
%TO.P,KB2,1*%
%TO.N,ROW1*%
X149225000Y-128905000D03*
%TD*%
D39*
%TO.P,TR403,2*%
%TO.N,Net-(J401-Pad2)*%
X164070000Y-107315000D03*
%TO.P,TR403,3*%
%TO.N,KBD4*%
X162800000Y-108585000D03*
D40*
%TO.P,TR403,1*%
%TO.N,ROW4*%
X162800000Y-106045000D03*
%TD*%
D14*
%TO.P,REG1,3*%
%TO.N,+5V*%
X44132500Y-133985000D03*
%TO.P,REG1,2*%
%TO.N,GND*%
X44132500Y-131445000D03*
D13*
%TO.P,REG1,1*%
%TO.N,+9V*%
X44132500Y-128905000D03*
%TD*%
D11*
%TO.P,RP1,1*%
%TO.N,+5V*%
X89217500Y-98107500D03*
D26*
%TO.P,RP1,2*%
%TO.N,D7*%
X86677500Y-98107500D03*
%TO.P,RP1,3*%
%TO.N,D6*%
X84137500Y-98107500D03*
%TO.P,RP1,4*%
%TO.N,D5*%
X81597500Y-98107500D03*
%TO.P,RP1,5*%
%TO.N,D4*%
X79057500Y-98107500D03*
%TO.P,RP1,6*%
%TO.N,D3*%
X76517500Y-98107500D03*
%TO.P,RP1,7*%
%TO.N,D2*%
X73977500Y-98107500D03*
%TO.P,RP1,8*%
%TO.N,D1*%
X71437500Y-98107500D03*
%TO.P,RP1,9*%
%TO.N,D0*%
X68897500Y-98107500D03*
%TD*%
D11*
%TO.P,RP3,1*%
%TO.N,+5V*%
X145732500Y-114300000D03*
D26*
%TO.P,RP3,2*%
%TO.N,KBD0*%
X148272500Y-114300000D03*
%TO.P,RP3,3*%
%TO.N,KBD1*%
X150812500Y-114300000D03*
%TO.P,RP3,4*%
%TO.N,KBD2*%
X153352500Y-114300000D03*
%TO.P,RP3,5*%
%TO.N,KBD3*%
X155892500Y-114300000D03*
%TO.P,RP3,6*%
%TO.N,KBD4*%
X158432500Y-114300000D03*
%TD*%
D40*
%TO.P,TR1,1*%
%TO.N,WAIT*%
X91122500Y-103822500D03*
D39*
%TO.P,TR1,3*%
%TO.N,NMI*%
X91122500Y-101282500D03*
%TO.P,TR1,2*%
%TO.N,Net-(C1-Pad1)*%
X89852500Y-102552500D03*
%TD*%
%TO.P,TR2,2*%
%TO.N,Net-(C7-Pad1)*%
X89217500Y-67945000D03*
%TO.P,TR2,3*%
%TO.N,GND*%
X90487500Y-66675000D03*
D40*
%TO.P,TR2,1*%
%TO.N,Net-(IC3-Pad6)*%
X90487500Y-69215000D03*
%TD*%
D39*
%TO.P,TR101,2*%
%TO.N,TAPE_OUT*%
X49212500Y-76200000D03*
%TO.P,TR101,3*%
%TO.N,+5V*%
X50482500Y-77470000D03*
D40*
%TO.P,TR101,1*%
%TO.N,Net-(R104-Pad2)*%
X47942500Y-77470000D03*
%TD*%
%TO.P,TR102,1*%
%TO.N,GND*%
X51752500Y-96837500D03*
D39*
%TO.P,TR102,3*%
%TO.N,Net-(R103-Pad2)*%
X51752500Y-94297500D03*
%TO.P,TR102,2*%
%TO.N,Net-(C104-Pad2)*%
X50482500Y-95567500D03*
%TD*%
D40*
%TO.P,TR401,1*%
%TO.N,ROW4*%
X157400000Y-98860000D03*
D39*
%TO.P,TR401,3*%
%TO.N,KBD2*%
X157400000Y-101400000D03*
%TO.P,TR401,2*%
%TO.N,Net-(J401-Pad4)*%
X158670000Y-100130000D03*
%TD*%
D40*
%TO.P,TR402,1*%
%TO.N,ROW1*%
X162800000Y-100584000D03*
D39*
%TO.P,TR402,3*%
%TO.N,KBD4*%
X162800000Y-103124000D03*
%TO.P,TR402,2*%
%TO.N,Net-(J401-Pad3)*%
X164070000Y-101854000D03*
%TD*%
D40*
%TO.P,TR404,1*%
%TO.N,ROW4*%
X171070000Y-120730000D03*
D39*
%TO.P,TR404,3*%
%TO.N,KBD0*%
X168530000Y-120730000D03*
%TO.P,TR404,2*%
%TO.N,Net-(J401-Pad6)*%
X169800000Y-122000000D03*
%TD*%
%TO.P,TR405,2*%
%TO.N,Net-(J401-Pad1)*%
X164070000Y-113330000D03*
%TO.P,TR405,3*%
%TO.N,KBD3*%
X162800000Y-114600000D03*
D40*
%TO.P,TR405,1*%
%TO.N,ROW4*%
X162800000Y-112060000D03*
%TD*%
%TO.P,VIDEO1,1*%
%TO.N,Net-(D102-Pad1)*%
%TA.AperFunction,ComponentPad*%
G36*
G01*
X38460000Y-75625000D02*
X38460000Y-74375000D01*
G75*
G02*
X39085000Y-73750000I625000J0D01*
G01*
X43035000Y-73750000D01*
G75*
G02*
X43660000Y-74375000I0J-625000D01*
G01*
X43660000Y-75625000D01*
G75*
G02*
X43035000Y-76250000I-625000J0D01*
G01*
X39085000Y-76250000D01*
G75*
G02*
X38460000Y-75625000I0J625000D01*
G01*
G37*
%TD.AperFunction*%
%TO.P,VIDEO1,2*%
%TO.N,GND*%
%TA.AperFunction,ComponentPad*%
G36*
G01*
X34560000Y-77100000D02*
X34560000Y-72900000D01*
G75*
G02*
X35060000Y-72400000I500000J0D01*
G01*
X36060000Y-72400000D01*
G75*
G02*
X36560000Y-72900000I0J-500000D01*
G01*
X36560000Y-77100000D01*
G75*
G02*
X36060000Y-77600000I-500000J0D01*
G01*
X35060000Y-77600000D01*
G75*
G02*
X34560000Y-77100000I0J500000D01*
G01*
G37*
%TD.AperFunction*%
%TD*%
D41*
%TO.N,GND*%
X41275000Y-54610000D03*
X41275000Y-53657500D03*
X40322500Y-53657500D03*
X43497500Y-54610000D03*
X43497500Y-53657500D03*
X44450000Y-53657500D03*
X44450000Y-51117500D03*
X43497500Y-51117500D03*
X43497500Y-50165000D03*
X41275000Y-50165000D03*
X41275000Y-51117500D03*
X40322500Y-51117500D03*
X40322500Y-50165000D03*
X40322500Y-54610000D03*
X44450000Y-54610000D03*
X44450000Y-50165000D03*
%TO.N,HALT*%
X79692500Y-91122500D03*
X91507084Y-67166724D03*
%TO.N,+5V*%
X123714624Y-84979624D03*
X121602500Y-89217500D03*
X87918216Y-123234354D03*
X148454110Y-97422167D03*
X62547500Y-45720000D03*
X159067512Y-96520000D03*
%TO.N,+9V*%
X113347500Y-50165000D03*
%TO.N,RESET*%
X160020000Y-56197500D03*
X117157500Y-56388032D03*
X107315000Y-98425000D03*
X107798004Y-65963422D03*
%TO.N,CLK*%
X92836968Y-56895457D03*
X75349121Y-74930000D03*
%TO.N,A12*%
X154838379Y-64632490D03*
X98425000Y-64770000D03*
%TO.N,A11*%
X164465000Y-78740000D03*
X122555000Y-74612500D03*
X116522500Y-74612500D03*
X157480000Y-74930000D03*
X149052344Y-75055538D03*
X98444966Y-61262641D03*
%TO.N,A10*%
X134161999Y-81139499D03*
X157162500Y-81597500D03*
X107950000Y-65087500D03*
X125968750Y-80962492D03*
X156353898Y-99197104D03*
%TO.N,A9*%
X124777500Y-72072500D03*
X116840000Y-72072500D03*
X157029208Y-72734893D03*
X101111775Y-61961016D03*
%TO.N,A5*%
X158432500Y-72390000D03*
X149225000Y-72707502D03*
%TO.N,A6*%
X157601980Y-69009440D03*
%TO.N,A7*%
X148642521Y-66071582D03*
X105295712Y-108647344D03*
X105929887Y-99489237D03*
X107327710Y-97315435D03*
X107632500Y-68569691D03*
X157429158Y-67663319D03*
X79375000Y-120649998D03*
%TO.N,A8*%
X133350000Y-62966616D03*
X157022747Y-66357500D03*
X154000210Y-102200000D03*
%TO.N,ROM_CS*%
X148907500Y-94932500D03*
X159771736Y-95001736D03*
%TO.N,A4*%
X159227657Y-72787578D03*
X106311646Y-74717931D03*
%TO.N,A0*%
X148879027Y-78487646D03*
X152971587Y-78695884D03*
%TO.N,A1*%
X148923355Y-77184207D03*
X153784409Y-76970039D03*
%TO.N,A2*%
X155033141Y-77806868D03*
%TO.N,A13*%
X154680924Y-69950127D03*
X103949470Y-81625551D03*
X103295112Y-69059521D03*
X134620000Y-103187500D03*
X107315000Y-104457500D03*
X102153483Y-66799367D03*
X101917500Y-104457500D03*
X149055162Y-101105448D03*
%TO.N,A14*%
X82715563Y-59823873D03*
X100439764Y-112928390D03*
X108902500Y-53483833D03*
X96454238Y-63723443D03*
X107449594Y-62896538D03*
%TO.N,A15*%
X98298206Y-107674901D03*
X124006129Y-52400210D03*
X107632500Y-108585006D03*
X97784309Y-62945577D03*
X97243911Y-94526089D03*
%TO.N,A3*%
X155422092Y-75583619D03*
%TO.N,D7'*%
X149517101Y-84162899D03*
X120547421Y-91262139D03*
X122237500Y-51752500D03*
%TO.N,RAM_CS*%
X116522500Y-82219790D03*
X104539395Y-70746883D03*
X107937290Y-69883993D03*
X110284183Y-50650025D03*
X105623155Y-65494142D03*
%TO.N,D0'*%
X118639153Y-90234939D03*
%TO.N,D1'*%
X116522500Y-91976940D03*
%TO.N,D4'*%
X152975928Y-92732574D03*
X118236968Y-93027500D03*
%TO.N,INT*%
X91541610Y-65268881D03*
X99929897Y-72005165D03*
X100665748Y-96220750D03*
%TO.N,NMI*%
X135132202Y-55041696D03*
X71437500Y-80010000D03*
X92075000Y-94615000D03*
X104475293Y-101269790D03*
X107170631Y-64595234D03*
%TO.N,D3'*%
X117093744Y-95667754D03*
X151542519Y-92481245D03*
%TO.N,D5'*%
X152287674Y-89227713D03*
X118845592Y-91099650D03*
%TO.N,D6'*%
X121060784Y-92525095D03*
X151317646Y-87602856D03*
%TO.N,D2'*%
X117589258Y-93980000D03*
%TO.N,MI*%
X101930210Y-94097057D03*
X159481927Y-59270890D03*
X105596229Y-59921525D03*
X103645135Y-63601259D03*
%TO.N,RFSH*%
X103921312Y-59973162D03*
X101930210Y-90955709D03*
X103548952Y-64595983D03*
X160984538Y-59520966D03*
%TO.N,BUSAK*%
X100342710Y-60436120D03*
X100507710Y-67858796D03*
X100824537Y-105239137D03*
X154940000Y-56515000D03*
%TO.N,WAIT*%
X157797500Y-53340000D03*
X105282177Y-100736300D03*
X106353277Y-66034109D03*
X107224219Y-56832500D03*
%TO.N,BUSRQ*%
X103060532Y-59750903D03*
X103850081Y-97484623D03*
X104528538Y-63700970D03*
X157480000Y-57467506D03*
%TO.N,WR*%
X116354160Y-101688911D03*
X115570000Y-105727500D03*
X97491431Y-104338347D03*
X93242256Y-93411246D03*
X107100906Y-66515142D03*
X135232727Y-57149930D03*
X78422500Y-121285000D03*
%TO.N,RD*%
X98653031Y-59967225D03*
X101612710Y-107124543D03*
X80010000Y-57785000D03*
X99695028Y-79057500D03*
X100451661Y-66921522D03*
%TO.N,IORQ*%
X108267512Y-94297500D03*
X107048936Y-69849807D03*
X78740000Y-61595000D03*
X96923863Y-99581282D03*
X92437986Y-63891152D03*
X96857530Y-57318385D03*
%TO.N,MREQ*%
X107833831Y-106375210D03*
X92614430Y-95498860D03*
X144780000Y-99695000D03*
X151080868Y-100342634D03*
%TO.N,A7'*%
X124142500Y-70167500D03*
X116840000Y-70167500D03*
%TO.N,A8'*%
X123507500Y-67945000D03*
X117199989Y-66965112D03*
X73660000Y-43815000D03*
%TO.N,Net-(IC1-Pad22)*%
X79057500Y-84455000D03*
X79057500Y-81915000D03*
%TO.N,D1*%
X97891621Y-95341733D03*
%TO.N,Net-(IC1-Pad12)*%
X73025000Y-69532500D03*
X86042482Y-50800000D03*
%TO.N,D0*%
X98132855Y-92475495D03*
%TO.N,TAPE_OUT*%
X58737500Y-80644990D03*
%TO.N,A4'*%
X97417094Y-67708672D03*
X142677375Y-96331241D03*
X144180485Y-94953947D03*
X101600000Y-112712498D03*
%TO.N,A5'*%
X144780000Y-94297500D03*
X141912080Y-95878841D03*
X102818633Y-112764951D03*
X100012500Y-70802500D03*
%TO.N,D7*%
X86381509Y-90605996D03*
%TO.N,A6'*%
X116522500Y-73647290D03*
X124460000Y-73660000D03*
X89718350Y-46355000D03*
%TO.N,Net-(IC501-Pad29)*%
X131851579Y-114685463D03*
%TO.N,Net-(IC501-Pad27)*%
X131762500Y-115570000D03*
X104457498Y-126669790D03*
%TO.N,Net-(IC102-Pad1)*%
X120015000Y-83820000D03*
X121008323Y-80576702D03*
X122463825Y-90667573D03*
X120015000Y-79057506D03*
%TO.N,GND*%
X157162500Y-93980000D03*
X103505000Y-87947500D03*
X116840000Y-87630000D03*
X120954790Y-77345876D03*
X121297710Y-84546747D03*
X122339051Y-87033057D03*
X160020000Y-62230000D03*
X111785409Y-50457091D03*
X60325000Y-43815000D03*
X123012708Y-79605850D03*
X58420000Y-127317500D03*
X60325000Y-127317500D03*
X62230000Y-127317500D03*
X62230000Y-128587500D03*
X60325000Y-128587500D03*
X58420000Y-128587500D03*
X58420000Y-133985000D03*
X60642500Y-133985000D03*
X62865000Y-133985000D03*
X64770000Y-133985000D03*
X56197500Y-133985000D03*
X56515000Y-128587500D03*
X56515000Y-127317500D03*
%TO.N,Net-(IC102-Pad13)*%
X126365000Y-83820000D03*
X125095000Y-90805000D03*
%TD*%
D42*
%TO.N,HALT*%
X77787500Y-91122500D02*
X69215000Y-82550000D01*
X79692500Y-91122500D02*
X77787500Y-91122500D01*
X87947500Y-82550000D02*
X89052301Y-81445199D01*
X86347923Y-76187923D02*
X86347923Y-68909577D01*
X89052301Y-81445199D02*
X89052301Y-78892301D01*
X89052301Y-78892301D02*
X86347923Y-76187923D01*
X86347923Y-68909577D02*
X89387301Y-65870199D01*
X89387301Y-65870199D02*
X90821422Y-65870199D01*
X90821422Y-65870199D02*
X91507084Y-66555861D01*
X91507084Y-66555861D02*
X91507084Y-67166724D01*
D43*
%TO.N,+5V*%
X140652500Y-120015000D02*
X140652500Y-116205000D01*
X141922500Y-114617500D02*
X141922500Y-107315000D01*
X84455000Y-41910000D02*
X84455000Y-39052500D01*
D44*
X124302500Y-84292500D02*
X124140000Y-84455000D01*
X124302500Y-82867500D02*
X124302500Y-84292500D01*
X137772500Y-90805000D02*
X137795000Y-90827500D01*
X135255000Y-90805000D02*
X137772500Y-90805000D01*
D42*
X130080127Y-96672310D02*
X128364873Y-96672310D01*
X124140000Y-84554248D02*
X123714624Y-84979624D01*
X126149113Y-94456550D02*
X126149113Y-90325762D01*
X135255000Y-90805000D02*
X135255000Y-91497437D01*
X124140000Y-84455000D02*
X124140000Y-84554248D01*
X126149113Y-90325762D02*
X124723350Y-88899999D01*
X128364873Y-96672310D02*
X126149113Y-94456550D01*
X135255000Y-91497437D02*
X130080127Y-96672310D01*
X124723350Y-88899999D02*
X121920001Y-88899999D01*
X121920001Y-88899999D02*
X121602500Y-89217500D01*
X121920001Y-88899999D02*
X121792200Y-88899999D01*
D43*
X66675000Y-39052500D02*
X84455000Y-39052500D01*
X66317500Y-39410000D02*
X66675000Y-39052500D01*
X66040000Y-39410000D02*
X66317500Y-39410000D01*
X105410000Y-120650000D02*
X105410000Y-122516000D01*
X104691646Y-123234354D02*
X87918216Y-123234354D01*
X105410000Y-122516000D02*
X104691646Y-123234354D01*
X114935000Y-46037500D02*
X115252500Y-46355000D01*
X109537500Y-46037500D02*
X114935000Y-46037500D01*
X115252500Y-46355000D02*
X115252500Y-41592500D01*
X115252500Y-47625000D02*
X115252500Y-46355000D01*
X115252500Y-38100000D02*
X115252500Y-41592500D01*
X116919197Y-54508421D02*
X112609926Y-54508421D01*
X109168252Y-51066747D02*
X109168252Y-49581748D01*
X129222500Y-57467500D02*
X119878276Y-57467500D01*
X119878276Y-57467500D02*
X116919197Y-54508421D01*
X112609926Y-54508421D02*
X109168252Y-51066747D01*
X88265000Y-98742500D02*
X89217500Y-97790000D01*
X88265000Y-106030922D02*
X88265000Y-98742500D01*
X88023799Y-106272123D02*
X88265000Y-106030922D01*
X88023799Y-107722877D02*
X88023799Y-106272123D01*
X88088701Y-107787779D02*
X88023799Y-107722877D01*
X88088701Y-110666299D02*
X87312500Y-111442500D01*
X88088701Y-107787779D02*
X88088701Y-110666299D01*
X73977500Y-114617500D02*
X73977500Y-116522500D01*
X77152500Y-111442500D02*
X73977500Y-114617500D01*
X87312500Y-111442500D02*
X77152500Y-111442500D01*
X71755000Y-129857500D02*
X73977500Y-127635000D01*
X71755000Y-136207500D02*
X71755000Y-129857500D01*
X44767500Y-136207500D02*
X71755000Y-136207500D01*
X73977500Y-127635000D02*
X73977500Y-116522500D01*
X44132500Y-135572500D02*
X44767500Y-136207500D01*
X44132500Y-133985000D02*
X44132500Y-135572500D01*
X164147500Y-62547500D02*
X162560000Y-62547500D01*
X164782500Y-66332500D02*
X164782500Y-63182500D01*
X169582500Y-71132500D02*
X164782500Y-66332500D01*
X164782500Y-63182500D02*
X164147500Y-62547500D01*
X109537500Y-49530000D02*
X109537500Y-46037500D01*
X142557500Y-114300000D02*
X141605000Y-115252500D01*
X145732500Y-114300000D02*
X142557500Y-114300000D01*
X141605000Y-115252500D02*
X142240000Y-114617500D01*
X140652500Y-116205000D02*
X141605000Y-115252500D01*
X91122500Y-40640000D02*
X91122500Y-38100000D01*
X91122500Y-38100000D02*
X115252500Y-38100000D01*
X87185098Y-38100000D02*
X86232598Y-39052500D01*
X86232598Y-39052500D02*
X84455000Y-39052500D01*
X91122500Y-38100000D02*
X87185098Y-38100000D01*
X73977500Y-118738500D02*
X78473354Y-123234354D01*
X78473354Y-123234354D02*
X87918216Y-123234354D01*
X73977500Y-116522500D02*
X73977500Y-118738500D01*
X73977500Y-116522500D02*
X60642500Y-103187500D01*
X60960000Y-78105000D02*
X62865000Y-78105000D01*
X60642500Y-78422500D02*
X60960000Y-78105000D01*
X66675000Y-66675000D02*
X66675000Y-65722500D01*
X55245000Y-85725000D02*
X60642500Y-85725000D01*
X60642500Y-85725000D02*
X60642500Y-78422500D01*
X60642500Y-103187500D02*
X60642500Y-85725000D01*
X55245000Y-85725000D02*
X53657500Y-85725000D01*
X52935112Y-85002612D02*
X52935112Y-79922612D01*
X53657500Y-85725000D02*
X52935112Y-85002612D01*
X52935112Y-79922612D02*
X50482500Y-77470000D01*
X62865000Y-78105000D02*
X62865000Y-74930000D01*
X65405000Y-68897500D02*
X66675000Y-67627500D01*
X61277500Y-68897500D02*
X65405000Y-68897500D01*
X66675000Y-67627500D02*
X66675000Y-65722500D01*
X41275000Y-67310000D02*
X41275000Y-67945000D01*
X42227500Y-68897500D02*
X46355000Y-68897500D01*
X41275000Y-67945000D02*
X42227500Y-68897500D01*
X44132500Y-68897500D02*
X46355000Y-68897500D01*
X66675000Y-65722500D02*
X66675000Y-47625000D01*
X64452500Y-47625000D02*
X66675000Y-47625000D01*
X62547500Y-45720000D02*
X64452500Y-47625000D01*
X62547500Y-41910000D02*
X62547500Y-45720000D01*
X65047500Y-39410000D02*
X62547500Y-41910000D01*
X66040000Y-39410000D02*
X65047500Y-39410000D01*
X57785000Y-65405000D02*
X57785000Y-68897500D01*
X57785000Y-68897500D02*
X61277500Y-68897500D01*
X46355000Y-68897500D02*
X57785000Y-68897500D01*
X62865000Y-68897500D02*
X62865000Y-74930000D01*
X61277500Y-68897500D02*
X62865000Y-68897500D01*
X171450000Y-73000000D02*
X169582500Y-71132500D01*
X169227500Y-83185000D02*
X170180000Y-83185000D01*
X165417500Y-86995000D02*
X169227500Y-83185000D01*
X171450000Y-81915000D02*
X171450000Y-73000000D01*
X170180000Y-83185000D02*
X171450000Y-81915000D01*
X165417500Y-90424000D02*
X165417500Y-86995000D01*
D44*
X147869443Y-96837500D02*
X148454110Y-97422167D01*
X144315162Y-96837500D02*
X147869443Y-96837500D01*
X138305162Y-90827500D02*
X144315162Y-96837500D01*
X137795000Y-90827500D02*
X138305162Y-90827500D01*
D43*
X141922500Y-105099000D02*
X144392701Y-102628799D01*
X152400000Y-100583572D02*
X152400000Y-99060000D01*
X141922500Y-107315000D02*
X141922500Y-105099000D01*
X144392701Y-102628799D02*
X150354773Y-102628799D01*
X150354773Y-102628799D02*
X152400000Y-100583572D01*
X165417500Y-95955422D02*
X164217922Y-97155000D01*
X165417500Y-90424000D02*
X165417500Y-95955422D01*
X164217922Y-97155000D02*
X159702512Y-97155000D01*
X159702512Y-97155000D02*
X159067512Y-96520000D01*
%TO.N,+9V*%
X117792500Y-47625000D02*
X117792500Y-41592500D01*
X113347500Y-50967417D02*
X113347500Y-50165000D01*
X114450083Y-52070000D02*
X113347500Y-50967417D01*
X118427500Y-52070000D02*
X114450083Y-52070000D01*
X119428922Y-51068578D02*
X118427500Y-52070000D01*
X119428922Y-49261422D02*
X119428922Y-51068578D01*
X117792500Y-47625000D02*
X119428922Y-49261422D01*
D42*
%TO.N,RESET*%
X166052500Y-50165000D02*
X160020000Y-56197500D01*
X110172500Y-95567500D02*
X107315000Y-98425000D01*
X101917500Y-46037500D02*
X107315000Y-46037500D01*
X108255437Y-46977937D02*
X108255437Y-47612937D01*
X108255437Y-47612937D02*
X108255437Y-47060621D01*
X107315000Y-46037500D02*
X108255437Y-46977937D01*
X108255437Y-50940872D02*
X108255437Y-47612937D01*
X116560557Y-55791089D02*
X112743106Y-55791089D01*
X112743106Y-55791089D02*
X108255437Y-51303420D01*
X108255437Y-51303420D02*
X108255437Y-50940872D01*
X117157500Y-56388032D02*
X116560557Y-55791089D01*
X107580219Y-65963422D02*
X107798004Y-65963422D01*
X106522929Y-64181030D02*
X106522929Y-64906132D01*
X105989062Y-63647163D02*
X106522929Y-64181030D01*
X105989062Y-62087797D02*
X105989062Y-63647163D01*
X107962702Y-60114157D02*
X105989062Y-62087797D01*
X107962702Y-55569102D02*
X107962702Y-60114157D01*
X107492822Y-55099222D02*
X107962702Y-55569102D01*
X107492822Y-52083105D02*
X107492822Y-55099222D01*
X108255437Y-51320490D02*
X107492822Y-52083105D01*
X108255437Y-50940872D02*
X108255437Y-51320490D01*
X106522929Y-64906132D02*
X107580219Y-65963422D01*
D44*
%TO.N,Net-(C6-Pad2)*%
X87630000Y-54610000D02*
X87947500Y-54292500D01*
X84455000Y-54610000D02*
X87630000Y-54610000D01*
X87947500Y-54292500D02*
X87947500Y-56515000D01*
%TO.N,CLK*%
X127952500Y-47625000D02*
X127952500Y-41592500D01*
D42*
X91147235Y-58585190D02*
X92836968Y-56895457D01*
X75349121Y-74930000D02*
X75349121Y-63715879D01*
X75349121Y-63715879D02*
X80479810Y-58585190D01*
X80479810Y-58585190D02*
X91147235Y-58585190D01*
X78993931Y-78574810D02*
X75349121Y-74930000D01*
X86194810Y-78574810D02*
X78993931Y-78574810D01*
X87947500Y-80327500D02*
X86194810Y-78574810D01*
D44*
%TO.N,Net-(C7-Pad1)*%
X87947500Y-69215000D02*
X89217500Y-67945000D01*
X87947500Y-72707500D02*
X87947500Y-69215000D01*
%TO.N,EAR_IN*%
X39385000Y-88885000D02*
X40005000Y-88265000D01*
X39385000Y-94932500D02*
X39385000Y-88885000D01*
X43497500Y-86042500D02*
X46037500Y-83502500D01*
X43453158Y-86042500D02*
X43497500Y-86042500D01*
X41230658Y-88265000D02*
X43453158Y-86042500D01*
X40005000Y-88265000D02*
X41230658Y-88265000D01*
X46037500Y-73342500D02*
X46037500Y-79057500D01*
X46037500Y-79057500D02*
X46037500Y-74612500D01*
X46037500Y-83502500D02*
X46037500Y-79057500D01*
X44847500Y-100330000D02*
X42227500Y-100330000D01*
X42227500Y-100330000D02*
X39385000Y-97487500D01*
X39385000Y-97487500D02*
X39385000Y-94932500D01*
%TO.N,Net-(C10-Pad1)*%
X58102500Y-100330000D02*
X49847500Y-100330000D01*
%TO.N,Net-(C11-Pad1)*%
X40322500Y-115252500D02*
X45085000Y-115252500D01*
X45085000Y-115252500D02*
X45085000Y-111760000D01*
X41275000Y-108902500D02*
X39385000Y-108902500D01*
X44132500Y-111760000D02*
X41275000Y-108902500D01*
X45085000Y-111760000D02*
X44132500Y-111760000D01*
%TO.N,Net-(C12-Pad1)*%
X50085000Y-111760000D02*
X50085000Y-109775000D01*
X48895000Y-108585000D02*
X45085000Y-108585000D01*
X50085000Y-109775000D02*
X48895000Y-108585000D01*
%TO.N,Net-(C102-Pad1)*%
X62865000Y-89217500D02*
X62865000Y-85725000D01*
%TO.N,Net-(C103-Pad1)*%
X62865000Y-83185000D02*
X62865000Y-80645000D01*
%TO.N,Net-(C104-Pad2)*%
X46435000Y-88265000D02*
X49292500Y-91122500D01*
X43497500Y-88265000D02*
X46435000Y-88265000D01*
X49292500Y-94377500D02*
X50482500Y-95567500D01*
X49292500Y-91122500D02*
X49292500Y-94377500D01*
%TO.N,A12*%
X148272500Y-47625000D02*
X148272500Y-41592500D01*
D42*
X115944936Y-77787500D02*
X115281218Y-78451218D01*
X118902500Y-77787500D02*
X115944936Y-77787500D01*
X115944937Y-77787500D02*
X115281218Y-78451218D01*
X98767899Y-68599299D02*
X98767899Y-65112899D01*
X115281218Y-78451218D02*
X114674937Y-79057500D01*
X101612702Y-71444102D02*
X98767899Y-68599299D01*
X101612702Y-71821851D02*
X101612702Y-71444102D01*
X98767899Y-65112899D02*
X98425000Y-64770000D01*
X114674937Y-79057500D02*
X108848351Y-79057500D01*
X108848351Y-79057500D02*
X101612702Y-71821851D01*
X154838379Y-61374076D02*
X154838379Y-64632490D01*
X153857500Y-60393197D02*
X154838379Y-61374076D01*
X153857500Y-59639348D02*
X153857500Y-60393197D01*
X151625243Y-57407091D02*
X153857500Y-59639348D01*
X151625243Y-55362496D02*
X151625243Y-57407091D01*
X147002500Y-50739753D02*
X151625243Y-55362496D01*
X147002500Y-48895000D02*
X147002500Y-50739753D01*
X148272500Y-47625000D02*
X147002500Y-48895000D01*
D44*
%TO.N,A11*%
X150812500Y-47625000D02*
X150812500Y-41592500D01*
D42*
X166072500Y-77132500D02*
X167082500Y-77132500D01*
X164465000Y-78740000D02*
X166072500Y-77132500D01*
X123349300Y-76517500D02*
X124302500Y-76517500D01*
X122555000Y-75723200D02*
X123349300Y-76517500D01*
X122555000Y-74612500D02*
X122555000Y-75723200D01*
X156870577Y-80353502D02*
X156870577Y-79227035D01*
X149052344Y-75017407D02*
X149052344Y-75055538D01*
X156870577Y-79227035D02*
X157480000Y-78617612D01*
X138949801Y-74092699D02*
X148127636Y-74092699D01*
X154343144Y-99923656D02*
X154343144Y-94954607D01*
X154343144Y-94954607D02*
X156502145Y-92795607D01*
X156502145Y-92795607D02*
X156502145Y-80721933D01*
X156502145Y-80721933D02*
X156870577Y-80353502D01*
X157480000Y-78617612D02*
X157480000Y-74930000D01*
X148127636Y-74092699D02*
X149052344Y-75017407D01*
X136690199Y-76352301D02*
X138949801Y-74092699D01*
X123184101Y-76352301D02*
X136690199Y-76352301D01*
X122555000Y-75723200D02*
X123184101Y-76352301D01*
X150812500Y-103454300D02*
X154343144Y-99923656D01*
X150812500Y-104140000D02*
X150812500Y-103454300D01*
X116522500Y-75097433D02*
X115267623Y-76352310D01*
X106772185Y-76352310D02*
X102336613Y-71916738D01*
X102336613Y-71593262D02*
X99244841Y-68501490D01*
X99244841Y-62242132D02*
X98444966Y-61442257D01*
X98444966Y-61442257D02*
X98444966Y-61262641D01*
X102336613Y-71916738D02*
X102336613Y-71593262D01*
X116522500Y-74612500D02*
X116522500Y-75097433D01*
X99244841Y-68501490D02*
X99244841Y-62242132D01*
X115267623Y-76352310D02*
X106772185Y-76352310D01*
X157328004Y-74930000D02*
X157480000Y-74930000D01*
X155975087Y-70065400D02*
X155975087Y-73577084D01*
X150812500Y-47625000D02*
X149542500Y-48895000D01*
X149542500Y-48895000D02*
X149542500Y-52130248D01*
X152438065Y-55025813D02*
X152438065Y-57070411D01*
X155975087Y-73577084D02*
X157328004Y-74930000D01*
X149542500Y-52130248D02*
X152438065Y-55025813D01*
X152438065Y-57070411D02*
X154670322Y-59302668D01*
X154670322Y-59302668D02*
X154670322Y-60056517D01*
X154670322Y-60056517D02*
X155981411Y-61367606D01*
X155981411Y-65290735D02*
X155562223Y-65709922D01*
X155981411Y-61367606D02*
X155981411Y-65290735D01*
X155562223Y-65709922D02*
X155562223Y-68479237D01*
X155735045Y-68652059D02*
X155735045Y-69825358D01*
X155562223Y-68479237D02*
X155735045Y-68652059D01*
X155735045Y-69825358D02*
X155975087Y-70065400D01*
D44*
%TO.N,A10*%
X153352500Y-47625000D02*
X153352500Y-41592500D01*
D42*
X133703998Y-81597500D02*
X126525000Y-81597500D01*
X134161999Y-81139499D02*
X133703998Y-81597500D01*
X124302500Y-80327500D02*
X125255000Y-80327500D01*
X125255000Y-80327500D02*
X125968750Y-81041250D01*
X125968750Y-81041250D02*
X126525000Y-81597500D01*
X125968750Y-81041250D02*
X125968750Y-80962492D01*
X107950000Y-64458606D02*
X107950000Y-65087500D01*
X106801884Y-63310490D02*
X107950000Y-64458606D01*
X106801884Y-62447540D02*
X106801884Y-63310490D01*
X109241924Y-60007500D02*
X106801884Y-62447540D01*
X110172500Y-60007500D02*
X109241924Y-60007500D01*
X157492705Y-81267295D02*
X157162500Y-81597500D01*
X157492705Y-79179659D02*
X157492705Y-81267295D01*
X158127701Y-74619103D02*
X158127701Y-78544663D01*
X156917342Y-73408744D02*
X158127701Y-74619103D01*
X158127701Y-78544663D02*
X157492705Y-79179659D01*
X156381498Y-73408744D02*
X156917342Y-73408744D01*
X156381498Y-69897059D02*
X156381498Y-73408744D01*
X153352500Y-47625000D02*
X152082500Y-48895000D01*
X152082500Y-48895000D02*
X152082500Y-54095497D01*
X152082500Y-54095497D02*
X152844476Y-54857473D01*
X156387822Y-65459074D02*
X155968634Y-65878262D01*
X152844476Y-54857473D02*
X152844476Y-56902071D01*
X152844476Y-56902071D02*
X155076733Y-59134328D01*
X156141456Y-69657018D02*
X156381498Y-69897059D01*
X155076733Y-59134328D02*
X155076733Y-59888177D01*
X155076733Y-59888177D02*
X156387822Y-61199266D01*
X156387822Y-61199266D02*
X156387822Y-65459074D01*
X155968634Y-65878262D02*
X155968634Y-68310897D01*
X155968634Y-68310897D02*
X156141456Y-68483719D01*
X156141456Y-68483719D02*
X156141456Y-69657018D01*
X156353898Y-96814114D02*
X156353898Y-99197104D01*
X159937568Y-93230444D02*
X156353898Y-96814114D01*
X159937568Y-82949932D02*
X159937568Y-93230444D01*
X162560000Y-80327500D02*
X159937568Y-82949932D01*
D44*
%TO.N,A9*%
X155892500Y-47625000D02*
X155892500Y-41592500D01*
D42*
X155409898Y-101051300D02*
X155409898Y-97065664D01*
X160159734Y-75107766D02*
X162560000Y-72707500D01*
X160159734Y-79386357D02*
X160159734Y-75107766D01*
X155409898Y-97065664D02*
X159531159Y-92944403D01*
X155892500Y-101533902D02*
X155409898Y-101051300D01*
X159531159Y-80014932D02*
X160159734Y-79386357D01*
X159531159Y-92944403D02*
X159531159Y-80014932D01*
X155892500Y-101533902D02*
X155892500Y-104140000D01*
X126047500Y-72072500D02*
X124777500Y-72072500D01*
X126682500Y-72707500D02*
X126047500Y-72072500D01*
X129222500Y-72707500D02*
X126682500Y-72707500D01*
X101505782Y-65784645D02*
X100965379Y-65244242D01*
X100965379Y-65244242D02*
X100965379Y-62107412D01*
X101505782Y-68671870D02*
X101505782Y-65784645D01*
X100965379Y-62107412D02*
X101111775Y-61961016D01*
X104228497Y-71394585D02*
X101505782Y-68671870D01*
X116840000Y-72072500D02*
X116162085Y-71394585D01*
X116162085Y-71394585D02*
X104228497Y-71394585D01*
X156547867Y-69488678D02*
X157029208Y-69970019D01*
X154609877Y-48907623D02*
X154609877Y-52838121D01*
X156794233Y-61030926D02*
X156794233Y-65627414D01*
X156794233Y-65627414D02*
X156375045Y-66046602D01*
X156375045Y-68142557D02*
X156547867Y-68315379D01*
X156547867Y-68315379D02*
X156547867Y-69488678D01*
X157029208Y-69970019D02*
X157029208Y-72734893D01*
X156375045Y-66046602D02*
X156375045Y-68142557D01*
X155892500Y-47625000D02*
X154609877Y-48907623D01*
X154609877Y-52838121D02*
X153250887Y-54197111D01*
X153250887Y-54197111D02*
X153250887Y-56676738D01*
X153250887Y-56676738D02*
X155483144Y-58908995D01*
X155483144Y-58908995D02*
X155483144Y-59719837D01*
X155483144Y-59719837D02*
X156794233Y-61030926D01*
D44*
%TO.N,A5*%
X166052500Y-47625000D02*
X166052500Y-41592500D01*
D42*
X139267301Y-69012699D02*
X148127635Y-69012699D01*
X135572500Y-72707500D02*
X139267301Y-69012699D01*
X148882101Y-69767165D02*
X148882101Y-72364603D01*
X133032500Y-72707500D02*
X135572500Y-72707500D01*
X148127635Y-69012699D02*
X148882101Y-69767165D01*
X148882101Y-72364603D02*
X149225000Y-72707502D01*
X158483279Y-72339221D02*
X158432500Y-72390000D01*
X158483279Y-59310938D02*
X158483279Y-72339221D01*
X165355950Y-52438267D02*
X158483279Y-59310938D01*
X167322500Y-48895000D02*
X167322500Y-51117500D01*
X166001733Y-52438267D02*
X165355950Y-52438267D01*
X166052500Y-47625000D02*
X167322500Y-48895000D01*
X167322500Y-51117500D02*
X166001733Y-52438267D01*
D44*
%TO.N,A6*%
X163512500Y-47625000D02*
X163512500Y-41592500D01*
D42*
X133032500Y-69922892D02*
X133032500Y-70167500D01*
X156845000Y-54610000D02*
X156527500Y-54927500D01*
X156813157Y-55213157D02*
X156527500Y-54927500D01*
X158076868Y-60589308D02*
X156813157Y-59325597D01*
X156813157Y-59325597D02*
X156813157Y-55213157D01*
X158076868Y-68534554D02*
X158076868Y-60589308D01*
X157601980Y-69009440D02*
X158076868Y-68534554D01*
X157480000Y-54927500D02*
X156527500Y-54927500D01*
X160655000Y-51752500D02*
X157480000Y-54927500D01*
X161607500Y-51752500D02*
X160655000Y-51752500D01*
X162242500Y-48895000D02*
X162242500Y-51117500D01*
X162242500Y-51117500D02*
X161607500Y-51752500D01*
X163512500Y-47625000D02*
X162242500Y-48895000D01*
D44*
%TO.N,A7*%
X160972500Y-47625000D02*
X160972500Y-41592500D01*
D42*
X148428458Y-66285645D02*
X148642521Y-66071582D01*
X137549355Y-66285645D02*
X148428458Y-66285645D01*
X136207500Y-67627500D02*
X137549355Y-66285645D01*
X133032500Y-67627500D02*
X136207500Y-67627500D01*
X105929887Y-98713258D02*
X107327710Y-97315435D01*
X105929887Y-99489237D02*
X105929887Y-98713258D01*
X110172500Y-67627500D02*
X108574691Y-67627500D01*
X108574691Y-67627500D02*
X107632500Y-68569691D01*
X97348233Y-108496010D02*
X93131743Y-112712500D01*
X105144378Y-108496010D02*
X97348233Y-108496010D01*
X89522357Y-112712500D02*
X89115946Y-113118911D01*
X82461089Y-113118911D02*
X80352899Y-115227101D01*
X80352899Y-115227101D02*
X80352899Y-119672099D01*
X93131743Y-112712500D02*
X89522357Y-112712500D01*
X105295712Y-108647344D02*
X105144378Y-108496010D01*
X89115946Y-113118911D02*
X82461089Y-113118911D01*
X80352899Y-119672099D02*
X79375000Y-120649998D01*
X157670457Y-60757648D02*
X157670457Y-67422020D01*
X156406746Y-59493937D02*
X157670457Y-60757648D01*
X156406746Y-57022050D02*
X156406746Y-59493937D01*
X154622500Y-55237804D02*
X156406746Y-57022050D01*
X157670457Y-67422020D02*
X157429158Y-67663319D01*
X157852449Y-51319801D02*
X154622500Y-54549750D01*
X158986805Y-51319801D02*
X157852449Y-51319801D01*
X159702500Y-50604106D02*
X158986805Y-51319801D01*
X154622500Y-54549750D02*
X154622500Y-55237804D01*
X159702500Y-48895000D02*
X159702500Y-50604106D01*
X160972500Y-47625000D02*
X159702500Y-48895000D01*
D44*
%TO.N,A8*%
X158432500Y-47625000D02*
X158432500Y-41592500D01*
D42*
X133032500Y-63284116D02*
X133350000Y-62966616D01*
X133032500Y-65087500D02*
X133032500Y-63284116D01*
X154942899Y-101257311D02*
X154000210Y-102200000D01*
X156781456Y-66598791D02*
X156781456Y-67974217D01*
X154942899Y-94929602D02*
X154942899Y-101257311D01*
X157905537Y-79341578D02*
X157905537Y-91966964D01*
X156781456Y-67974217D02*
X156954278Y-68147039D01*
X157022747Y-66357500D02*
X156781456Y-66598791D01*
X158534112Y-78713003D02*
X157905537Y-79341578D01*
X158534112Y-73472564D02*
X158534112Y-78713003D01*
X157676910Y-70042970D02*
X157676910Y-72615362D01*
X157905537Y-91966964D02*
X154942899Y-94929602D01*
X156954278Y-69320338D02*
X157676910Y-70042970D01*
X156954278Y-68147039D02*
X156954278Y-69320338D01*
X157676910Y-72615362D02*
X158534112Y-73472564D01*
X157264051Y-66116196D02*
X157022747Y-66357500D01*
X157264051Y-60925993D02*
X157264051Y-66116196D01*
X155889555Y-59551497D02*
X157264051Y-60925993D01*
X155889555Y-58738201D02*
X155889555Y-59551497D01*
X153657298Y-56505944D02*
X155889555Y-58738201D01*
X153657298Y-54365451D02*
X153657298Y-56505944D01*
X157162500Y-50860249D02*
X153657298Y-54365451D01*
X157162500Y-48895000D02*
X157162500Y-50860249D01*
X158432500Y-47625000D02*
X157162500Y-48895000D01*
D44*
%TO.N,ROM_CS*%
X171132500Y-47625000D02*
X171132500Y-41592500D01*
D42*
X127635000Y-94297500D02*
X128587500Y-94297500D01*
X161290000Y-86677500D02*
X160972500Y-86995000D01*
X160343979Y-92275280D02*
X160343979Y-94429493D01*
X163512500Y-86677500D02*
X161290000Y-86677500D01*
X160343979Y-94429493D02*
X159771736Y-95001736D01*
X166687500Y-84137500D02*
X164782500Y-84137500D01*
X164147500Y-84772500D02*
X164147500Y-86042500D01*
X164782500Y-84137500D02*
X164147500Y-84772500D01*
X167082500Y-83742500D02*
X166687500Y-84137500D01*
X167082500Y-81132500D02*
X167082500Y-83742500D01*
X160972500Y-91646759D02*
X160343979Y-92275280D01*
X160972500Y-86995000D02*
X160972500Y-91646759D01*
X164147500Y-86042500D02*
X163512500Y-86677500D01*
X131445000Y-93345000D02*
X131445000Y-92074999D01*
X145706619Y-94386411D02*
X148361411Y-94386411D01*
X148361411Y-94386411D02*
X148907500Y-94932500D01*
X144491382Y-95601648D02*
X145706619Y-94386411D01*
X143869588Y-95601648D02*
X144491382Y-95601648D01*
X143532784Y-95264844D02*
X143869588Y-95601648D01*
X138172750Y-89535000D02*
X143532784Y-94895034D01*
X133984999Y-89535000D02*
X138172750Y-89535000D01*
X143532784Y-94895034D02*
X143532784Y-95264844D01*
X131445000Y-92074999D02*
X133984999Y-89535000D01*
X130492500Y-94297500D02*
X131445000Y-93345000D01*
X128587500Y-94297500D02*
X130492500Y-94297500D01*
X172402500Y-48895000D02*
X171132500Y-47625000D01*
X171793642Y-60642500D02*
X172402500Y-60033642D01*
X172402500Y-60033642D02*
X172402500Y-48895000D01*
X162055031Y-60642500D02*
X171793642Y-60642500D01*
X160972500Y-61725031D02*
X162055031Y-60642500D01*
X160972500Y-65751218D02*
X160972500Y-61725031D01*
X161578782Y-66357500D02*
X160972500Y-65751218D01*
X163658012Y-66357500D02*
X161578782Y-66357500D01*
X167082500Y-69781988D02*
X163658012Y-66357500D01*
X167082500Y-71132500D02*
X167082500Y-69781988D01*
X115570000Y-92557789D02*
X115468388Y-92456177D01*
X102575541Y-95287209D02*
X104530451Y-93332299D01*
X115468388Y-91538799D02*
X118513596Y-88493591D01*
X109480063Y-94297500D02*
X115570000Y-94297500D01*
X70167500Y-93345000D02*
X70167500Y-95310803D01*
X104530451Y-93332299D02*
X108514862Y-93332299D01*
X115468388Y-92456177D02*
X115468388Y-91538799D01*
X115570000Y-94297500D02*
X115570000Y-92557789D01*
X126555524Y-90157422D02*
X126555524Y-92441733D01*
X128411291Y-94297500D02*
X128587500Y-94297500D01*
X99013953Y-96837500D02*
X100564244Y-95287209D01*
X118513596Y-88493591D02*
X124891693Y-88493591D01*
X66040000Y-86042500D02*
X66040000Y-89217500D01*
X108514862Y-93332299D02*
X109480063Y-94297500D01*
X126555524Y-92441733D02*
X128411291Y-94297500D01*
X71694197Y-96837500D02*
X99013953Y-96837500D01*
X100564244Y-95287209D02*
X102575541Y-95287209D01*
X66040000Y-89217500D02*
X70167500Y-93345000D01*
X70167500Y-95310803D02*
X71694197Y-96837500D01*
X124891693Y-88493591D02*
X126555524Y-90157422D01*
X167367500Y-71132500D02*
X167082500Y-71132500D01*
X168275000Y-72040000D02*
X167367500Y-71132500D01*
X168275000Y-80610000D02*
X168275000Y-72040000D01*
X167752500Y-81132500D02*
X168275000Y-80610000D01*
X167082500Y-81132500D02*
X167752500Y-81132500D01*
D44*
%TO.N,A4*%
X168592500Y-47625000D02*
X168592500Y-41592500D01*
D42*
X110172500Y-75247500D02*
X106841215Y-75247500D01*
X106841215Y-75247500D02*
X106311646Y-74717931D01*
X160129628Y-59164371D02*
X160129628Y-60695094D01*
X167728911Y-53251089D02*
X166042910Y-53251089D01*
X166042910Y-53251089D02*
X160129628Y-59164371D01*
X159227657Y-70584992D02*
X159227657Y-72787578D01*
X158889690Y-61935032D02*
X158889690Y-70247025D01*
X168592500Y-47625000D02*
X169862500Y-48895000D01*
X169862500Y-48895000D02*
X169862500Y-51117500D01*
X169862500Y-51117500D02*
X167728911Y-53251089D01*
X158889690Y-70247025D02*
X159227657Y-70584992D01*
X160129628Y-60695094D02*
X158889690Y-61935032D01*
D44*
%TO.N,A0*%
X130492500Y-47625000D02*
X130492500Y-41592500D01*
D42*
X133032500Y-85407500D02*
X139382500Y-79057500D01*
X148309173Y-79057500D02*
X148879027Y-78487646D01*
X139382500Y-79057500D02*
X148309173Y-79057500D01*
X149437194Y-59817055D02*
X150450445Y-60830306D01*
X131762500Y-48895000D02*
X131762500Y-50721802D01*
X151323443Y-64103702D02*
X151323443Y-70984878D01*
X130492500Y-47625000D02*
X131762500Y-48895000D01*
X152730288Y-78454585D02*
X152971587Y-78695884D01*
X152730288Y-75505043D02*
X152730288Y-78454585D01*
X131762500Y-50721802D02*
X133173321Y-52132623D01*
X152317390Y-75092145D02*
X152730288Y-75505043D01*
X133173321Y-52132623D02*
X136055484Y-52132623D01*
X143739916Y-59817055D02*
X149437194Y-59817055D01*
X150450445Y-63230704D02*
X151323443Y-64103702D01*
X136055484Y-52132623D02*
X143739916Y-59817055D01*
X151323443Y-70984878D02*
X152317390Y-71978824D01*
X150450445Y-60830306D02*
X150450445Y-63230704D01*
X152317390Y-71978824D02*
X152317390Y-75092145D01*
X152971587Y-78695884D02*
X152730288Y-78937183D01*
X152730288Y-87826499D02*
X150545767Y-90011020D01*
X150545767Y-90011020D02*
X150545767Y-91797380D01*
X150488398Y-91854749D02*
X150488398Y-94640906D01*
X150488398Y-94640906D02*
X149101811Y-96027493D01*
X149101811Y-98471688D02*
X149061263Y-98512236D01*
X149061263Y-98512236D02*
X148487342Y-98512236D01*
X148487342Y-98512236D02*
X147930305Y-97955199D01*
X149101811Y-96027493D02*
X149101811Y-98471688D01*
X152730288Y-78937183D02*
X152730288Y-87826499D01*
X147930305Y-97955199D02*
X141122301Y-97955199D01*
X141122301Y-97955199D02*
X139382500Y-99695000D01*
X150545767Y-91797380D02*
X150488398Y-91854749D01*
D44*
%TO.N,A1*%
X133032500Y-47625000D02*
X133032500Y-41592500D01*
D42*
X148371847Y-76632699D02*
X148923355Y-77184207D01*
X140172195Y-76632699D02*
X148371847Y-76632699D01*
X133032500Y-82867500D02*
X133937394Y-82867500D01*
X133937394Y-82867500D02*
X140172195Y-76632699D01*
X152136265Y-63767022D02*
X152136265Y-70648198D01*
X153130212Y-71642144D02*
X153130212Y-74755465D01*
X149773880Y-59004233D02*
X151263267Y-60493620D01*
X135018195Y-51319801D02*
X136392164Y-51319801D01*
X153543110Y-76728740D02*
X153784409Y-76970039D01*
X144076596Y-59004233D02*
X149773880Y-59004233D01*
X151263267Y-60493620D02*
X151263267Y-62894024D01*
X153543110Y-75168363D02*
X153543110Y-76728740D01*
X134417699Y-50719305D02*
X135018195Y-51319801D01*
X133032500Y-47625000D02*
X134417699Y-49010199D01*
X136392164Y-51319801D02*
X144076596Y-59004233D01*
X152136265Y-70648198D02*
X153130212Y-71642144D01*
X134417699Y-49010199D02*
X134417699Y-50719305D01*
X151263267Y-62894024D02*
X152136265Y-63767022D01*
X153130212Y-74755465D02*
X153543110Y-75168363D01*
X153593878Y-89353747D02*
X153593878Y-79606944D01*
X150894809Y-95431042D02*
X150894809Y-92052810D01*
X149508222Y-96817629D02*
X150894809Y-95431042D01*
X154025700Y-78216646D02*
X153543110Y-77734056D01*
X154025700Y-79175122D02*
X154025700Y-78216646D01*
X143700243Y-100380767D02*
X147714339Y-100380767D01*
X142747741Y-101333269D02*
X143700243Y-100380767D01*
X138480769Y-101333269D02*
X142747741Y-101333269D01*
X153543110Y-77211338D02*
X153784409Y-76970039D01*
X153543110Y-77734056D02*
X153543110Y-77211338D01*
X153593878Y-79606944D02*
X154025700Y-79175122D01*
X150894809Y-92052810D02*
X153593878Y-89353747D01*
X149508222Y-98640027D02*
X149508222Y-96817629D01*
X148961280Y-99186967D02*
X149508222Y-98640027D01*
X148908139Y-99186967D02*
X148961280Y-99186967D01*
X147714339Y-100380767D02*
X148908139Y-99186967D01*
X136842500Y-99695000D02*
X138480769Y-101333269D01*
D44*
%TO.N,A2*%
X135572500Y-47625000D02*
X135572500Y-41592500D01*
D42*
X150110560Y-58191411D02*
X152076089Y-60156940D01*
X154355932Y-74831683D02*
X154355932Y-76008212D01*
X135572500Y-47625000D02*
X136842500Y-48895000D01*
X154355932Y-76008212D02*
X155033141Y-76685420D01*
X153943034Y-74418785D02*
X154355932Y-74831683D01*
X152076089Y-62557344D02*
X152949087Y-63430342D01*
X136842500Y-48895000D02*
X136842500Y-50620635D01*
X152076089Y-60156940D02*
X152076089Y-62557344D01*
X136842500Y-50620635D02*
X144413276Y-58191411D01*
X155033141Y-76685420D02*
X155033141Y-77806868D01*
X153943034Y-71305464D02*
X153943034Y-74418785D01*
X152949087Y-70311518D02*
X153943034Y-71305464D01*
X152949087Y-63430342D02*
X152949087Y-70311518D01*
X144413276Y-58191411D02*
X150110560Y-58191411D01*
X149914633Y-98808367D02*
X149914633Y-97040434D01*
X149914633Y-97040434D02*
X152187981Y-94767086D01*
X143906170Y-100787178D02*
X147882679Y-100787178D01*
X152187981Y-94767086D02*
X152187981Y-92604519D01*
X154406700Y-79943623D02*
X154838522Y-79511802D01*
X134302500Y-99695000D02*
X136347180Y-101739680D01*
X136347180Y-101739680D02*
X142953668Y-101739680D01*
X154838522Y-79511802D02*
X154838522Y-78001486D01*
X147882679Y-100787178D02*
X149076479Y-99593378D01*
X152187981Y-92604519D02*
X154406700Y-90385800D01*
X149076479Y-99593378D02*
X149129620Y-99593378D01*
X149129620Y-99593378D02*
X149914633Y-98808367D01*
X142953668Y-101739680D02*
X143906170Y-100787178D01*
X154838522Y-78001486D02*
X155033141Y-77806868D01*
X154406700Y-90385800D02*
X154406700Y-79943623D01*
D44*
%TO.N,A13*%
X145732500Y-47625000D02*
X145732500Y-41592500D01*
D42*
X104056020Y-81519001D02*
X103949470Y-81625551D01*
X118902500Y-81597500D02*
X118824001Y-81519001D01*
X118824001Y-81519001D02*
X104056020Y-81519001D01*
X103295112Y-69059521D02*
X102153483Y-67917892D01*
X102153483Y-67917892D02*
X102153483Y-66799367D01*
X107315000Y-104457500D02*
X101917500Y-104457500D01*
X153451089Y-60561537D02*
X154168320Y-61278767D01*
X153451089Y-59807688D02*
X153451089Y-60561537D01*
X151218832Y-57575431D02*
X153451089Y-59807688D01*
X151218832Y-55530836D02*
X151218832Y-57575431D01*
X145373377Y-51771680D02*
X147459678Y-51771680D01*
X147459678Y-51771680D02*
X151218832Y-55530836D01*
X144462500Y-50860803D02*
X145373377Y-51771680D01*
X154168320Y-61278767D02*
X154168320Y-69437523D01*
X144462500Y-49212500D02*
X144462500Y-50860803D01*
X145732500Y-47942500D02*
X144462500Y-49212500D01*
X154168320Y-69437523D02*
X154680924Y-69950127D01*
X145732500Y-47625000D02*
X145732500Y-47942500D01*
X150727455Y-97420794D02*
X150727455Y-99433155D01*
X154680924Y-69950127D02*
X155162265Y-70431468D01*
X144217466Y-101625384D02*
X148535226Y-101625384D01*
X142655350Y-103187500D02*
X144217466Y-101625384D01*
X155689323Y-92458926D02*
X150727455Y-97420794D01*
X156057755Y-78890355D02*
X156057753Y-80016824D01*
X150727455Y-99433155D02*
X149055162Y-101105448D01*
X156493665Y-78454446D02*
X156057755Y-78890355D01*
X155689323Y-80385253D02*
X155689323Y-92458926D01*
X156493665Y-75696592D02*
X156493665Y-78454446D01*
X156057753Y-80016824D02*
X155689323Y-80385253D01*
X155575165Y-74778092D02*
X156493665Y-75696592D01*
X155575165Y-74326663D02*
X155575165Y-74778092D01*
X155162265Y-73913764D02*
X155575165Y-74326663D01*
X134620000Y-103187500D02*
X142655350Y-103187500D01*
X155162265Y-70431468D02*
X155162265Y-73913764D01*
X148535226Y-101625384D02*
X149055162Y-101105448D01*
D44*
%TO.N,A14*%
X143192500Y-47625000D02*
X143192500Y-41592500D01*
D42*
X113982500Y-62547500D02*
X113982500Y-60007500D01*
X113982500Y-60007500D02*
X113982500Y-57467500D01*
X133667500Y-115570000D02*
X133667500Y-117475000D01*
X131997579Y-113900079D02*
X133667500Y-115570000D01*
X101411453Y-113900079D02*
X131997579Y-113900079D01*
X100439764Y-112928390D02*
X101411453Y-113900079D01*
X113982500Y-57467500D02*
X112401234Y-57467500D01*
X108902500Y-53968766D02*
X108902500Y-53483833D01*
X112401234Y-57467500D02*
X108902500Y-53968766D01*
X96437310Y-66122690D02*
X96437310Y-63740371D01*
X96437310Y-63740371D02*
X96454238Y-63723443D01*
X96437310Y-66757690D02*
X96437310Y-66122690D01*
X95567500Y-67627500D02*
X96437310Y-66757690D01*
X94932500Y-67627500D02*
X95567500Y-67627500D01*
X82715563Y-60308806D02*
X82715563Y-59823873D01*
X83201567Y-60794810D02*
X82715563Y-60308806D01*
X91217373Y-60794810D02*
X83201567Y-60794810D01*
X94240063Y-63817500D02*
X91217373Y-60794810D01*
X96326325Y-63817500D02*
X94240063Y-63817500D01*
X96437310Y-63706515D02*
X96326325Y-63817500D01*
X96437310Y-66122690D02*
X96437310Y-63706515D01*
X109068632Y-61277500D02*
X107449594Y-62896538D01*
X111442500Y-61277500D02*
X109068632Y-61277500D01*
X112712500Y-62547500D02*
X111442500Y-61277500D01*
X113982500Y-62547500D02*
X112712500Y-62547500D01*
D44*
%TO.N,A15*%
X140652500Y-47625000D02*
X140652500Y-41592500D01*
D42*
X131762500Y-118745000D02*
X130492500Y-117475000D01*
X134937500Y-118745000D02*
X131762500Y-118745000D01*
X134937500Y-115947748D02*
X134937500Y-118745000D01*
X132483420Y-113493668D02*
X134937500Y-115947748D01*
X121748668Y-113493668D02*
X132483420Y-113493668D01*
X119062500Y-110807500D02*
X121748668Y-113493668D01*
X119062500Y-107315000D02*
X119062500Y-110807500D01*
X106680000Y-107950000D02*
X107315006Y-108585006D01*
X107315006Y-108585006D02*
X107632500Y-108585006D01*
X98298206Y-107674901D02*
X98573305Y-107950000D01*
X98573305Y-107950000D02*
X106680000Y-107950000D01*
X97015322Y-94297500D02*
X97243911Y-94526089D01*
X93980000Y-94297500D02*
X97015322Y-94297500D01*
X93296136Y-95775754D02*
X93296136Y-94981364D01*
X92925328Y-96146562D02*
X93296136Y-95775754D01*
X93296136Y-94981364D02*
X93980000Y-94297500D01*
X92073211Y-96146562D02*
X92925328Y-96146562D01*
X85266556Y-93460199D02*
X89386848Y-93460199D01*
X89386848Y-93460199D02*
X92073211Y-96146562D01*
X84860145Y-93053788D02*
X85266556Y-93460199D01*
X77178788Y-93053788D02*
X84860145Y-93053788D01*
X69215000Y-85090000D02*
X77178788Y-93053788D01*
X97784309Y-63302591D02*
X97784309Y-62945577D01*
X96964477Y-64122423D02*
X97784309Y-63302591D01*
X96769392Y-68965608D02*
X96769392Y-67372008D01*
X96964477Y-67176923D02*
X96964477Y-64122423D01*
X96769392Y-67372008D02*
X96964477Y-67176923D01*
X95567500Y-70167500D02*
X96769392Y-68965608D01*
X94932500Y-70167500D02*
X95567500Y-70167500D01*
X127803419Y-56197500D02*
X124006129Y-52400210D01*
X130175000Y-56197500D02*
X127803419Y-56197500D01*
X130810000Y-56832500D02*
X130175000Y-56197500D01*
X130810000Y-58420000D02*
X130810000Y-56832500D01*
X129222500Y-60007500D02*
X130810000Y-58420000D01*
D44*
%TO.N,A3*%
X138112500Y-47625000D02*
X138112500Y-41592500D01*
D42*
X153044678Y-60729876D02*
X153761909Y-61447108D01*
X138112500Y-47625000D02*
X139497699Y-49010199D01*
X154755856Y-70968784D02*
X154755856Y-74082105D01*
X155168754Y-74495003D02*
X155168754Y-75330281D01*
X154755856Y-74082105D02*
X155168754Y-74495003D01*
X153761909Y-69974838D02*
X154755856Y-70968784D01*
X139497699Y-49010199D02*
X139497699Y-52126333D01*
X155168754Y-75330281D02*
X155422092Y-75583619D01*
X153761909Y-61447108D02*
X153761909Y-69974838D01*
X139497699Y-52126333D02*
X144749955Y-57378589D01*
X150447241Y-57378589D02*
X153044678Y-59976026D01*
X144749955Y-57378589D02*
X150447241Y-57378589D01*
X153044678Y-59976026D02*
X153044678Y-60729876D01*
X156087254Y-76248781D02*
X155422092Y-75583619D01*
X134213591Y-102146091D02*
X143122009Y-102146091D01*
X143122009Y-102146091D02*
X144074510Y-101193589D01*
X149297960Y-99999789D02*
X150321044Y-98976707D01*
X150321044Y-97252454D02*
X155282912Y-92290586D01*
X155282913Y-80216912D02*
X155651344Y-79848482D01*
X155651345Y-78722014D02*
X156087254Y-78286106D01*
X156087254Y-78286106D02*
X156087254Y-76248781D01*
X150321044Y-98976707D02*
X150321044Y-97252454D01*
X131762500Y-99695000D02*
X134213591Y-102146091D01*
X148051019Y-101193589D02*
X149244819Y-99999789D01*
X155282912Y-92290586D02*
X155282913Y-80216912D01*
X155651344Y-79848482D02*
X155651345Y-78722014D01*
X144074510Y-101193589D02*
X148051019Y-101193589D01*
X149244819Y-99999789D02*
X149297960Y-99999789D01*
D44*
%TO.N,D7'*%
X99377500Y-116522500D02*
X99377500Y-119697500D01*
D42*
X102698251Y-111747298D02*
X103175124Y-112224171D01*
X122783589Y-100479160D02*
X122783589Y-93013374D01*
X122783589Y-93013374D02*
X121032354Y-91262139D01*
X99377500Y-113032056D02*
X100662258Y-111747298D01*
X99377500Y-116522500D02*
X99377500Y-113032056D01*
X112030615Y-112395079D02*
X116662178Y-107763516D01*
X120570571Y-102692178D02*
X122783589Y-100479160D01*
X100662258Y-111747298D02*
X102698251Y-111747298D01*
X105972312Y-112224171D02*
X106143220Y-112395079D01*
X121032354Y-91262139D02*
X120547421Y-91262139D01*
X116662178Y-106025820D02*
X119995820Y-102692178D01*
X106143220Y-112395079D02*
X112030615Y-112395079D01*
X103175124Y-112224171D02*
X105972312Y-112224171D01*
X119995820Y-102692178D02*
X120570571Y-102692178D01*
X116662178Y-107763516D02*
X116662178Y-106025820D01*
X148120915Y-63925978D02*
X144975084Y-63925978D01*
X124469906Y-51752500D02*
X122237500Y-51752500D01*
X149291388Y-65096451D02*
X148120915Y-63925978D01*
X150285335Y-75933845D02*
X150285335Y-72820525D01*
X126958225Y-54240819D02*
X124469906Y-51752500D01*
X144975084Y-63925978D02*
X135289925Y-54240819D01*
X149517101Y-84162899D02*
X150698233Y-82981767D01*
X150285335Y-72820525D02*
X149291388Y-71826578D01*
X150698233Y-76346743D02*
X150285335Y-75933845D01*
X150698233Y-82981767D02*
X150698233Y-76346743D01*
X149291388Y-71826578D02*
X149291388Y-65096451D01*
X135289925Y-54240819D02*
X126958225Y-54240819D01*
%TO.N,RAM_CS*%
X107937290Y-69883993D02*
X107074400Y-70746883D01*
X107074400Y-70746883D02*
X104539395Y-70746883D01*
X120150709Y-85194458D02*
X118428552Y-83472301D01*
X126352298Y-85737702D02*
X123514102Y-85737702D01*
X118428552Y-83472301D02*
X117908659Y-83472301D01*
X117908659Y-83472301D02*
X116656148Y-82219790D01*
X129222500Y-82867500D02*
X126352298Y-85737702D01*
X123514102Y-85737702D02*
X122970858Y-85194458D01*
X116656148Y-82219790D02*
X116522500Y-82219790D01*
X122970858Y-85194458D02*
X120150709Y-85194458D01*
X111993270Y-48940938D02*
X110284183Y-50650025D01*
X116568438Y-48940938D02*
X111993270Y-48940938D01*
X117792500Y-50165000D02*
X116568438Y-48940938D01*
X106243931Y-49648569D02*
X106243931Y-60678465D01*
X105176240Y-65047227D02*
X105623155Y-65494142D01*
X105176240Y-61746156D02*
X105176240Y-65047227D01*
X106243931Y-60678465D02*
X105176240Y-61746156D01*
X106680000Y-49212500D02*
X106243931Y-49648569D01*
D44*
%TO.N,D0'*%
X81597500Y-116522500D02*
X81597500Y-119697500D01*
D42*
X115874799Y-92287837D02*
X115874799Y-91707139D01*
X112001212Y-99511225D02*
X115487310Y-96025127D01*
X116192299Y-94461099D02*
X116192299Y-92605337D01*
X107150692Y-109379294D02*
X107321600Y-109550202D01*
X112001212Y-108401225D02*
X112001212Y-99511225D01*
X89690697Y-113118911D02*
X93300083Y-113118911D01*
X104353504Y-109379294D02*
X107150692Y-109379294D01*
X103876631Y-108902421D02*
X104353504Y-109379294D01*
X117346999Y-90234939D02*
X118639153Y-90234939D01*
X97516573Y-108902421D02*
X103876631Y-108902421D01*
X116192299Y-92605337D02*
X115874799Y-92287837D01*
X93300083Y-113118911D02*
X97516573Y-108902421D01*
X115874799Y-91707139D02*
X117346999Y-90234939D01*
X115487310Y-96025127D02*
X115487310Y-95166088D01*
X84594678Y-113525322D02*
X89284286Y-113525322D01*
X110852235Y-109550202D02*
X112001212Y-108401225D01*
X89284286Y-113525322D02*
X89690697Y-113118911D01*
X115487310Y-95166088D02*
X116192299Y-94461099D01*
X81597500Y-116522500D02*
X84594678Y-113525322D01*
X107321600Y-109550202D02*
X110852235Y-109550202D01*
X148763841Y-61442699D02*
X143066556Y-61442699D01*
X148907500Y-87947500D02*
X151104644Y-85750356D01*
X127126564Y-53834408D02*
X123457156Y-50165000D01*
X143066556Y-61442699D02*
X135458265Y-53834408D01*
X147320000Y-87947500D02*
X148907500Y-87947500D01*
X148824801Y-61503660D02*
X148763841Y-61442699D01*
X148824801Y-63904064D02*
X148824801Y-61503660D01*
X150691746Y-75765505D02*
X150691746Y-72652184D01*
X149697799Y-64777062D02*
X148824801Y-63904064D01*
X123457156Y-50165000D02*
X122872500Y-50165000D01*
X149697799Y-71658238D02*
X149697799Y-64777062D01*
X150691746Y-72652184D02*
X149697799Y-71658238D01*
X151104644Y-76178403D02*
X150691746Y-75765505D01*
X151104644Y-85750356D02*
X151104644Y-76178403D01*
X135458265Y-53834408D02*
X127126564Y-53834408D01*
D44*
%TO.N,D1'*%
X84137500Y-116522500D02*
X84137500Y-119697500D01*
D42*
X149231212Y-63735724D02*
X149231212Y-61335319D01*
X149231212Y-61335319D02*
X148932181Y-61036288D01*
X135550464Y-53351856D02*
X128599356Y-53351856D01*
X147320000Y-90487500D02*
X147320000Y-90109751D01*
X148932181Y-61036288D02*
X143234896Y-61036288D01*
X151511055Y-76010063D02*
X151098157Y-75597166D01*
X151098157Y-75597166D02*
X151098157Y-72483844D01*
X150104210Y-64608722D02*
X149231212Y-63735724D01*
X150104210Y-71489897D02*
X150104210Y-64608722D01*
X151098157Y-72483844D02*
X150104210Y-71489897D01*
X151511055Y-85918696D02*
X151511055Y-76010063D01*
X147320000Y-90109751D02*
X151511055Y-85918696D01*
X143234896Y-61036288D02*
X135550464Y-53351856D01*
X128599356Y-53351856D02*
X125412500Y-50165000D01*
X93468423Y-113525322D02*
X97684913Y-109308832D01*
X112407623Y-99679565D02*
X115893721Y-96193467D01*
X89859037Y-113525322D02*
X93468423Y-113525322D01*
X84137500Y-116522500D02*
X86728267Y-113931733D01*
X116865399Y-92319839D02*
X116522500Y-91976940D01*
X116865399Y-94362750D02*
X116865399Y-92319839D01*
X107153260Y-109956613D02*
X111020575Y-109956613D01*
X104185164Y-109785705D02*
X106982352Y-109785705D01*
X97684913Y-109308832D02*
X103708291Y-109308832D01*
X103708291Y-109308832D02*
X104185164Y-109785705D01*
X89452626Y-113931733D02*
X89859037Y-113525322D01*
X112407623Y-108569565D02*
X112407623Y-99679565D01*
X111020575Y-109956613D02*
X112407623Y-108569565D01*
X106982352Y-109785705D02*
X107153260Y-109956613D01*
X86728267Y-113931733D02*
X89452626Y-113931733D01*
X115893721Y-96193467D02*
X115893721Y-95334428D01*
X115893721Y-95334428D02*
X116865399Y-94362750D01*
D44*
%TO.N,D4'*%
X91757500Y-116522500D02*
X91757500Y-119697500D01*
D42*
X154762343Y-75839871D02*
X155680843Y-76758372D01*
X144581616Y-57785000D02*
X150278900Y-57785000D01*
X155244933Y-79680142D02*
X154876501Y-80048573D01*
X152482500Y-59988600D02*
X152482500Y-60742449D01*
X155680843Y-76758372D02*
X155680843Y-78117766D01*
X154876501Y-90832001D02*
X152975928Y-92732574D01*
X153355498Y-61615448D02*
X153355498Y-70143177D01*
X153355498Y-70143177D02*
X154349445Y-71137124D01*
X154349445Y-74250446D02*
X154762343Y-74663343D01*
X155680843Y-78117766D02*
X155244933Y-78553676D01*
X152482500Y-60742449D02*
X153355498Y-61615448D01*
X138112500Y-51315884D02*
X144581616Y-57785000D01*
X154762343Y-74663343D02*
X154762343Y-75839871D01*
X138112500Y-50165000D02*
X138112500Y-51315884D01*
X155244933Y-78553676D02*
X155244933Y-79680142D01*
X150278900Y-57785000D02*
X152482500Y-59988600D01*
X154876501Y-80048573D02*
X154876501Y-90832001D01*
X154349445Y-71137124D02*
X154349445Y-74250446D01*
X103203271Y-110528065D02*
X103680144Y-111004938D01*
X106477332Y-111004938D02*
X106648240Y-111175846D01*
X113626856Y-109074585D02*
X113626856Y-100428393D01*
X92195498Y-116522500D02*
X98189933Y-110528065D01*
X103680144Y-111004938D02*
X106477332Y-111004938D01*
X111525595Y-111175846D02*
X113626856Y-109074585D01*
X106648240Y-111175846D02*
X111525595Y-111175846D01*
X118236968Y-95818282D02*
X118236968Y-93027500D01*
X98189933Y-110528065D02*
X103203271Y-110528065D01*
X113626856Y-100428393D02*
X118236968Y-95818282D01*
X91757500Y-116522500D02*
X92195498Y-116522500D01*
%TO.N,INT*%
X142832699Y-52345199D02*
X140652500Y-50165000D01*
X146325199Y-52345199D02*
X142832699Y-52345199D01*
X148907500Y-54927500D02*
X146325199Y-52345199D01*
X94932500Y-98107500D02*
X98778998Y-98107500D01*
X98778998Y-98107500D02*
X100665748Y-96220750D01*
X93662500Y-71437500D02*
X99362232Y-71437500D01*
X93027500Y-70802500D02*
X93662500Y-71437500D01*
X93027500Y-66754771D02*
X93027500Y-70802500D01*
X99362232Y-71437500D02*
X99929897Y-72005165D01*
X91541610Y-65268881D02*
X93027500Y-66754771D01*
%TO.N,NMI*%
X94932489Y-100647489D02*
X94932500Y-100647500D01*
X91757500Y-100647500D02*
X91122500Y-101282500D01*
X94932500Y-100647500D02*
X91757500Y-100647500D01*
X86138892Y-92087632D02*
X86445294Y-92394034D01*
X82502382Y-92087632D02*
X86138892Y-92087632D01*
X89854034Y-92394034D02*
X92075000Y-94615000D01*
X86445294Y-92394034D02*
X89854034Y-92394034D01*
X71437500Y-81022750D02*
X82502382Y-92087632D01*
X71437500Y-80010000D02*
X71437500Y-81022750D01*
X94932500Y-100647500D02*
X103853003Y-100647500D01*
X103853003Y-100647500D02*
X104475293Y-101269790D01*
X107170631Y-64253981D02*
X107170631Y-64595234D01*
X106395473Y-63478823D02*
X107170631Y-64253981D01*
X106395473Y-62260650D02*
X106395473Y-63478823D01*
X108369113Y-60287010D02*
X106395473Y-62260650D01*
X108369113Y-55400762D02*
X108369113Y-60287010D01*
X107899233Y-54930882D02*
X108369113Y-55400762D01*
X107899233Y-52836131D02*
X107899233Y-54930882D01*
X109213398Y-52836131D02*
X107899233Y-52836131D01*
X112574767Y-56197500D02*
X109213398Y-52836131D01*
X115261142Y-56197500D02*
X112574767Y-56197500D01*
X120175952Y-61112310D02*
X115261142Y-56197500D01*
X130080127Y-61112310D02*
X120175952Y-61112310D01*
X135132202Y-56060235D02*
X130080127Y-61112310D01*
X135132202Y-55041696D02*
X135132202Y-56060235D01*
D44*
%TO.N,D3'*%
X89217500Y-116522500D02*
X89217500Y-119697500D01*
D42*
X149942220Y-58597822D02*
X151669678Y-60325280D01*
X144244936Y-58597822D02*
X149942220Y-58597822D01*
X135572500Y-50165000D02*
X135812114Y-50165000D01*
X135812114Y-50165000D02*
X144244936Y-58597822D01*
X152542676Y-63598682D02*
X152542676Y-70479857D01*
X153536623Y-71473804D02*
X153536623Y-74587126D01*
X153536623Y-74587126D02*
X153949521Y-75000023D01*
X154000289Y-90023475D02*
X151542519Y-92481245D01*
X154095307Y-77617741D02*
X154095307Y-77711502D01*
X154432111Y-77280937D02*
X154095307Y-77617741D01*
X154432111Y-76659142D02*
X154432111Y-77280937D01*
X154432111Y-78048306D02*
X154432111Y-79343462D01*
X153949521Y-75000023D02*
X153949521Y-76176552D01*
X154000289Y-79775283D02*
X154000289Y-90023475D01*
X154432111Y-79343462D02*
X154000289Y-79775283D01*
X154095307Y-77711502D02*
X154432111Y-78048306D01*
X153949521Y-76176552D02*
X154432111Y-76659142D01*
X152542676Y-70479857D02*
X153536623Y-71473804D01*
X151669678Y-62725684D02*
X152542676Y-63598682D01*
X151669678Y-60325280D02*
X151669678Y-62725684D01*
X93805103Y-114338144D02*
X98021593Y-110121654D01*
X117093744Y-96152687D02*
X117093744Y-95667754D01*
X91401856Y-114338144D02*
X93805103Y-114338144D01*
X113220445Y-108906245D02*
X113220445Y-100025986D01*
X89217500Y-116522500D02*
X91401856Y-114338144D01*
X103371611Y-110121654D02*
X103848484Y-110598527D01*
X98021593Y-110121654D02*
X103371611Y-110121654D01*
X106645672Y-110598527D02*
X106816580Y-110769435D01*
X113220445Y-100025986D02*
X117093744Y-96152687D01*
X103848484Y-110598527D02*
X106645672Y-110598527D01*
X106816580Y-110769435D02*
X111357255Y-110769435D01*
X111357255Y-110769435D02*
X113220445Y-108906245D01*
D44*
%TO.N,D5'*%
X94297500Y-116522500D02*
X94297500Y-119697500D01*
D42*
X153619289Y-78384986D02*
X153619289Y-79006782D01*
X153619289Y-79006782D02*
X153187467Y-79438604D01*
X150856856Y-63062364D02*
X151729854Y-63935362D01*
X152723801Y-74923806D02*
X153136699Y-75336703D01*
X152723801Y-71810484D02*
X152723801Y-74923806D01*
X134593712Y-51726212D02*
X136223824Y-51726212D01*
X153187467Y-88327920D02*
X152287674Y-89227713D01*
X151729854Y-63935362D02*
X151729854Y-70816537D01*
X153187467Y-79438604D02*
X153187467Y-88327920D01*
X150856856Y-60661966D02*
X150856856Y-63062364D01*
X153136699Y-77902396D02*
X153619289Y-78384986D01*
X133032500Y-50165000D02*
X134593712Y-51726212D01*
X153136699Y-75336703D02*
X153136699Y-77902396D01*
X143908256Y-59410644D02*
X149605534Y-59410644D01*
X149605534Y-59410644D02*
X150856856Y-60661966D01*
X136223824Y-51726212D02*
X143908256Y-59410644D01*
X151729854Y-70816537D02*
X152723801Y-71810484D01*
X98358273Y-110934476D02*
X103034931Y-110934476D01*
X119188491Y-95441509D02*
X119188491Y-91442549D01*
X106308992Y-111411349D02*
X106479900Y-111582257D01*
X119188491Y-91442549D02*
X118845592Y-91099650D01*
X106479900Y-111582257D02*
X111693935Y-111582257D01*
X94297500Y-116522500D02*
X94297500Y-114995249D01*
X94297500Y-114995249D02*
X98358273Y-110934476D01*
X114033267Y-100596733D02*
X119188491Y-95441509D01*
X114033267Y-109242925D02*
X114033267Y-100596733D01*
X103034931Y-110934476D02*
X103511804Y-111411349D01*
X111693935Y-111582257D02*
X114033267Y-109242925D01*
X103511804Y-111411349D02*
X106308992Y-111411349D01*
D44*
%TO.N,D6'*%
X96837500Y-116522500D02*
X96837500Y-119697500D01*
D42*
X152323877Y-86596625D02*
X151317646Y-87602856D01*
X152323877Y-75673383D02*
X152323877Y-86596625D01*
X132866534Y-52539034D02*
X135887144Y-52539034D01*
X151910979Y-75260486D02*
X152323877Y-75673383D01*
X151910979Y-72147164D02*
X151910979Y-75260486D01*
X150917032Y-71153217D02*
X151910979Y-72147164D01*
X149268854Y-60223466D02*
X150044034Y-60998646D01*
X150044034Y-63399044D02*
X150917032Y-64272042D01*
X143571576Y-60223466D02*
X149268854Y-60223466D01*
X130492500Y-50165000D02*
X132866534Y-52539034D01*
X150044034Y-60998646D02*
X150044034Y-63399044D01*
X150917032Y-64272042D02*
X150917032Y-71153217D01*
X135887144Y-52539034D02*
X143571576Y-60223466D01*
X102866591Y-111340887D02*
X103343464Y-111817760D01*
X98526613Y-111340887D02*
X102866591Y-111340887D01*
X120243589Y-93342290D02*
X121060784Y-92525095D01*
X96837500Y-116522500D02*
X96837500Y-113030000D01*
X120243589Y-101809409D02*
X120243589Y-93342290D01*
X106140652Y-111817760D02*
X106311560Y-111988668D01*
X106311560Y-111988668D02*
X111862275Y-111988668D01*
X116255767Y-105797231D02*
X120243589Y-101809409D01*
X103343464Y-111817760D02*
X106140652Y-111817760D01*
X111862275Y-111988668D02*
X116255767Y-107595176D01*
X96837500Y-113030000D02*
X98526613Y-111340887D01*
X116255767Y-107595176D02*
X116255767Y-105797231D01*
%TO.N,D2'*%
X147320000Y-93027500D02*
X147955000Y-93027500D01*
D44*
X86677500Y-116522500D02*
X86677500Y-119697500D01*
D42*
X150088591Y-90258909D02*
X150088591Y-87915910D01*
X150088591Y-87915910D02*
X151917466Y-86087036D01*
X151917466Y-86087036D02*
X151917466Y-75841723D01*
X150510621Y-71321558D02*
X150510621Y-64440382D01*
X150510621Y-64440382D02*
X149637623Y-63567384D01*
X151504568Y-72315504D02*
X150510621Y-71321558D01*
X149100521Y-60629877D02*
X143403236Y-60629877D01*
X149637623Y-61166979D02*
X149100521Y-60629877D01*
X147320000Y-93027500D02*
X150088591Y-90258909D01*
X130732945Y-52945445D02*
X127952500Y-50165000D01*
X135718804Y-52945445D02*
X130732945Y-52945445D01*
X151917466Y-75841723D02*
X151504568Y-75428825D01*
X143403236Y-60629877D02*
X135718804Y-52945445D01*
X151504568Y-75428825D02*
X151504568Y-72315504D01*
X149637623Y-63567384D02*
X149637623Y-61166979D01*
X88861856Y-114338144D02*
X89620966Y-114338144D01*
X116300132Y-95502768D02*
X117589258Y-94213642D01*
X116300132Y-96361807D02*
X116300132Y-95502768D01*
X103539951Y-109715243D02*
X104016824Y-110192116D01*
X97853253Y-109715243D02*
X103539951Y-109715243D01*
X89620966Y-114338144D02*
X90027377Y-113931733D01*
X112814034Y-99847905D02*
X116300132Y-96361807D01*
X86677500Y-116522500D02*
X88861856Y-114338144D01*
X112814034Y-108737905D02*
X112814034Y-99847905D01*
X104016824Y-110192116D02*
X106814012Y-110192116D01*
X117589258Y-94213642D02*
X117589258Y-93980000D01*
X106814012Y-110192116D02*
X106984920Y-110363024D01*
X93636763Y-113931733D02*
X97853253Y-109715243D01*
X106984920Y-110363024D02*
X111188915Y-110363024D01*
X90027377Y-113931733D02*
X93636763Y-113931733D01*
X111188915Y-110363024D02*
X112814034Y-108737905D01*
%TO.N,MI*%
X110172500Y-93027500D02*
X110070888Y-92925888D01*
X110070888Y-92925888D02*
X103101379Y-92925888D01*
X103101379Y-92925888D02*
X101930210Y-94097057D01*
X104635243Y-60882511D02*
X104635243Y-62611151D01*
X104635243Y-62611151D02*
X103645135Y-63601259D01*
X105596229Y-59921525D02*
X104635243Y-60882511D01*
X168592500Y-50165000D02*
X168592500Y-51367081D01*
X167114903Y-52844678D02*
X165874570Y-52844678D01*
X159481927Y-59237321D02*
X159481927Y-59270890D01*
X165874570Y-52844678D02*
X159481927Y-59237321D01*
X168592500Y-51367081D02*
X167114903Y-52844678D01*
%TO.N,RFSH*%
X102398419Y-90487500D02*
X101930210Y-90955709D01*
X110172500Y-90487500D02*
X102398419Y-90487500D01*
X103548952Y-64463674D02*
X103548952Y-64595983D01*
X103921312Y-59973162D02*
X103921312Y-62366484D01*
X103921312Y-62366484D02*
X102997434Y-63290362D01*
X102997434Y-63290362D02*
X102997434Y-63912156D01*
X102997434Y-63912156D02*
X103548952Y-64463674D01*
X160984538Y-58884212D02*
X160984538Y-59520966D01*
X166211250Y-53657500D02*
X160984538Y-58884212D01*
X171132500Y-51435000D02*
X168910000Y-53657500D01*
X168910000Y-53657500D02*
X166211250Y-53657500D01*
X171132500Y-50165000D02*
X171132500Y-51435000D01*
%TO.N,BUSAK*%
X100330000Y-60642500D02*
X100330000Y-60513358D01*
X100330000Y-60513358D02*
X100342710Y-60500648D01*
X100342710Y-60500648D02*
X100342710Y-60436120D01*
X100464074Y-62271913D02*
X100496098Y-62303937D01*
X100464074Y-60647432D02*
X100464074Y-62271913D01*
X100330000Y-60513358D02*
X100464074Y-60647432D01*
X101099371Y-67267135D02*
X100507710Y-67858796D01*
X101099371Y-66533313D02*
X101099371Y-67267135D01*
X100496098Y-65930040D02*
X101099371Y-66533313D01*
X100496098Y-62303937D02*
X100496098Y-65930040D01*
X107485863Y-105239137D02*
X100824537Y-105239137D01*
X109537500Y-103187500D02*
X107485863Y-105239137D01*
X110172500Y-103187500D02*
X109537500Y-103187500D01*
X154216089Y-54381410D02*
X154216089Y-55791089D01*
X158432500Y-50165000D02*
X154216089Y-54381410D01*
X154216089Y-55791089D02*
X154940000Y-56515000D01*
%TO.N,WAIT*%
X160972500Y-50165000D02*
X157797500Y-53340000D01*
X110172500Y-100647500D02*
X110159799Y-100634799D01*
X110159799Y-100634799D02*
X106349799Y-100634799D01*
X106349799Y-100634799D02*
X105383678Y-100634799D01*
X105383678Y-100634799D02*
X105282177Y-100736300D01*
X99377500Y-41275000D02*
X98742500Y-40640000D01*
X107162305Y-48207699D02*
X101230199Y-48207699D01*
X99377500Y-46355000D02*
X99377500Y-41275000D01*
X107784801Y-48830195D02*
X107162305Y-48207699D01*
X101230199Y-48207699D02*
X99377500Y-46355000D01*
X107784801Y-51216376D02*
X107784801Y-48830195D01*
X107086411Y-51914765D02*
X107784801Y-51216376D01*
X107086411Y-56694692D02*
X107086411Y-51914765D01*
X107224219Y-56832500D02*
X107086411Y-56694692D01*
X93027500Y-101917500D02*
X91122500Y-103822500D01*
X105092500Y-101917500D02*
X93027500Y-101917500D01*
X105282177Y-101727823D02*
X105092500Y-101917500D01*
X105282177Y-100736300D02*
X105282177Y-101727823D01*
X107224219Y-60272928D02*
X107224219Y-56832500D01*
X105582651Y-61914496D02*
X107224219Y-60272928D01*
X105582651Y-63815503D02*
X105582651Y-61914496D01*
X106116518Y-64349370D02*
X105582651Y-63815503D01*
X106116518Y-65074472D02*
X106116518Y-64349370D01*
X106353277Y-65311231D02*
X106116518Y-65074472D01*
X106353277Y-66034109D02*
X106353277Y-65311231D01*
%TO.N,BUSRQ*%
X103850081Y-98368031D02*
X103850081Y-97484623D01*
X110172500Y-98107500D02*
X108143061Y-100136939D01*
X108143061Y-100136939D02*
X105618989Y-100136939D01*
X105618989Y-100136939D02*
X103850081Y-98368031D01*
X103917235Y-65268107D02*
X104528538Y-64656804D01*
X104528538Y-64656804D02*
X104528538Y-63700970D01*
X102591023Y-64554056D02*
X103305074Y-65268107D01*
X103060532Y-62652513D02*
X102591023Y-63122022D01*
X103060532Y-59750903D02*
X103060532Y-62652513D01*
X103305074Y-65268107D02*
X103917235Y-65268107D01*
X102591023Y-63122022D02*
X102591023Y-64554056D01*
X163512500Y-50165000D02*
X163512500Y-51435006D01*
X163512500Y-51435006D02*
X157480000Y-57467506D01*
%TO.N,WR*%
X116354160Y-104943340D02*
X115570000Y-105727500D01*
X116354160Y-101688911D02*
X116354160Y-104943340D01*
X129222500Y-65087500D02*
X135232727Y-59077273D01*
X135232727Y-59077273D02*
X135232727Y-57149930D01*
X92227301Y-109432805D02*
X92098803Y-109561303D01*
X92098803Y-109561303D02*
X88947606Y-112712500D01*
X88947606Y-112712500D02*
X80010000Y-112712500D01*
X80010000Y-112712500D02*
X77787500Y-114935000D01*
X77787500Y-114935000D02*
X77787500Y-120650000D01*
X77787500Y-120650000D02*
X78422500Y-121285000D01*
X86613634Y-91987623D02*
X91292374Y-91987623D01*
X91292374Y-91987623D02*
X92715997Y-93411246D01*
X69215000Y-59690000D02*
X71126221Y-61601221D01*
X71126221Y-61601221D02*
X71126221Y-78740121D01*
X80975201Y-89985701D02*
X82670721Y-91681221D01*
X86307232Y-91681221D02*
X86613634Y-91987623D01*
X82670721Y-91681221D02*
X86307232Y-91681221D01*
X80975201Y-88589101D02*
X80975201Y-89985701D01*
X71126221Y-78740121D02*
X80975201Y-88589101D01*
X92715997Y-93411246D02*
X93242256Y-93411246D01*
X93139801Y-108520305D02*
X92098803Y-109561303D01*
X93139801Y-104980199D02*
X93139801Y-108520305D01*
X93662500Y-104457500D02*
X93139801Y-104980199D01*
X97372278Y-104457500D02*
X93662500Y-104457500D01*
X97491431Y-104338347D02*
X97372278Y-104457500D01*
X101294772Y-105727500D02*
X101135434Y-105886838D01*
X101135434Y-105886838D02*
X99039922Y-105886838D01*
X99039922Y-105886838D02*
X97491431Y-104338347D01*
X110172500Y-105727500D02*
X101294772Y-105727500D01*
X107859887Y-66858041D02*
X107443805Y-66858041D01*
X108597702Y-66120226D02*
X107859887Y-66858041D01*
X109220000Y-63817500D02*
X108597702Y-64439798D01*
X107443805Y-66858041D02*
X107100906Y-66515142D01*
X108597702Y-64439798D02*
X108597702Y-66120226D01*
X127952500Y-63817500D02*
X109220000Y-63817500D01*
X129222500Y-65087500D02*
X127952500Y-63817500D01*
%TO.N,RD*%
X110172500Y-108267500D02*
X109029543Y-107124543D01*
X109029543Y-107124543D02*
X101612710Y-107124543D01*
X80010000Y-57785000D02*
X74701420Y-63093580D01*
X85147437Y-81280000D02*
X87522238Y-83654801D01*
X93075106Y-79057500D02*
X99695028Y-79057500D01*
X87522238Y-83654801D02*
X88477805Y-83654801D01*
X74701420Y-63093580D02*
X74701420Y-75653920D01*
X74701420Y-75653920D02*
X80327500Y-81280000D01*
X88477805Y-83654801D02*
X93075106Y-79057500D01*
X80327500Y-81280000D02*
X85147437Y-81280000D01*
X100057663Y-66527524D02*
X100451661Y-66921522D01*
X100057663Y-61905453D02*
X100057663Y-66527524D01*
X99644231Y-61492021D02*
X100057663Y-61905453D01*
X98653031Y-59967225D02*
X99137964Y-59967225D01*
X99644231Y-60473492D02*
X99644231Y-61492021D01*
X99137964Y-59967225D02*
X99644231Y-60473492D01*
%TO.N,IORQ*%
X106654613Y-95910399D02*
X101892101Y-95910399D01*
X98221218Y-99581282D02*
X96923863Y-99581282D01*
X101892101Y-95910399D02*
X98221218Y-99581282D01*
X108267512Y-94297500D02*
X106654613Y-95910399D01*
X86360000Y-63500000D02*
X86995000Y-62865000D01*
X86995000Y-62865000D02*
X88582500Y-62865000D01*
X80645000Y-63500000D02*
X86360000Y-63500000D01*
X88582500Y-62865000D02*
X89608652Y-63891152D01*
X89608652Y-63891152D02*
X92437986Y-63891152D01*
X78740000Y-61595000D02*
X80645000Y-63500000D01*
X107048936Y-69849807D02*
X106162520Y-69849807D01*
X97200429Y-57661284D02*
X96857530Y-57318385D01*
X101371790Y-65059077D02*
X101371790Y-62617002D01*
X106162520Y-69849807D02*
X101371790Y-65059077D01*
X101371790Y-62617002D02*
X101791510Y-62197283D01*
X100990411Y-60667911D02*
X100990411Y-60014550D01*
X100990411Y-60014550D02*
X98637145Y-57661284D01*
X101791510Y-61469010D02*
X100990411Y-60667911D01*
X98637145Y-57661284D02*
X97200429Y-57661284D01*
X101791510Y-62197283D02*
X101791510Y-61469010D01*
%TO.N,MREQ*%
X85954855Y-93053788D02*
X89555188Y-93053788D01*
X85484090Y-92583023D02*
X85954855Y-93053788D01*
X82423023Y-92583023D02*
X85484090Y-92583023D01*
X70719810Y-63734810D02*
X70719810Y-80879810D01*
X70719810Y-80879810D02*
X82423023Y-92583023D01*
X69215000Y-62230000D02*
X70719810Y-63734810D01*
X92000260Y-95498860D02*
X92614430Y-95498860D01*
X89555188Y-93053788D02*
X92000260Y-95498860D01*
X95580210Y-106375210D02*
X107833831Y-106375210D01*
X94932500Y-105727500D02*
X95580210Y-106375210D01*
X141922500Y-99695000D02*
X144780000Y-99695000D01*
X154263911Y-59471008D02*
X154263911Y-60224857D01*
X156900076Y-78622786D02*
X156464166Y-79058695D01*
X151220080Y-97502921D02*
X151220080Y-100203422D01*
X156095734Y-92627267D02*
X151220080Y-97502921D01*
X155155812Y-68647577D02*
X155328634Y-68820399D01*
X155328634Y-70023086D02*
X155568676Y-70263128D01*
X148272500Y-50165000D02*
X148272500Y-51434999D01*
X148272500Y-51434999D02*
X152031654Y-55194153D01*
X155486080Y-61447026D02*
X155486080Y-65211314D01*
X155486080Y-65211314D02*
X155155812Y-65541582D01*
X152031654Y-55194153D02*
X152031654Y-57238751D01*
X155155812Y-65541582D02*
X155155812Y-68647577D01*
X152031654Y-57238751D02*
X154263911Y-59471008D01*
X151220080Y-100203422D02*
X151080868Y-100342634D01*
X156464166Y-80185162D02*
X156095734Y-80553593D01*
X155981576Y-74158324D02*
X155981576Y-74609752D01*
X155981576Y-74609752D02*
X156900076Y-75528252D01*
X155568676Y-70263128D02*
X155568676Y-73745424D01*
X155568676Y-73745424D02*
X155981576Y-74158324D01*
X156095734Y-80553593D02*
X156095734Y-92627267D01*
X156464166Y-79058695D02*
X156464166Y-80185162D01*
X155328634Y-68820399D02*
X155328634Y-70023086D01*
X156900076Y-75528252D02*
X156900076Y-78622786D01*
X154263911Y-60224857D02*
X155486080Y-61447026D01*
%TO.N,A7'*%
X136423387Y-68999113D02*
X137795000Y-67627500D01*
X137795000Y-67627500D02*
X140652500Y-67627500D01*
X124777500Y-70167500D02*
X125945887Y-68999113D01*
X124142500Y-70167500D02*
X124777500Y-70167500D01*
X125945887Y-68999113D02*
X136423387Y-68999113D01*
X93062699Y-50835199D02*
X93264305Y-50835199D01*
X94332699Y-50835199D02*
X102006411Y-58508911D01*
X102006411Y-61109160D02*
X102197921Y-61300670D01*
X106089573Y-69202105D02*
X107359834Y-69202105D01*
X101778201Y-64890733D02*
X106089573Y-69202105D01*
X101778201Y-62785342D02*
X101778201Y-64890733D01*
X102006411Y-58508911D02*
X102006411Y-61109160D01*
X93062699Y-50835199D02*
X94332699Y-50835199D01*
X102197921Y-62365623D02*
X101778201Y-62785342D01*
X115557299Y-68884799D02*
X116840000Y-70167500D01*
X107359834Y-69202105D02*
X107375130Y-69217401D01*
X107947600Y-69217401D02*
X108280202Y-68884799D01*
X107375130Y-69217401D02*
X107947600Y-69217401D01*
X108280202Y-68884799D02*
X115557299Y-68884799D01*
X102197921Y-61300670D02*
X102197921Y-62365623D01*
X90500201Y-48272701D02*
X93062699Y-50835199D01*
X90500201Y-46050201D02*
X90500201Y-48272701D01*
X89852500Y-45402500D02*
X90500201Y-46050201D01*
X86045248Y-45402500D02*
X89852500Y-45402500D01*
X73025000Y-45720000D02*
X85727748Y-45720000D01*
X85727748Y-45720000D02*
X86045248Y-45402500D01*
X69215000Y-41910000D02*
X73025000Y-45720000D01*
%TO.N,A8'*%
X133715106Y-66675000D02*
X135572500Y-66675000D01*
X133562805Y-66522699D02*
X133715106Y-66675000D01*
X130080127Y-66522690D02*
X130232437Y-66675000D01*
X132349894Y-66675000D02*
X132502195Y-66522699D01*
X135572500Y-66675000D02*
X137160000Y-65087500D01*
X132502195Y-66522699D02*
X133562805Y-66522699D01*
X137160000Y-65087500D02*
X140652500Y-65087500D01*
X128212563Y-66675000D02*
X128364873Y-66522690D01*
X130232437Y-66675000D02*
X132349894Y-66675000D01*
X128364873Y-66522690D02*
X130080127Y-66522690D01*
X123507500Y-67945000D02*
X124777500Y-66675000D01*
X125095000Y-66675000D02*
X128212563Y-66675000D01*
X124777500Y-66675000D02*
X125095000Y-66675000D01*
X91595199Y-43017699D02*
X74457301Y-43017699D01*
X117199989Y-66965112D02*
X116592377Y-66357500D01*
X116592377Y-66357500D02*
X108935179Y-66357500D01*
X108935179Y-66357500D02*
X107969977Y-67322702D01*
X102604332Y-62533963D02*
X102604332Y-61132330D01*
X107969977Y-67322702D02*
X104784925Y-67322702D01*
X74457301Y-43017699D02*
X73660000Y-43815000D01*
X104784925Y-67322702D02*
X102184612Y-64722389D01*
X102604332Y-61132330D02*
X102412822Y-60940820D01*
X102184612Y-62953682D02*
X102604332Y-62533963D01*
X102184612Y-64722389D02*
X102184612Y-62953682D01*
X102412822Y-60940820D02*
X102412822Y-57483716D01*
X93073907Y-44496407D02*
X91595199Y-43017699D01*
X102412822Y-57483716D02*
X93073907Y-48144801D01*
X93073907Y-48144801D02*
X93073907Y-44496407D01*
%TO.N,Net-(IC1-Pad22)*%
X81915000Y-87630000D02*
X84455000Y-87630000D01*
X79057500Y-84772500D02*
X81915000Y-87630000D01*
X79057500Y-84455000D02*
X79057500Y-84772500D01*
X87465195Y-57519801D02*
X85825394Y-55880000D01*
X90805000Y-54610000D02*
X90805000Y-55599949D01*
X74295003Y-77152503D02*
X79057500Y-81915000D01*
X90805000Y-55599949D02*
X88885148Y-57519801D01*
X80645000Y-55880000D02*
X74295003Y-62229997D01*
X85825394Y-55880000D02*
X80645000Y-55880000D01*
X74295003Y-62229997D02*
X74295003Y-77152503D01*
X88885148Y-57519801D02*
X87465195Y-57519801D01*
%TO.N,A2'*%
X79165212Y-83604112D02*
X78895763Y-83604112D01*
X78895763Y-83604112D02*
X72345454Y-77053803D01*
X72345454Y-77053803D02*
X72345454Y-50120454D01*
X122815118Y-86550524D02*
X122649949Y-86385355D01*
X122649949Y-86385355D02*
X114967082Y-86385355D01*
X72345454Y-50120454D02*
X69215000Y-46990000D01*
X82073410Y-86512310D02*
X79165212Y-83604112D01*
X114967082Y-86385355D02*
X114840127Y-86512310D01*
X114840127Y-86512310D02*
X82073410Y-86512310D01*
X134429476Y-86550524D02*
X122815118Y-86550524D01*
X140652500Y-80327500D02*
X134429476Y-86550524D01*
%TO.N,A1'*%
X126765103Y-89217500D02*
X132517997Y-89217500D01*
X116582749Y-89217500D02*
X118119482Y-87680767D01*
X118119482Y-87680767D02*
X125228370Y-87680767D01*
X89535000Y-89217500D02*
X116582749Y-89217500D01*
X132517997Y-89217500D02*
X138867997Y-82867500D01*
X89217500Y-88900000D02*
X89535000Y-89217500D01*
X82543900Y-88900000D02*
X89217500Y-88900000D01*
X125228370Y-87680767D02*
X126765103Y-89217500D01*
X71939043Y-78295143D02*
X82543900Y-88900000D01*
X138867997Y-82867500D02*
X140652500Y-82867500D01*
X71939043Y-52254043D02*
X71939043Y-78295143D01*
X69215000Y-49530000D02*
X71939043Y-52254043D01*
%TO.N,A0'*%
X81381612Y-89817362D02*
X82839060Y-91274810D01*
X71532632Y-78571781D02*
X81381612Y-88420761D01*
X91460714Y-91581212D02*
X91649703Y-91770201D01*
X81381612Y-88420761D02*
X81381612Y-89817362D01*
X86781974Y-91581212D02*
X91460714Y-91581212D01*
X91649703Y-91770201D02*
X114662236Y-91770201D01*
X114662236Y-91770201D02*
X118345259Y-88087178D01*
X71532632Y-54387632D02*
X71532632Y-78571781D01*
X118345259Y-88087178D02*
X125060031Y-88087178D01*
X126961935Y-89989082D02*
X126961935Y-90941582D01*
X126961935Y-90941582D02*
X127777853Y-91757500D01*
X127777853Y-91757500D02*
X130552748Y-91757500D01*
X86475573Y-91274810D02*
X86781974Y-91581212D01*
X136902748Y-85407500D02*
X140652500Y-85407500D01*
X69215000Y-52070000D02*
X71532632Y-54387632D01*
X125060031Y-88087178D02*
X126961935Y-89989082D01*
X130552748Y-91757500D02*
X136902748Y-85407500D01*
X82839060Y-91274810D02*
X86475573Y-91274810D01*
%TO.N,KBD4*%
X139065000Y-131445000D02*
X148933642Y-131445000D01*
X150379801Y-129998841D02*
X150379801Y-128581093D01*
X150379801Y-128581093D02*
X155135894Y-123825000D01*
X148933642Y-131445000D02*
X150379801Y-129998841D01*
X157162500Y-121285000D02*
X158432500Y-120015000D01*
X155135894Y-123825000D02*
X156527500Y-123825000D01*
X156527500Y-123825000D02*
X157162500Y-123190000D01*
X157162500Y-123190000D02*
X157162500Y-121285000D01*
X165241106Y-107808894D02*
X164465000Y-108585000D01*
X165241106Y-104598606D02*
X165241106Y-107808894D01*
X164465000Y-108585000D02*
X162800000Y-108585000D01*
X163766500Y-103124000D02*
X165241106Y-104598606D01*
X162800000Y-103124000D02*
X163766500Y-103124000D01*
%TO.N,KBD3*%
X154622500Y-121285000D02*
X155892500Y-120015000D01*
X154622500Y-123014234D02*
X154622500Y-121285000D01*
X150141412Y-127495322D02*
X154622500Y-123014234D01*
X147339180Y-127495322D02*
X150141412Y-127495322D01*
X144544303Y-130290199D02*
X147339180Y-127495322D01*
X137679801Y-130290199D02*
X144544303Y-130290199D01*
X136525000Y-131445000D02*
X137679801Y-130290199D01*
X157480000Y-113030000D02*
X155892500Y-114617500D01*
X161230000Y-113030000D02*
X157480000Y-113030000D01*
X162800000Y-114600000D02*
X161230000Y-113030000D01*
%TO.N,KBD2*%
X133985000Y-131445000D02*
X135546212Y-129883788D01*
X152082500Y-121285000D02*
X153352500Y-120015000D01*
X135546212Y-129883788D02*
X144375963Y-129883788D01*
X144375963Y-129883788D02*
X147170839Y-127088911D01*
X147170839Y-127088911D02*
X148501089Y-127088911D01*
X148501089Y-127088911D02*
X152082500Y-123507500D01*
X152082500Y-123507500D02*
X152082500Y-121285000D01*
X157327699Y-101472301D02*
X157400000Y-101400000D01*
X157327699Y-105170943D02*
X157327699Y-101472301D01*
X154622500Y-112395000D02*
X154622500Y-107876142D01*
X153352500Y-113665000D02*
X154622500Y-112395000D01*
X154622500Y-107876142D02*
X157327699Y-105170943D01*
X153352500Y-114617500D02*
X153352500Y-113665000D01*
%TO.N,D1*%
X97665854Y-95567500D02*
X97891621Y-95341733D01*
X94932500Y-95567500D02*
X97665854Y-95567500D01*
%TO.N,KBD1*%
X150812500Y-120015000D02*
X149542500Y-121285000D01*
X149542500Y-121285000D02*
X149542500Y-124142500D01*
X149542500Y-124142500D02*
X144207623Y-129477377D01*
X133412623Y-129477377D02*
X131445000Y-131445000D01*
X144207623Y-129477377D02*
X133412623Y-129477377D01*
%TO.N,Net-(IC1-Pad12)*%
X80457531Y-50800000D02*
X86042482Y-50800000D01*
X73025000Y-58232531D02*
X80457531Y-50800000D01*
X73025000Y-69532500D02*
X73025000Y-58232531D01*
%TO.N,D0*%
X97580850Y-93027500D02*
X98132855Y-92475495D01*
X94932500Y-93027500D02*
X97580850Y-93027500D01*
%TO.N,Net-(IC1-Pad13)*%
X66040000Y-78422500D02*
X66040000Y-75565000D01*
X66040000Y-75565000D02*
X69215000Y-72390000D01*
%TO.N,KBD0*%
X148272500Y-120015000D02*
X147002500Y-121285000D01*
X147002500Y-121285000D02*
X147002500Y-124460000D01*
X131279034Y-129070966D02*
X128905000Y-131445000D01*
X142391534Y-129070966D02*
X131279034Y-129070966D01*
X147002500Y-124460000D02*
X142391534Y-129070966D01*
X148272500Y-119062500D02*
X148272500Y-120015000D01*
X148907500Y-118427500D02*
X148272500Y-119062500D01*
X161925000Y-118427500D02*
X148907500Y-118427500D01*
X164227500Y-120730000D02*
X161925000Y-118427500D01*
X168530000Y-120730000D02*
X164227500Y-120730000D01*
D44*
%TO.N,TAPE_OUT*%
X55245000Y-80645000D02*
X54927500Y-80645000D01*
X55245000Y-80645000D02*
X55074158Y-80645000D01*
X55074158Y-80645000D02*
X50629158Y-76200000D01*
D42*
X58737490Y-80645000D02*
X58737500Y-80644990D01*
X55245000Y-80645000D02*
X58737490Y-80645000D01*
D44*
X50165000Y-76200000D02*
X49212500Y-76200000D01*
X50629158Y-76200000D02*
X50165000Y-76200000D01*
X50482500Y-76200000D02*
X50165000Y-76200000D01*
X51117500Y-75565000D02*
X50482500Y-76200000D01*
X51117500Y-73342500D02*
X51117500Y-75565000D01*
D42*
%TO.N,A3'*%
X128438340Y-84226411D02*
X133308695Y-84226411D01*
X133308695Y-84226411D02*
X139747606Y-77787500D01*
X139747606Y-77787500D02*
X140652500Y-77787500D01*
X127287376Y-85377376D02*
X128438340Y-84226411D01*
X126838139Y-85826612D02*
X127287376Y-85377376D01*
X79955851Y-83820000D02*
X86360000Y-83820000D01*
X79064103Y-83197701D02*
X79333552Y-83197701D01*
X79333552Y-83197701D02*
X79955851Y-83820000D01*
X86360000Y-83820000D02*
X86677500Y-84137500D01*
X73888594Y-78022192D02*
X79064103Y-83197701D01*
X83051800Y-52070000D02*
X73888594Y-61233206D01*
X126520639Y-86144113D02*
X127287376Y-85377376D01*
X118519000Y-84137500D02*
X120223659Y-85842159D01*
X92122606Y-84137500D02*
X118519000Y-84137500D01*
X73888594Y-61233206D02*
X73888594Y-78022192D01*
X120223659Y-85842159D02*
X123043809Y-85842159D01*
X123043809Y-85842159D02*
X123345762Y-86144113D01*
X91652805Y-83667699D02*
X92122606Y-84137500D01*
X90122394Y-84137500D02*
X90592195Y-83667699D01*
X123345762Y-86144113D02*
X126520639Y-86144113D01*
X90592195Y-83667699D02*
X91652805Y-83667699D01*
X86677500Y-84137500D02*
X90122394Y-84137500D01*
X84455000Y-52070000D02*
X83051800Y-52070000D01*
%TO.N,A4'*%
X143837586Y-88254914D02*
X143837586Y-94611048D01*
X144982301Y-83242762D02*
X144982301Y-87110199D01*
X143837586Y-94611048D02*
X144180485Y-94953947D01*
X146627563Y-81597500D02*
X144982301Y-83242762D01*
X148907500Y-81597500D02*
X146627563Y-81597500D01*
X149571056Y-80933944D02*
X148907500Y-81597500D01*
X149571056Y-76546056D02*
X149571056Y-80933944D01*
X148272500Y-75247500D02*
X149571056Y-76546056D01*
X144982301Y-87110199D02*
X143837586Y-88254914D01*
X147320000Y-75247500D02*
X148272500Y-75247500D01*
X102300154Y-113412652D02*
X101600000Y-112712498D01*
X112269599Y-113412652D02*
X102300154Y-113412652D01*
X142677375Y-96331241D02*
X142475914Y-96532702D01*
X130492500Y-100965000D02*
X129540000Y-101917500D01*
X142475914Y-96532702D02*
X141849549Y-96532702D01*
X141849549Y-96532702D02*
X140192061Y-98190190D01*
X125095000Y-101917500D02*
X123507500Y-103505000D01*
X131044810Y-98190190D02*
X130492500Y-98742500D01*
X130492500Y-98742500D02*
X130492500Y-100965000D01*
X140192061Y-98190190D02*
X131044810Y-98190190D01*
X117475000Y-108207251D02*
X112269599Y-113412652D01*
X129540000Y-101917500D02*
X125095000Y-101917500D01*
X123507500Y-103505000D02*
X120332500Y-103505000D01*
X120332500Y-103505000D02*
X117475000Y-106362500D01*
X117475000Y-106362500D02*
X117475000Y-108207251D01*
X84455000Y-49530000D02*
X86048598Y-49530000D01*
X87953598Y-51435000D02*
X90805000Y-51435000D01*
X86048598Y-49530000D02*
X87953598Y-51435000D01*
X97370888Y-67662466D02*
X97417094Y-67708672D01*
X90805000Y-51435000D02*
X93662500Y-54292500D01*
X97370888Y-64290763D02*
X97370888Y-67662466D01*
X93662500Y-54292500D02*
X93662500Y-56197500D01*
X96437301Y-60788323D02*
X97965728Y-62316754D01*
X93662500Y-56197500D02*
X93671142Y-56197500D01*
X93671142Y-56197500D02*
X96437301Y-58963659D01*
X96437301Y-58963659D02*
X96437301Y-60788323D01*
X97965728Y-62316754D02*
X98169961Y-62316754D01*
X98169961Y-62316754D02*
X98432019Y-62578812D01*
X98432019Y-62578812D02*
X98432019Y-63229632D01*
X98432019Y-63229632D02*
X97370888Y-64290763D01*
%TO.N,A5'*%
X84455000Y-46990000D02*
X85426804Y-46990000D01*
X144462500Y-88842563D02*
X144462500Y-94297500D01*
X148824810Y-86842690D02*
X146462373Y-86842690D01*
X146462373Y-86842690D02*
X144462500Y-88842563D01*
X150291822Y-81858115D02*
X148824810Y-83325127D01*
X150291822Y-76515083D02*
X150291822Y-81858115D01*
X149878929Y-76102190D02*
X150291822Y-76515083D01*
X149878929Y-74966122D02*
X149878929Y-76102190D01*
X148590000Y-73025000D02*
X148590000Y-73677191D01*
X148590000Y-73677191D02*
X149878929Y-74966122D01*
X148272500Y-72707500D02*
X148590000Y-73025000D01*
X148824810Y-83325127D02*
X148824810Y-86842690D01*
X147320000Y-72707500D02*
X148272500Y-72707500D01*
X130552750Y-98107500D02*
X126047500Y-98107500D01*
X126047500Y-98107500D02*
X125577690Y-98577310D01*
X120164160Y-103098589D02*
X117068589Y-106194160D01*
X141912080Y-95878841D02*
X140007142Y-97783779D01*
X112198955Y-112801490D02*
X102855172Y-112801490D01*
X117068589Y-107931856D02*
X112198955Y-112801490D01*
X117068589Y-106194160D02*
X117068589Y-107931856D01*
X130876470Y-97783779D02*
X130552750Y-98107500D01*
X122701348Y-103098589D02*
X120164160Y-103098589D01*
X125577690Y-98577310D02*
X125577690Y-100222247D01*
X102855172Y-112801490D02*
X102818633Y-112764951D01*
X140007142Y-97783779D02*
X130876470Y-97783779D01*
X125577690Y-100222247D02*
X122701348Y-103098589D01*
X98174102Y-68964102D02*
X100012500Y-70802500D01*
X98174102Y-66112700D02*
X98174102Y-68964102D01*
X97777299Y-65715897D02*
X98174102Y-66112700D01*
X98838430Y-63397972D02*
X97777299Y-64459103D01*
X84455000Y-46990000D02*
X85725000Y-46990000D01*
X85725000Y-46990000D02*
X86677500Y-47942500D01*
X94068911Y-56020518D02*
X96843712Y-58795319D01*
X86677500Y-47942500D02*
X88900000Y-47942500D01*
X97777299Y-64459103D02*
X97777299Y-65715897D01*
X88900000Y-47942500D02*
X89535000Y-48577500D01*
X96843712Y-58795319D02*
X96843712Y-60619983D01*
X89535000Y-48577500D02*
X89535000Y-49590249D01*
X89535000Y-49590249D02*
X94068911Y-54124160D01*
X98838430Y-62410472D02*
X98838430Y-63397972D01*
X94068911Y-54124160D02*
X94068911Y-56020518D01*
X98338301Y-61910343D02*
X98838430Y-62410472D01*
X96843712Y-60619983D02*
X98134068Y-61910343D01*
X98134068Y-61910343D02*
X98338301Y-61910343D01*
%TO.N,D7*%
X85846606Y-94615000D02*
X84691805Y-93460199D01*
X84691805Y-93460199D02*
X75045199Y-93460199D01*
X75045199Y-93460199D02*
X69215000Y-87630000D01*
X86677500Y-94615000D02*
X85846606Y-94615000D01*
X86950314Y-91174801D02*
X86381509Y-90605996D01*
X92657699Y-91174801D02*
X86950314Y-91174801D01*
X93345000Y-90487500D02*
X92657699Y-91174801D01*
X94932500Y-90487500D02*
X93345000Y-90487500D01*
%TO.N,A6'*%
X140652500Y-70167500D02*
X136817101Y-74002899D01*
X124802899Y-74002899D02*
X124460000Y-73660000D01*
X136817101Y-74002899D02*
X124802899Y-74002899D01*
X99651252Y-67924976D02*
X99651252Y-62073792D01*
X105716465Y-73990189D02*
X99651252Y-67924976D01*
X116179601Y-73990189D02*
X105716465Y-73990189D01*
X99651252Y-62073792D02*
X99092676Y-61515216D01*
X94475322Y-53955820D02*
X90061249Y-49541747D01*
X97250123Y-58626979D02*
X94475322Y-55852178D01*
X97250123Y-59522917D02*
X97250123Y-58626979D01*
X94475322Y-55852178D02*
X94475322Y-53955820D01*
X99092676Y-60614927D02*
X98342133Y-60614927D01*
X90061249Y-46697899D02*
X89718350Y-46355000D01*
X90061249Y-49541747D02*
X90061249Y-46697899D01*
X99092676Y-61515216D02*
X99092676Y-60614927D01*
X116522500Y-73647290D02*
X116179601Y-73990189D01*
X98342133Y-60614927D02*
X97250123Y-59522917D01*
D44*
%TO.N,Net-(IC3-Pad6)*%
X91122500Y-69850000D02*
X90487500Y-69215000D01*
X91122500Y-77152500D02*
X91122500Y-73025000D01*
X94932500Y-72707500D02*
X91122500Y-72707500D01*
X91122500Y-72707500D02*
X91122500Y-69850000D01*
X91122500Y-73025000D02*
X91122500Y-72707500D01*
%TO.N,Net-(IC501-Pad29)*%
X101917500Y-117475000D02*
X101917500Y-116522500D01*
D42*
X101917500Y-116522500D02*
X102454355Y-116522500D01*
X131508680Y-114342564D02*
X131851579Y-114685463D01*
X102454355Y-116522500D02*
X104410122Y-114566733D01*
X106456689Y-114342564D02*
X131508680Y-114342564D01*
X104410122Y-114566733D02*
X106232520Y-114566733D01*
X106232520Y-114566733D02*
X106456689Y-114342564D01*
%TO.N,Net-(IC501-Pad27)*%
X131127500Y-114935000D02*
X131762500Y-115570000D01*
X107950000Y-114935000D02*
X131127500Y-114935000D01*
X106997500Y-115887500D02*
X107950000Y-114935000D01*
X106997500Y-116522500D02*
X106997500Y-115887500D01*
X109245399Y-120040399D02*
X109245399Y-121881889D01*
X106997500Y-117792500D02*
X109245399Y-120040399D01*
X106997500Y-116522500D02*
X106997500Y-117792500D01*
X109245399Y-121881889D02*
X104457498Y-126669790D01*
D44*
%TO.N,Net-(IC501-Pad26)*%
X109537500Y-118110000D02*
X109537500Y-116522500D01*
X110490000Y-119062500D02*
X109537500Y-118110000D01*
X110490000Y-120650000D02*
X110490000Y-119062500D01*
%TO.N,Net-(IC501-Pad25)*%
X112077500Y-118110000D02*
X112077500Y-116522500D01*
X113030000Y-119062500D02*
X112077500Y-118110000D01*
X113030000Y-120650000D02*
X113030000Y-119062500D01*
%TO.N,Net-(IC501-Pad24)*%
X114617500Y-118110000D02*
X114617500Y-116522500D01*
X115570000Y-119062500D02*
X114617500Y-118110000D01*
X115570000Y-120650000D02*
X115570000Y-119062500D01*
%TO.N,Net-(IC501-Pad23)*%
X117157500Y-118110000D02*
X117157500Y-116522500D01*
X118110000Y-119062500D02*
X117157500Y-118110000D01*
X118110000Y-120650000D02*
X118110000Y-119062500D01*
D42*
X118110000Y-121920000D02*
X118110000Y-120650000D01*
X112706154Y-127323846D02*
X118110000Y-121920000D01*
X99383846Y-127323846D02*
X112706154Y-127323846D01*
X99377500Y-127317500D02*
X99383846Y-127323846D01*
D44*
%TO.N,Net-(IC501-Pad3)*%
X91757500Y-127317500D02*
X91757500Y-128587500D01*
X91757500Y-128587500D02*
X90805000Y-129540000D01*
X79057500Y-131762500D02*
X79057500Y-130175000D01*
X79692500Y-129540000D02*
X90805000Y-129540000D01*
X79057500Y-130175000D02*
X79692500Y-129540000D01*
%TO.N,Net-(IC501-Pad22)*%
X119697500Y-118110000D02*
X119697500Y-116522500D01*
X120650000Y-119062500D02*
X119697500Y-118110000D01*
X120650000Y-120650000D02*
X120650000Y-119062500D01*
D42*
X120650000Y-121602500D02*
X120650000Y-120650000D01*
X113430190Y-128822310D02*
X120650000Y-121602500D01*
X97942310Y-128822310D02*
X113430190Y-128822310D01*
X96837500Y-127717500D02*
X97942310Y-128822310D01*
X96837500Y-127317500D02*
X96837500Y-127717500D01*
D44*
%TO.N,Net-(IC501-Pad21)*%
X124777500Y-119062500D02*
X122237500Y-116522500D01*
X126987201Y-120046543D02*
X126003158Y-119062500D01*
X126987201Y-121253457D02*
X126987201Y-120046543D01*
X124142500Y-124098158D02*
X126987201Y-121253457D01*
X126003158Y-119062500D02*
X124777500Y-119062500D01*
X124142500Y-127000000D02*
X124142500Y-124098158D01*
X124777500Y-127635000D02*
X124142500Y-127000000D01*
X124777500Y-135255000D02*
X124777500Y-127635000D01*
%TO.N,Net-(IC502-Pad16)*%
X131762500Y-107315000D02*
X131762500Y-111125000D01*
%TO.N,Net-(IC502-Pad15)*%
X129222500Y-107315000D02*
X129222500Y-111125000D01*
%TO.N,Net-(IC502-Pad14)*%
X126682500Y-107315000D02*
X126682500Y-111125000D01*
%TO.N,Net-(IC502-Pad13)*%
X124142500Y-107315000D02*
X124142500Y-111125000D01*
%TO.N,Net-(IC502-Pad12)*%
X121602500Y-107315000D02*
X121602500Y-111125000D01*
%TO.N,IO22*%
X45720000Y-65405000D02*
X46037500Y-65722500D01*
X36830000Y-65405000D02*
X45720000Y-65405000D01*
X36195000Y-66040000D02*
X36830000Y-65405000D01*
X36195000Y-67310000D02*
X36195000Y-66040000D01*
D42*
%TO.N,ROW4*%
X162800000Y-112060000D02*
X162800000Y-112000000D01*
X163991106Y-112060000D02*
X162800000Y-112060000D01*
X171070000Y-119138894D02*
X163991106Y-112060000D01*
X171070000Y-120730000D02*
X171070000Y-119138894D01*
X158591106Y-98860000D02*
X157400000Y-98860000D01*
X160972500Y-101241394D02*
X158591106Y-98860000D01*
X160972500Y-105410000D02*
X160972500Y-101241394D01*
X160972500Y-105535700D02*
X160972500Y-105410000D01*
X160972500Y-106997500D02*
X160972500Y-106362500D01*
X160972500Y-106362500D02*
X160972500Y-105410000D01*
X162800000Y-112060000D02*
X162542500Y-112060000D01*
X162542500Y-112060000D02*
X160972500Y-110490000D01*
X160972500Y-106045000D02*
X162800000Y-106045000D01*
X157480000Y-110172500D02*
X160972500Y-110172500D01*
X155892500Y-111760000D02*
X157480000Y-110172500D01*
X160972500Y-110172500D02*
X160972500Y-106045000D01*
X160972500Y-110490000D02*
X160972500Y-110172500D01*
D44*
%TO.N,SOUND*%
X58420000Y-118745000D02*
X39687500Y-118745000D01*
X35885000Y-114942500D02*
X35885000Y-108902500D01*
X39687500Y-118745000D02*
X35885000Y-114942500D01*
X58420000Y-111125000D02*
X58420000Y-113665000D01*
X58420000Y-113665000D02*
X58420000Y-116205000D01*
X58420000Y-116205000D02*
X58420000Y-118745000D01*
%TO.N,Net-(D101-Pad2)*%
X42862500Y-84772500D02*
X43497500Y-84137500D01*
X41275000Y-84772500D02*
X42862500Y-84772500D01*
X43497500Y-84137500D02*
X43497500Y-81280000D01*
D42*
%TO.N,Net-(R103-Pad2)*%
X49377699Y-83019801D02*
X51117500Y-81280000D01*
D44*
X49212500Y-83185000D02*
X51117500Y-81280000D01*
X49212500Y-88582500D02*
X49212500Y-83185000D01*
X51752500Y-91122500D02*
X49212500Y-88582500D01*
X51752500Y-94297500D02*
X51752500Y-91122500D01*
D42*
%TO.N,Net-(R104-Pad2)*%
X48895000Y-77470000D02*
X47942500Y-77470000D01*
X52122301Y-80697301D02*
X48895000Y-77470000D01*
X52122301Y-83132699D02*
X52122301Y-80697301D01*
X51117500Y-84137500D02*
X52122301Y-83132699D01*
D44*
%TO.N,Net-(D102-Pad1)*%
X41275000Y-75215000D02*
X41060000Y-75000000D01*
X41275000Y-82232500D02*
X41275000Y-75215000D01*
%TO.N,Net-(D101-Pad1)*%
X33655000Y-82232500D02*
X33655000Y-84772500D01*
D43*
%TO.N,+3V3*%
X64770000Y-50482500D02*
X59055000Y-50482500D01*
D42*
%TO.N,Net-(IC102-Pad6)*%
X117847699Y-76415899D02*
X117847699Y-66412699D01*
X117949300Y-76517500D02*
X117847699Y-76415899D01*
X118902500Y-76517500D02*
X117949300Y-76517500D01*
X116522500Y-65087500D02*
X113982500Y-65087500D01*
X117847699Y-66412699D02*
X116522500Y-65087500D01*
D44*
%TO.N,Net-(IC102-Pad11)*%
X128587500Y-80327500D02*
X129222500Y-80327500D01*
X127317500Y-79057500D02*
X128587500Y-80327500D01*
X126525000Y-79057500D02*
X127317500Y-79057500D01*
X126525000Y-79057500D02*
X124302500Y-79057500D01*
%TO.N,Net-(IC102-Pad8)*%
X129222500Y-75247500D02*
X126525000Y-75247500D01*
X126525000Y-75247500D02*
X124302500Y-75247500D01*
D42*
%TO.N,Net-(IC102-Pad3)*%
X121602500Y-78740000D02*
X120015000Y-80327500D01*
X121602500Y-71120000D02*
X121602500Y-78740000D01*
X125095000Y-67627500D02*
X121602500Y-71120000D01*
X120015000Y-80327500D02*
X118902500Y-80327500D01*
X129222500Y-67627500D02*
X125095000Y-67627500D01*
D44*
%TO.N,Net-(IC102-Pad1)*%
X135255000Y-95250000D02*
X135255000Y-93005000D01*
X118902500Y-82867500D02*
X120160500Y-82867500D01*
D42*
X120160500Y-83674500D02*
X120015000Y-83820000D01*
X120160500Y-82867500D02*
X120160500Y-83674500D01*
D44*
X121008323Y-80478715D02*
X121008323Y-80576702D01*
X120160500Y-82867500D02*
X121008323Y-82019677D01*
X121008323Y-82019677D02*
X121008323Y-80576702D01*
X124302500Y-77787500D02*
X123699538Y-77787500D01*
X123699538Y-77787500D02*
X121008323Y-80478715D01*
X118427500Y-79057500D02*
X118902500Y-79057500D01*
D42*
X125742702Y-90494102D02*
X125405898Y-90157298D01*
X135255000Y-95250000D02*
X132260747Y-95250000D01*
X128196533Y-97078720D02*
X125742702Y-94624889D01*
X132260747Y-95250000D02*
X130432027Y-97078720D01*
X122974100Y-90157298D02*
X122463825Y-90667573D01*
X125742702Y-94624889D02*
X125742702Y-90494102D01*
X125405898Y-90157298D02*
X122974100Y-90157298D01*
X130432027Y-97078720D02*
X128196533Y-97078720D01*
D44*
X118902506Y-79057506D02*
X119530067Y-79057506D01*
X118902500Y-79057500D02*
X118902506Y-79057506D01*
X119530067Y-79057506D02*
X120015000Y-79057506D01*
D43*
%TO.N,GND*%
X125412500Y-47625000D02*
X125412500Y-41592500D01*
X122872500Y-47625000D02*
X122872500Y-41592500D01*
X125412500Y-47625000D02*
X122872500Y-47625000D01*
X110172500Y-87947500D02*
X103505000Y-87947500D01*
D44*
X118902500Y-75247500D02*
X120160500Y-75247500D01*
X120160500Y-75247500D02*
X120954790Y-76041790D01*
X120954790Y-76041790D02*
X120954790Y-77345876D01*
X122240000Y-84455000D02*
X122148253Y-84546747D01*
X122148253Y-84546747D02*
X121297710Y-84546747D01*
D43*
X160477246Y-73098059D02*
X159346923Y-74228382D01*
X158718346Y-92424154D02*
X157162500Y-93980000D01*
X158718346Y-79678257D02*
X158718346Y-92424154D01*
X159346923Y-79049680D02*
X158718346Y-79678257D01*
X159346923Y-74228382D02*
X159346923Y-79049680D01*
X160477246Y-70685093D02*
X160477246Y-73098059D01*
D44*
X122314444Y-87057664D02*
X122339051Y-87033057D01*
X122250152Y-87121956D02*
X122314444Y-87057664D01*
X117348044Y-87121956D02*
X122250152Y-87121956D01*
X116840000Y-87630000D02*
X117348044Y-87121956D01*
D43*
X114204880Y-129635120D02*
X123190000Y-120650000D01*
X94297500Y-128270000D02*
X95662620Y-129635120D01*
X95662620Y-129635120D02*
X114204880Y-129635120D01*
X94297500Y-127317500D02*
X94297500Y-128270000D01*
D44*
X160477246Y-71424710D02*
X160477246Y-70685093D01*
X167082500Y-75052037D02*
X163455173Y-71424710D01*
X163455173Y-71424710D02*
X160477246Y-71424710D01*
X167082500Y-75132500D02*
X167082500Y-75052037D01*
D43*
X111785409Y-51597132D02*
X111785409Y-50457091D01*
X113477488Y-53289211D02*
X111785409Y-51597132D01*
X119430789Y-53289211D02*
X113477488Y-53289211D01*
X120967500Y-51752500D02*
X119430789Y-53289211D01*
X120967500Y-49530000D02*
X120967500Y-51752500D01*
X122872500Y-47625000D02*
X120967500Y-49530000D01*
X159702500Y-69910347D02*
X160477246Y-70685093D01*
X159702500Y-62547500D02*
X159702500Y-69910347D01*
X160020000Y-62230000D02*
X159702500Y-62547500D01*
X92075000Y-125095000D02*
X94297500Y-127317500D01*
X78740000Y-125095000D02*
X92075000Y-125095000D01*
X73977500Y-129857500D02*
X78740000Y-125095000D01*
X73977500Y-131762500D02*
X73977500Y-129857500D01*
X55285000Y-54015000D02*
X54610000Y-53340000D01*
X55285000Y-59372500D02*
X55285000Y-54015000D01*
X58697500Y-53340000D02*
X54610000Y-53340000D01*
X59055000Y-52982500D02*
X58697500Y-53340000D01*
X55245000Y-78105000D02*
X55880000Y-78105000D01*
X56656201Y-73483701D02*
X55245000Y-72072500D01*
X56656201Y-77328799D02*
X56656201Y-73483701D01*
X55880000Y-78105000D02*
X56656201Y-77328799D01*
X50647499Y-71272501D02*
X48577500Y-73342500D01*
X54445001Y-71272501D02*
X50647499Y-71272501D01*
X55245000Y-72072500D02*
X54445001Y-71272501D01*
X64730000Y-52982500D02*
X64770000Y-53022500D01*
X59055000Y-52982500D02*
X64730000Y-52982500D01*
X55285000Y-59372500D02*
X55285000Y-65405000D01*
X33655000Y-67310000D02*
X33655000Y-60960000D01*
X40005000Y-54610000D02*
X40322500Y-54610000D01*
X33655000Y-60960000D02*
X40005000Y-54610000D01*
X44767500Y-53340000D02*
X44450000Y-53657500D01*
X54610000Y-53340000D02*
X44767500Y-53340000D01*
X60325000Y-44132500D02*
X60325000Y-43815000D01*
X60007500Y-44450000D02*
X60325000Y-44132500D01*
X50165000Y-44450000D02*
X60007500Y-44450000D01*
X44450000Y-50165000D02*
X50165000Y-44450000D01*
D44*
X122240000Y-84455000D02*
X122240000Y-80378558D01*
X122240000Y-80378558D02*
X123012708Y-79605850D01*
X160020000Y-61745067D02*
X160020000Y-62230000D01*
X169507799Y-58065299D02*
X163699768Y-58065299D01*
X170815000Y-59372500D02*
X169507799Y-58065299D01*
X163699768Y-58065299D02*
X160020000Y-61745067D01*
%TO.N,Net-(IC502-Pad17)*%
X134302500Y-107315000D02*
X134302500Y-111125000D01*
%TO.N,Net-(IC501-Pad28)*%
X107950000Y-120650000D02*
X104457500Y-117157500D01*
X104457500Y-117157500D02*
X104457500Y-116522500D01*
%TO.N,Net-(IC102-Pad13)*%
X137795000Y-95250000D02*
X137795000Y-93027500D01*
D42*
X137795000Y-95250000D02*
X135667632Y-97377368D01*
X128028193Y-97485130D02*
X125095000Y-94551937D01*
X125095000Y-94551937D02*
X125095000Y-90805000D01*
X130600367Y-97485131D02*
X128028193Y-97485130D01*
X135667632Y-97377368D02*
X130708130Y-97377368D01*
X130708130Y-97377368D02*
X130600367Y-97485131D01*
X126365000Y-83820000D02*
X126365000Y-82996618D01*
X124965882Y-81597500D02*
X124302500Y-81597500D01*
X126365000Y-82996618D02*
X124965882Y-81597500D01*
%TD*%
D45*
%TO.N,GND*%
X53211031Y-64325500D02*
X32194500Y-64325500D01*
X32194500Y-43942000D01*
X52897439Y-43942000D01*
X53211031Y-64325500D01*
%TA.AperFunction,Conductor*%
D46*
G36*
X53211031Y-64325500D02*
G01*
X32194500Y-64325500D01*
X32194500Y-43942000D01*
X52897439Y-43942000D01*
X53211031Y-64325500D01*
G37*
%TD.AperFunction*%
%TD*%
D45*
%TO.N,GND*%
X57787641Y-119928061D02*
X58030595Y-120028696D01*
X58288514Y-120080000D01*
X58551486Y-120080000D01*
X58809405Y-120028696D01*
X59052359Y-119928061D01*
X59207350Y-119824500D01*
X65258267Y-119824500D01*
X65460877Y-119947853D01*
X65706670Y-120037722D01*
X65913000Y-119915201D01*
X65913000Y-119824500D01*
X66167000Y-119824500D01*
X66167000Y-119915201D01*
X66373330Y-120037722D01*
X66619123Y-119947853D01*
X66821733Y-119824500D01*
X72580500Y-119824500D01*
X72580500Y-127415554D01*
X70986478Y-129009577D01*
X70942868Y-129045367D01*
X70800033Y-129219411D01*
X70740153Y-129331440D01*
X70693898Y-129417977D01*
X70628539Y-129633433D01*
X70606471Y-129857500D01*
X70612001Y-129913649D01*
X70612000Y-135064500D01*
X45275500Y-135064500D01*
X45275500Y-135012817D01*
X45324812Y-134963505D01*
X45492799Y-134712095D01*
X45608511Y-134432743D01*
X45667500Y-134136184D01*
X45667500Y-133833816D01*
X45608511Y-133537257D01*
X45492799Y-133257905D01*
X45324812Y-133006495D01*
X45111005Y-132792688D01*
X44989698Y-132711633D01*
X45169616Y-132576649D01*
X45370462Y-132352573D01*
X45523734Y-132093620D01*
X45623541Y-131809741D01*
X45503492Y-131572000D01*
X44259500Y-131572000D01*
X44259500Y-131592000D01*
X44005500Y-131592000D01*
X44005500Y-131572000D01*
X43985500Y-131572000D01*
X43985500Y-131318000D01*
X44005500Y-131318000D01*
X44005500Y-131298000D01*
X44259500Y-131298000D01*
X44259500Y-131318000D01*
X45503492Y-131318000D01*
X45557977Y-131210098D01*
X58407500Y-131210098D01*
X58407500Y-131679902D01*
X58499154Y-132140679D01*
X58678940Y-132574721D01*
X58939950Y-132965349D01*
X59272151Y-133297550D01*
X59662779Y-133558560D01*
X60096821Y-133738346D01*
X60557598Y-133830000D01*
X61027402Y-133830000D01*
X61488179Y-133738346D01*
X61922221Y-133558560D01*
X62312849Y-133297550D01*
X62645050Y-132965349D01*
X62906060Y-132574721D01*
X63085846Y-132140679D01*
X63177500Y-131679902D01*
X63177500Y-131210098D01*
X63085846Y-130749321D01*
X62906060Y-130315279D01*
X62645050Y-129924651D01*
X62312849Y-129592450D01*
X61922221Y-129331440D01*
X61488179Y-129151654D01*
X61027402Y-129060000D01*
X60557598Y-129060000D01*
X60096821Y-129151654D01*
X59662779Y-129331440D01*
X59272151Y-129592450D01*
X58939950Y-129924651D01*
X58678940Y-130315279D01*
X58499154Y-130749321D01*
X58407500Y-131210098D01*
X45557977Y-131210098D01*
X45623541Y-131080259D01*
X45523734Y-130796380D01*
X45370462Y-130537427D01*
X45249692Y-130402689D01*
X45276680Y-130394502D01*
X45386994Y-130335537D01*
X45483685Y-130256185D01*
X45563037Y-130159494D01*
X45622002Y-130049180D01*
X45658312Y-129929482D01*
X45670572Y-129805000D01*
X45670572Y-128005000D01*
X45658312Y-127880518D01*
X45622002Y-127760820D01*
X45563037Y-127650506D01*
X45483685Y-127553815D01*
X45386994Y-127474463D01*
X45276680Y-127415498D01*
X45156982Y-127379188D01*
X45032500Y-127366928D01*
X43232500Y-127366928D01*
X43108018Y-127379188D01*
X42989500Y-127415140D01*
X42989500Y-126789721D01*
X66865000Y-126789721D01*
X66865000Y-127210279D01*
X66947047Y-127622756D01*
X67107988Y-128011302D01*
X67341637Y-128360983D01*
X67639017Y-128658363D01*
X67988698Y-128892012D01*
X68377244Y-129052953D01*
X68789721Y-129135000D01*
X69210279Y-129135000D01*
X69622756Y-129052953D01*
X70011302Y-128892012D01*
X70360983Y-128658363D01*
X70658363Y-128360983D01*
X70892012Y-128011302D01*
X71052953Y-127622756D01*
X71135000Y-127210279D01*
X71135000Y-126789721D01*
X71052953Y-126377244D01*
X70892012Y-125988698D01*
X70658363Y-125639017D01*
X70360983Y-125341637D01*
X70011302Y-125107988D01*
X69622756Y-124947047D01*
X69210279Y-124865000D01*
X68789721Y-124865000D01*
X68377244Y-124947047D01*
X67988698Y-125107988D01*
X67639017Y-125341637D01*
X67341637Y-125639017D01*
X67107988Y-125988698D01*
X66947047Y-126377244D01*
X66865000Y-126789721D01*
X42989500Y-126789721D01*
X42989500Y-126126915D01*
X43029494Y-126105537D01*
X43126185Y-126026185D01*
X43205537Y-125929494D01*
X43264502Y-125819180D01*
X43300812Y-125699482D01*
X43313072Y-125575000D01*
X43313072Y-124656524D01*
X43323320Y-124662002D01*
X43443018Y-124698312D01*
X43567500Y-124710572D01*
X45967500Y-124710572D01*
X46091982Y-124698312D01*
X46211680Y-124662002D01*
X46321994Y-124603037D01*
X46418685Y-124523685D01*
X46498037Y-124426994D01*
X46557002Y-124316680D01*
X46593312Y-124196982D01*
X46605572Y-124072500D01*
X46605572Y-123284305D01*
X60979305Y-123284305D01*
X61051879Y-123523566D01*
X61211861Y-123845757D01*
X61431625Y-124130546D01*
X61702726Y-124366989D01*
X62014746Y-124546000D01*
X62355694Y-124660699D01*
X62640500Y-124544354D01*
X62640500Y-122999500D01*
X62894500Y-122999500D01*
X62894500Y-124544354D01*
X63179306Y-124660699D01*
X63520254Y-124546000D01*
X63832274Y-124366989D01*
X64103375Y-124130546D01*
X64323139Y-123845757D01*
X64483121Y-123523566D01*
X64555695Y-123284305D01*
X64438932Y-122999500D01*
X62894500Y-122999500D01*
X62640500Y-122999500D01*
X61096068Y-122999500D01*
X60979305Y-123284305D01*
X46605572Y-123284305D01*
X46605572Y-122460695D01*
X60979305Y-122460695D01*
X61096068Y-122745500D01*
X62640500Y-122745500D01*
X62640500Y-121200646D01*
X62894500Y-121200646D01*
X62894500Y-122745500D01*
X64438932Y-122745500D01*
X64555695Y-122460695D01*
X64483121Y-122221434D01*
X64323139Y-121899243D01*
X64103375Y-121614454D01*
X63832274Y-121378011D01*
X63520254Y-121199000D01*
X63179306Y-121084301D01*
X62894500Y-121200646D01*
X62640500Y-121200646D01*
X62355694Y-121084301D01*
X62014746Y-121199000D01*
X61702726Y-121378011D01*
X61431625Y-121614454D01*
X61211861Y-121899243D01*
X61051879Y-122221434D01*
X60979305Y-122460695D01*
X46605572Y-122460695D01*
X46605572Y-121672500D01*
X46593312Y-121548018D01*
X46557002Y-121428320D01*
X46498037Y-121318006D01*
X46418685Y-121221315D01*
X46321994Y-121141963D01*
X46211680Y-121082998D01*
X46091982Y-121046688D01*
X45967500Y-121034428D01*
X43567500Y-121034428D01*
X43443018Y-121046688D01*
X43323320Y-121082998D01*
X43213006Y-121141963D01*
X43116315Y-121221315D01*
X43036963Y-121318006D01*
X42989500Y-121406802D01*
X42989500Y-119824500D01*
X57632650Y-119824500D01*
X57787641Y-119928061D01*
%TA.AperFunction,Conductor*%
D46*
G36*
X57787641Y-119928061D02*
G01*
X58030595Y-120028696D01*
X58288514Y-120080000D01*
X58551486Y-120080000D01*
X58809405Y-120028696D01*
X59052359Y-119928061D01*
X59207350Y-119824500D01*
X65258267Y-119824500D01*
X65460877Y-119947853D01*
X65706670Y-120037722D01*
X65913000Y-119915201D01*
X65913000Y-119824500D01*
X66167000Y-119824500D01*
X66167000Y-119915201D01*
X66373330Y-120037722D01*
X66619123Y-119947853D01*
X66821733Y-119824500D01*
X72580500Y-119824500D01*
X72580500Y-127415554D01*
X70986478Y-129009577D01*
X70942868Y-129045367D01*
X70800033Y-129219411D01*
X70740153Y-129331440D01*
X70693898Y-129417977D01*
X70628539Y-129633433D01*
X70606471Y-129857500D01*
X70612001Y-129913649D01*
X70612000Y-135064500D01*
X45275500Y-135064500D01*
X45275500Y-135012817D01*
X45324812Y-134963505D01*
X45492799Y-134712095D01*
X45608511Y-134432743D01*
X45667500Y-134136184D01*
X45667500Y-133833816D01*
X45608511Y-133537257D01*
X45492799Y-133257905D01*
X45324812Y-133006495D01*
X45111005Y-132792688D01*
X44989698Y-132711633D01*
X45169616Y-132576649D01*
X45370462Y-132352573D01*
X45523734Y-132093620D01*
X45623541Y-131809741D01*
X45503492Y-131572000D01*
X44259500Y-131572000D01*
X44259500Y-131592000D01*
X44005500Y-131592000D01*
X44005500Y-131572000D01*
X43985500Y-131572000D01*
X43985500Y-131318000D01*
X44005500Y-131318000D01*
X44005500Y-131298000D01*
X44259500Y-131298000D01*
X44259500Y-131318000D01*
X45503492Y-131318000D01*
X45557977Y-131210098D01*
X58407500Y-131210098D01*
X58407500Y-131679902D01*
X58499154Y-132140679D01*
X58678940Y-132574721D01*
X58939950Y-132965349D01*
X59272151Y-133297550D01*
X59662779Y-133558560D01*
X60096821Y-133738346D01*
X60557598Y-133830000D01*
X61027402Y-133830000D01*
X61488179Y-133738346D01*
X61922221Y-133558560D01*
X62312849Y-133297550D01*
X62645050Y-132965349D01*
X62906060Y-132574721D01*
X63085846Y-132140679D01*
X63177500Y-131679902D01*
X63177500Y-131210098D01*
X63085846Y-130749321D01*
X62906060Y-130315279D01*
X62645050Y-129924651D01*
X62312849Y-129592450D01*
X61922221Y-129331440D01*
X61488179Y-129151654D01*
X61027402Y-129060000D01*
X60557598Y-129060000D01*
X60096821Y-129151654D01*
X59662779Y-129331440D01*
X59272151Y-129592450D01*
X58939950Y-129924651D01*
X58678940Y-130315279D01*
X58499154Y-130749321D01*
X58407500Y-131210098D01*
X45557977Y-131210098D01*
X45623541Y-131080259D01*
X45523734Y-130796380D01*
X45370462Y-130537427D01*
X45249692Y-130402689D01*
X45276680Y-130394502D01*
X45386994Y-130335537D01*
X45483685Y-130256185D01*
X45563037Y-130159494D01*
X45622002Y-130049180D01*
X45658312Y-129929482D01*
X45670572Y-129805000D01*
X45670572Y-128005000D01*
X45658312Y-127880518D01*
X45622002Y-127760820D01*
X45563037Y-127650506D01*
X45483685Y-127553815D01*
X45386994Y-127474463D01*
X45276680Y-127415498D01*
X45156982Y-127379188D01*
X45032500Y-127366928D01*
X43232500Y-127366928D01*
X43108018Y-127379188D01*
X42989500Y-127415140D01*
X42989500Y-126789721D01*
X66865000Y-126789721D01*
X66865000Y-127210279D01*
X66947047Y-127622756D01*
X67107988Y-128011302D01*
X67341637Y-128360983D01*
X67639017Y-128658363D01*
X67988698Y-128892012D01*
X68377244Y-129052953D01*
X68789721Y-129135000D01*
X69210279Y-129135000D01*
X69622756Y-129052953D01*
X70011302Y-128892012D01*
X70360983Y-128658363D01*
X70658363Y-128360983D01*
X70892012Y-128011302D01*
X71052953Y-127622756D01*
X71135000Y-127210279D01*
X71135000Y-126789721D01*
X71052953Y-126377244D01*
X70892012Y-125988698D01*
X70658363Y-125639017D01*
X70360983Y-125341637D01*
X70011302Y-125107988D01*
X69622756Y-124947047D01*
X69210279Y-124865000D01*
X68789721Y-124865000D01*
X68377244Y-124947047D01*
X67988698Y-125107988D01*
X67639017Y-125341637D01*
X67341637Y-125639017D01*
X67107988Y-125988698D01*
X66947047Y-126377244D01*
X66865000Y-126789721D01*
X42989500Y-126789721D01*
X42989500Y-126126915D01*
X43029494Y-126105537D01*
X43126185Y-126026185D01*
X43205537Y-125929494D01*
X43264502Y-125819180D01*
X43300812Y-125699482D01*
X43313072Y-125575000D01*
X43313072Y-124656524D01*
X43323320Y-124662002D01*
X43443018Y-124698312D01*
X43567500Y-124710572D01*
X45967500Y-124710572D01*
X46091982Y-124698312D01*
X46211680Y-124662002D01*
X46321994Y-124603037D01*
X46418685Y-124523685D01*
X46498037Y-124426994D01*
X46557002Y-124316680D01*
X46593312Y-124196982D01*
X46605572Y-124072500D01*
X46605572Y-123284305D01*
X60979305Y-123284305D01*
X61051879Y-123523566D01*
X61211861Y-123845757D01*
X61431625Y-124130546D01*
X61702726Y-124366989D01*
X62014746Y-124546000D01*
X62355694Y-124660699D01*
X62640500Y-124544354D01*
X62640500Y-122999500D01*
X62894500Y-122999500D01*
X62894500Y-124544354D01*
X63179306Y-124660699D01*
X63520254Y-124546000D01*
X63832274Y-124366989D01*
X64103375Y-124130546D01*
X64323139Y-123845757D01*
X64483121Y-123523566D01*
X64555695Y-123284305D01*
X64438932Y-122999500D01*
X62894500Y-122999500D01*
X62640500Y-122999500D01*
X61096068Y-122999500D01*
X60979305Y-123284305D01*
X46605572Y-123284305D01*
X46605572Y-122460695D01*
X60979305Y-122460695D01*
X61096068Y-122745500D01*
X62640500Y-122745500D01*
X62640500Y-121200646D01*
X62894500Y-121200646D01*
X62894500Y-122745500D01*
X64438932Y-122745500D01*
X64555695Y-122460695D01*
X64483121Y-122221434D01*
X64323139Y-121899243D01*
X64103375Y-121614454D01*
X63832274Y-121378011D01*
X63520254Y-121199000D01*
X63179306Y-121084301D01*
X62894500Y-121200646D01*
X62640500Y-121200646D01*
X62355694Y-121084301D01*
X62014746Y-121199000D01*
X61702726Y-121378011D01*
X61431625Y-121614454D01*
X61211861Y-121899243D01*
X61051879Y-122221434D01*
X60979305Y-122460695D01*
X46605572Y-122460695D01*
X46605572Y-121672500D01*
X46593312Y-121548018D01*
X46557002Y-121428320D01*
X46498037Y-121318006D01*
X46418685Y-121221315D01*
X46321994Y-121141963D01*
X46211680Y-121082998D01*
X46091982Y-121046688D01*
X45967500Y-121034428D01*
X43567500Y-121034428D01*
X43443018Y-121046688D01*
X43323320Y-121082998D01*
X43213006Y-121141963D01*
X43116315Y-121221315D01*
X43036963Y-121318006D01*
X42989500Y-121406802D01*
X42989500Y-119824500D01*
X57632650Y-119824500D01*
X57787641Y-119928061D01*
G37*
%TD.AperFunction*%
%TD*%
M02*
