M48
; DRILL file {KiCad (5.1.8)-1} date 12/05/20 18:30:38
; FORMAT={-:-/ absolute / inch / decimal}
; #@! TF.CreationDate,2020-12-05T18:30:38+00:00
; #@! TF.GenerationSoftware,Kicad,Pcbnew,(5.1.8)-1
FMAT,2
INCH
T1C0.0157
T2C0.0236
T3C0.0276
T4C0.0315
T5C0.0394
T6C0.0400
T7C0.0402
T8C0.0472
T9C0.0492
T10C0.1201
T11C0.0709
T12C0.1063
T13C0.1181
T14C0.1378
%
G90
G05
T1
X1.5875Y-1.975
X1.5875Y-2.0125
X1.5875Y-2.1125
X1.5875Y-2.15
X1.625Y-1.975
X1.625Y-2.0125
X1.625Y-2.1125
X1.625Y-2.15
X1.7125Y-1.975
X1.7125Y-2.0125
X1.7125Y-2.1125
X1.7125Y-2.15
X1.75Y-1.975
X1.75Y-2.0125
X1.75Y-2.1125
X1.75Y-2.15
X2.2125Y-5.275
X2.225Y-5.0125
X2.225Y-5.0625
X2.3Y-5.0125
X2.3Y-5.0625
X2.3Y-5.275
X2.3125Y-3.175
X2.375Y-1.725
X2.375Y-5.0125
X2.375Y-5.0625
X2.3875Y-5.275
X2.45Y-5.0125
X2.45Y-5.0625
X2.4625Y-1.8
X2.475Y-5.275
X2.55Y-5.275
X2.8125Y-3.15
X2.875Y-2.7375
X2.9Y-1.725
X2.9665Y-2.95
X3.0875Y-4.775
X3.1Y-2.425
X3.1125Y-3.225
X3.1125Y-3.325
X3.125Y-4.75
X3.1375Y-3.5875
X3.15Y-2.275
X3.2565Y-2.3553
X3.3875Y-2.0
X3.4008Y-3.5672
X3.4613Y-4.8517
X3.5322Y-1.825
X3.6026Y-2.6444
X3.604Y-2.5696
X3.625Y-3.725
X3.6393Y-2.5154
X3.6462Y-3.7598
X3.655Y-2.24
X3.671Y-3.6776
X3.7974Y-2.5088
X3.8133Y-2.2566
X3.8159Y-3.9205
X3.8285Y-3.7215
X3.8353Y-2.6657
X3.8382Y-4.1078
X3.8498Y-2.4782
X3.854Y-3.7536
X3.8635Y-3.6408
X3.87Y-4.2392
X3.875Y-2.55
X3.8758Y-2.4119
X3.884Y-2.3609
X3.925Y-3.1125
X3.9342Y-2.8348
X3.9375Y-2.7875
X3.9505Y-2.3794
X3.9543Y-4.446
X3.9548Y-2.6347
X3.957Y-2.6716
X3.9632Y-3.7882
X3.9695Y-4.1433
X3.9808Y-2.4394
X4.0Y-4.4375
X4.0005Y-4.2175
X4.0125Y-4.1125
X4.013Y-3.5809
X4.013Y-3.7046
X4.0218Y-2.6299
X4.048Y-4.4396
X4.0575Y-2.3524
X4.0667Y-2.7189
X4.075Y-3.4625
X4.0767Y-2.5431
X4.0805Y-2.504
X4.0886Y-3.838
X4.0914Y-2.3611
X4.0925Y-3.2136
X4.1125Y-4.987
X4.1132Y-3.987
X4.1153Y-2.5079
X4.1157Y-2.7853
X4.145Y-3.966
X4.1455Y-4.2775
X4.1573Y-2.3591
X4.1584Y-2.5785
X4.1705Y-3.9169
X4.1855Y-2.9417
X4.1871Y-2.5998
X4.2145Y-2.75
X4.2166Y-2.6187
X4.2193Y-2.5431
X4.2214Y-2.2375
X4.225Y-3.875
X4.225Y-4.1125
X4.2255Y-3.8313
X4.2303Y-2.4762
X4.2375Y-2.6996
X4.2375Y-4.275
X4.244Y-2.597
X4.2454Y-4.188
X4.2495Y-2.7513
X4.25Y-2.5625
X4.2625Y-3.7125
X4.2875Y-2.1057
X4.3419Y-1.9941
X4.401Y-1.9865
X4.4625Y-1.975
X4.55Y-4.1625
X4.5809Y-4.0035
X4.5875Y-2.8995
X4.5875Y-2.9375
X4.5875Y-3.237
X4.5875Y-3.6211
X4.6Y-2.7625
X4.6Y-2.8375
X4.6Y-3.45
X4.61Y-3.7664
X4.6125Y-2.22
X4.6142Y-2.6364
X4.6295Y-3.7
X4.655Y-3.6625
X4.6708Y-3.5526
X4.679Y-3.5866
X4.725Y-3.1125
X4.725Y-3.3
X4.746Y-3.593
X4.762Y-3.0451
X4.7641Y-3.1723
X4.7662Y-3.6427
X4.7755Y-3.3286
X4.7875Y-3.5125
X4.8125Y-2.0375
X4.8165Y-3.4265
X4.8214Y-3.5696
X4.825Y-2.9375
X4.843Y-3.1341
X4.8625Y-2.675
X4.8707Y-3.3457
X4.8821Y-2.063
X4.8875Y-2.7625
X4.9Y-2.9
X4.9125Y-2.8375
X4.925Y-3.575
X4.9594Y-3.1875
X4.975Y-3.3
X5.1875Y-4.55
X5.191Y-4.5152
X5.25Y-2.479
X5.282Y-3.1945
X5.3Y-4.0625
X5.3202Y-2.167
X5.3241Y-2.25
X5.5871Y-3.7748
X5.6172Y-3.7926
X5.6764Y-3.7383
X5.7Y-3.7125
X5.7Y-3.925
X5.8446Y-3.8355
X5.8521Y-2.6012
X5.8614Y-3.0901
X5.8625Y-3.7375
X5.8631Y-3.0387
X5.8682Y-2.9549
X5.8683Y-3.9805
X5.875Y-2.8625
X5.8865Y-3.3135
X5.9481Y-3.9505
X5.9574Y-3.4489
X5.9662Y-3.641
X5.9956Y-3.5129
X6.0225Y-3.0983
X6.0227Y-3.6509
X6.0545Y-3.0303
X6.063Y-4.0236
X6.0898Y-2.7539
X6.096Y-2.5446
X6.1Y-2.225
X6.1037Y-3.0633
X6.119Y-2.9757
X6.1557Y-3.9054
X6.182Y-2.6125
X6.1823Y-2.8636
X6.1875Y-3.2125
X6.1875Y-3.7
X6.198Y-2.6639
X6.2Y-2.2625
X6.2Y-2.95
X6.2048Y-2.7169
X6.2125Y-2.1
X6.2375Y-2.85
X6.2625Y-3.8
X6.2688Y-2.8657
X6.2788Y-2.3335
X6.2902Y-3.7402
X6.3Y-2.2125
X6.3Y-2.45
X6.338Y-2.3433
X6.475Y-3.1
T2
X6.4094Y-3.96
X6.4094Y-4.06
X6.4594Y-4.01
X6.635Y-4.7531
X6.685Y-4.8031
X6.735Y-4.7531
X3.5125Y-2.675
X3.5625Y-2.625
X3.5625Y-2.725
X6.4094Y-4.175
X6.4094Y-4.275
X6.4594Y-4.225
X1.9875Y-3.7625
X2.0375Y-3.7125
X2.0375Y-3.8125
X6.1969Y-3.8921
X6.1969Y-3.9921
X6.2469Y-3.9421
X1.8875Y-3.05
X1.9375Y-3.0
X1.9875Y-3.05
X3.5375Y-4.0375
X3.5875Y-3.9875
X3.5875Y-4.0875
X6.4094Y-4.4118
X6.4094Y-4.5118
X6.4594Y-4.4618
T3
X2.7125Y-3.975
X2.7125Y-4.275
X5.2375Y-3.3625
X5.5375Y-3.3625
X1.7125Y-3.3125
X2.0125Y-3.3125
X4.3125Y-1.95
X4.3125Y-2.25
X2.9125Y-3.975
X2.9125Y-4.275
X5.2375Y-3.2625
X5.5375Y-3.2625
X1.2875Y-4.5375
X1.5875Y-4.5375
X2.8125Y-3.975
X2.8125Y-4.275
X5.2375Y-3.1625
X5.5375Y-3.1625
X3.575Y-2.15
X3.575Y-2.45
X3.5875Y-1.6
X3.8875Y-1.6
X5.8625Y-2.1625
X6.1625Y-2.1625
X6.5125Y-3.56
X6.5125Y-3.86
X2.3Y-4.675
X2.6Y-4.675
X5.2375Y-2.7625
X5.5375Y-2.7625
X2.2875Y-3.65
X2.2875Y-3.95
X3.2125Y-3.975
X3.2125Y-4.275
X1.775Y-4.275
X2.075Y-4.275
X2.0125Y-2.5875
X2.0125Y-2.8875
X1.8125Y-2.5875
X1.8125Y-2.8875
X3.4625Y-2.225
X3.4625Y-2.525
X5.2375Y-2.6625
X5.5375Y-2.6625
X3.4125Y-3.975
X3.4125Y-4.275
X1.275Y-3.475
X1.575Y-3.475
X3.9Y-1.9375
X4.2Y-1.9375
X3.5875Y-3.0375
X3.5875Y-3.3375
X5.2375Y-2.5625
X5.5375Y-2.5625
X4.0125Y-1.8125
X4.3125Y-1.8125
X2.3Y-4.575
X2.6Y-4.575
X2.3Y-4.475
X2.6Y-4.475
X3.4625Y-3.25
X3.4625Y-3.55
X3.1125Y-3.975
X3.1125Y-4.275
X5.2375Y-2.8625
X5.5375Y-2.8625
X2.6Y-3.0875
X2.6Y-3.3875
X3.3125Y-3.975
X3.3125Y-4.275
X5.2375Y-3.0625
X5.5375Y-3.0625
X3.4625Y-2.8625
X3.4625Y-3.1625
X2.3Y-4.375
X2.6Y-4.375
X3.0125Y-3.975
X3.0125Y-4.275
X5.2375Y-2.9625
X5.5375Y-2.9625
X1.7125Y-3.475
X2.0125Y-3.475
X2.175Y-2.95
X2.475Y-2.95
X1.7125Y-3.2
X2.0125Y-3.2
X1.9125Y-2.5875
X1.9125Y-2.8875
T4
X5.8031Y-3.9
X6.0Y-3.9
X2.1766Y-2.575
X2.275Y-2.575
X5.8Y-2.4625
X5.8Y-2.5625
X5.8Y-2.6625
X5.8Y-2.7625
X5.8Y-2.8625
X5.8Y-2.9625
X5.8Y-3.0625
X5.8Y-3.1625
X5.8Y-3.2625
X5.8Y-3.3625
X5.8Y-3.4625
X5.8Y-3.5625
X5.8Y-3.6625
X5.8Y-3.7625
X6.4Y-2.4625
X6.4Y-2.5625
X6.4Y-2.6625
X6.4Y-2.7625
X6.4Y-2.8625
X6.4Y-2.9625
X6.4Y-3.0625
X6.4Y-3.1625
X6.4Y-3.2625
X6.4Y-3.3625
X6.4Y-3.4625
X6.4Y-3.5625
X6.4Y-3.6625
X6.4Y-3.7625
X1.775Y-4.4
X1.9719Y-4.4
X5.325Y-2.4375
X5.5219Y-2.4375
X4.95Y-4.75
X4.95Y-4.9469
X4.4875Y-2.4625
X4.4875Y-2.5625
X4.4875Y-2.6625
X4.4875Y-2.7625
X4.4875Y-2.8625
X4.4875Y-2.9625
X4.4875Y-3.0625
X4.4875Y-3.1625
X4.4875Y-3.2625
X4.4875Y-3.3625
X4.4875Y-3.4625
X4.4875Y-3.5625
X4.4875Y-3.6625
X4.4875Y-3.7625
X5.0875Y-2.4625
X5.0875Y-2.5625
X5.0875Y-2.6625
X5.0875Y-2.7625
X5.0875Y-2.8625
X5.0875Y-2.9625
X5.0875Y-3.0625
X5.0875Y-3.1625
X5.0875Y-3.2625
X5.0875Y-3.3625
X5.0875Y-3.4625
X5.0875Y-3.5625
X5.0875Y-3.6625
X5.0875Y-3.7625
X6.1375Y-4.1
X6.1375Y-4.4
X1.9406Y-3.5875
X2.1375Y-3.5875
X1.775Y-4.5375
X1.9719Y-4.5375
X5.7375Y-4.5
X5.8375Y-4.5
X5.9375Y-4.5
X6.0375Y-4.5
X6.1375Y-4.5
X6.2375Y-4.5
X3.4625Y-1.9406
X3.4625Y-2.1375
X2.6Y-1.5516
X2.6Y-1.65
X2.725Y-1.65
X2.725Y-1.75
X2.725Y-1.85
X2.725Y-1.95
X2.725Y-2.05
X2.725Y-2.15
X2.725Y-2.25
X2.725Y-2.35
X2.725Y-2.45
X2.725Y-2.55
X2.725Y-2.65
X2.725Y-2.75
X2.725Y-2.85
X2.725Y-2.95
X2.725Y-3.05
X2.725Y-3.15
X2.725Y-3.25
X2.725Y-3.35
X2.725Y-3.45
X2.725Y-3.55
X3.325Y-1.65
X3.325Y-1.75
X3.325Y-1.85
X3.325Y-1.95
X3.325Y-2.05
X3.325Y-2.15
X3.325Y-2.25
X3.325Y-2.35
X3.325Y-2.45
X3.325Y-2.55
X3.325Y-2.65
X3.325Y-2.75
X3.325Y-2.85
X3.325Y-2.95
X3.325Y-3.05
X3.325Y-3.15
X3.325Y-3.25
X3.325Y-3.35
X3.325Y-3.45
X3.325Y-3.55
X5.2625Y-4.625
X5.2625Y-4.925
X4.4875Y-2.2625
X4.4875Y-2.3625
X5.0875Y-2.2625
X5.0875Y-2.3625
X2.175Y-2.8375
X2.3719Y-2.8375
X1.7656Y-3.95
X1.9625Y-3.95
X3.8625Y-2.0281
X3.8625Y-2.225
X6.5781Y-2.8005
X6.5781Y-2.8792
X6.5781Y-2.958
X6.5781Y-3.0367
X6.5781Y-3.1155
X6.5781Y-3.1942
X6.6765Y-2.8005
X6.6765Y-2.8792
X6.6765Y-2.958
X6.6765Y-3.0367
X6.6765Y-3.1155
X6.6765Y-3.1942
X4.6875Y-3.925
X4.6875Y-4.225
X4.7875Y-3.925
X4.7875Y-4.225
X4.8875Y-3.925
X4.8875Y-4.225
X4.9875Y-3.925
X4.9875Y-4.225
X5.0875Y-3.925
X5.0875Y-4.225
X5.1875Y-3.925
X5.1875Y-4.225
X5.2875Y-3.925
X5.2875Y-4.225
X5.3875Y-3.925
X5.3875Y-4.225
X5.4875Y-3.925
X5.4875Y-4.225
X5.5875Y-3.925
X5.5875Y-4.225
X2.9125Y-4.5875
X2.9125Y-5.1875
X3.0125Y-4.5875
X3.0125Y-5.1875
X3.1125Y-4.5875
X3.1125Y-5.1875
X3.2125Y-4.5875
X3.2125Y-5.1875
X3.3125Y-4.5875
X3.3125Y-5.1875
X3.4125Y-4.5875
X3.4125Y-5.1875
X3.5125Y-4.5875
X3.5125Y-5.1875
X3.6125Y-4.5875
X3.6125Y-5.1875
X3.7125Y-4.5875
X3.7125Y-5.1875
X3.8125Y-4.5875
X3.8125Y-5.1875
X3.9125Y-4.5875
X3.9125Y-5.1875
X4.0125Y-4.5875
X4.0125Y-5.1875
X4.1125Y-4.5875
X4.1125Y-5.1875
X4.2125Y-4.5875
X4.2125Y-5.1875
X4.3125Y-4.5875
X4.3125Y-5.1875
X4.4125Y-4.5875
X4.4125Y-5.1875
X4.5125Y-4.5875
X4.5125Y-5.1875
X4.6125Y-4.5875
X4.6125Y-5.1875
X4.7125Y-4.5875
X4.7125Y-5.1875
X4.8125Y-4.5875
X4.8125Y-5.1875
X2.175Y-3.075
X2.175Y-3.175
X2.175Y-3.275
X2.175Y-3.375
X2.475Y-3.075
X2.475Y-3.175
X2.475Y-3.275
X2.475Y-3.375
X3.7875Y-1.7141
X3.7875Y-1.8125
X3.2125Y-4.7125
X3.2125Y-5.0125
X3.3125Y-4.7125
X3.3125Y-5.0125
X3.4125Y-4.7125
X3.4125Y-5.0125
X3.5125Y-4.7125
X3.5125Y-5.0125
X3.6125Y-4.7125
X3.6125Y-5.0125
X3.7125Y-4.7125
X3.7125Y-5.0125
X3.8125Y-4.7125
X3.8125Y-5.0125
X3.9125Y-4.7125
X3.9125Y-5.0125
X5.9375Y-4.1
X5.9375Y-4.4
X6.0375Y-4.1
X6.0375Y-4.4
X3.525Y-4.2125
X3.6234Y-4.2125
X2.7125Y-3.8625
X2.8125Y-3.8625
X2.9125Y-3.8625
X3.0125Y-3.8625
X3.1125Y-3.8625
X3.2125Y-3.8625
X3.3125Y-3.8625
X3.4125Y-3.8625
X3.5125Y-3.8625
X2.1766Y-2.3375
X2.275Y-2.3375
X5.7375Y-4.1
X5.7375Y-4.4
X1.325Y-3.3375
X1.625Y-3.3375
X2.325Y-1.9875
X2.325Y-2.0859
X3.4375Y-4.3875
X3.6344Y-4.3875
X2.2781Y-3.5125
X2.475Y-3.5125
X3.7375Y-2.3625
X3.7375Y-2.4625
X3.7375Y-2.5625
X3.7375Y-2.6625
X3.7375Y-2.7625
X3.7375Y-2.8625
X3.7375Y-2.9625
X3.7375Y-3.0625
X3.7375Y-3.1625
X3.7375Y-3.2625
X3.7375Y-3.3625
X3.7375Y-3.4625
X3.7375Y-3.5625
X3.7375Y-3.6625
X3.7375Y-3.7625
X3.7375Y-3.8625
X3.7375Y-3.9625
X3.7375Y-4.0625
X3.7375Y-4.1625
X3.7375Y-4.2625
X4.3375Y-2.3625
X4.3375Y-2.4625
X4.3375Y-2.5625
X4.3375Y-2.6625
X4.3375Y-2.7625
X4.3375Y-2.8625
X4.3375Y-2.9625
X4.3375Y-3.0625
X4.3375Y-3.1625
X4.3375Y-3.2625
X4.3375Y-3.3625
X4.3375Y-3.4625
X4.3375Y-3.5625
X4.3375Y-3.6625
X4.3375Y-3.7625
X4.3375Y-3.8625
X4.3375Y-3.9625
X4.3375Y-4.0625
X4.3375Y-4.1625
X4.3375Y-4.2625
X5.1375Y-4.625
X5.1375Y-4.925
X5.8375Y-4.1
X5.8375Y-4.4
X6.2375Y-4.1
X6.2375Y-4.4
X1.325Y-3.2375
X1.625Y-3.2375
T5
X5.325Y-3.75
X5.425Y-3.75
X5.525Y-3.75
X1.7375Y-5.075
X1.7375Y-5.175
X1.7375Y-5.275
X6.525Y-2.225
X6.625Y-2.225
X6.725Y-2.225
X3.4125Y-5.325
X3.5125Y-5.325
X3.6125Y-5.325
X3.7125Y-5.325
X3.8125Y-5.325
X3.9125Y-5.325
X4.0125Y-5.325
X4.1125Y-5.325
X5.6625Y-2.5625
X5.6625Y-2.6625
X5.6625Y-2.7625
X5.6625Y-2.8625
X5.6625Y-2.9625
X5.6625Y-3.0625
X5.6625Y-3.1625
X5.6625Y-3.2625
X5.6625Y-3.3625
X5.05Y-5.175
X5.15Y-5.175
X5.25Y-5.175
X5.35Y-5.175
X5.45Y-5.175
X4.15Y-4.75
X4.25Y-4.75
X4.35Y-4.75
X4.45Y-4.75
X4.55Y-4.75
X4.65Y-4.75
X4.75Y-4.75
X4.85Y-4.75
X5.875Y-5.075
X5.975Y-5.075
X6.075Y-5.075
X6.175Y-5.075
X6.275Y-5.075
X6.375Y-5.075
X6.475Y-5.075
X6.575Y-5.075
X2.15Y-1.9
X2.15Y-2.0
X2.15Y-2.1
X6.525Y-2.3375
X6.625Y-2.3375
X6.725Y-2.3375
X4.2125Y-5.325
X4.3125Y-5.325
X4.4125Y-5.325
X4.5125Y-5.325
X4.6125Y-5.325
X4.7125Y-5.325
X4.8125Y-5.325
X4.9125Y-5.325
X4.5375Y-1.875
X4.5375Y-1.975
X4.6375Y-1.875
X4.6375Y-1.975
X4.8375Y-1.875
X4.8375Y-1.975
X4.9375Y-1.875
X4.9375Y-1.975
X5.0375Y-1.875
X5.0375Y-1.975
X5.1375Y-1.875
X5.1375Y-1.975
X5.2375Y-1.875
X5.2375Y-1.975
X5.3375Y-1.875
X5.3375Y-1.975
X5.4375Y-1.875
X5.4375Y-1.975
X5.5375Y-1.875
X5.5375Y-1.975
X5.6375Y-1.875
X5.6375Y-1.975
X5.7375Y-1.875
X5.7375Y-1.975
X5.8375Y-1.875
X5.8375Y-1.975
X5.9375Y-1.875
X5.9375Y-1.975
X6.0375Y-1.875
X6.0375Y-1.975
X6.1375Y-1.875
X6.1375Y-1.975
X6.2375Y-1.875
X6.2375Y-1.975
X6.3375Y-1.875
X6.3375Y-1.975
X6.4375Y-1.875
X6.4375Y-1.975
X6.5375Y-1.875
X6.5375Y-1.975
X6.6375Y-1.875
X6.6375Y-1.975
X6.7375Y-1.875
X6.7375Y-1.975
X3.4625Y-1.6406
X3.4625Y-1.7391
X3.4625Y-1.8375
X1.325Y-2.65
X1.425Y-2.65
X1.525Y-2.65
X1.625Y-2.65
X2.55Y-1.9875
X2.55Y-2.0875
X2.55Y-2.1875
X4.7875Y-4.375
X4.8875Y-4.375
X4.9875Y-4.375
X5.0875Y-4.375
X5.1875Y-4.375
X5.2875Y-4.375
X2.6125Y-3.725
X2.7125Y-3.725
X2.8125Y-3.725
X2.9125Y-3.725
X3.0125Y-3.725
X3.1125Y-3.725
X3.2125Y-3.725
X3.3125Y-3.725
X3.4125Y-3.725
T6
X5.5375Y-4.725
X5.5375Y-4.825
X5.6375Y-4.725
X5.6375Y-4.825
X5.7375Y-4.725
X5.7375Y-4.825
X5.8375Y-4.725
X5.8375Y-4.825
X5.9375Y-4.725
X5.9375Y-4.825
X6.0375Y-4.725
X6.0375Y-4.825
X6.1375Y-4.725
X6.1375Y-4.825
X6.2375Y-4.725
X6.2375Y-4.825
T7
X6.61Y-3.7549
X6.61Y-3.8652
X6.61Y-3.9699
X6.61Y-4.0801
X6.61Y-4.19
X6.71Y-3.81
X6.71Y-3.9199
X6.71Y-4.025
X6.71Y-4.1348
T8
X1.7625Y-4.8375
X2.4712Y-4.8375
T9
X6.517Y-3.2572
X6.7375Y-2.7375
T10
X6.71Y-3.475
X6.71Y-4.475
T11
X1.2898Y-2.815
X1.2898Y-3.0906
T12
X5.6929Y-2.126
T13
X6.6063Y-2.5433
X4.0709Y-1.622
X1.7795Y-3.6929
X4.0709Y-2.1417
X2.7165Y-5.0
T14
X2.3934Y-5.175
T5
G00X1.375Y-4.8356
M15
G01X1.375Y-4.9144
M16
G05
G00X1.4537Y-5.06
M15
G01X1.5325Y-5.06
M16
G05
G00X1.6112Y-4.8356
M15
G01X1.6112Y-4.9144
M16
G05
T8
G00X1.275Y-4.2521
M15
G01X1.275Y-4.3229
M16
G05
G00X1.4128Y-4.2521
M15
G01X1.4128Y-4.3229
M16
G05
G00X1.5506Y-4.2521
M15
G01X1.5506Y-4.3229
M16
G05
G00X1.4Y-2.9173
M15
G01X1.4Y-2.9882
M16
G05
G00X1.5811Y-2.9528
M15
G01X1.652Y-2.9528
M16
G05
G00X1.275Y-3.7021
M15
G01X1.275Y-3.7729
M16
G05
G00X1.4128Y-3.7021
M15
G01X1.4128Y-3.7729
M16
G05
G00X1.5506Y-3.7021
M15
G01X1.5506Y-3.7729
M16
G05
T0
M30
